<svg width="409" height="414" viewBox="0 0 409 414" fill="none" xmlns="http://www.w3.org/2000/svg">
<g clip-path="url(#clip0_1_6213)">
<path d="M215.715 0L207.822 72.7538H200.867L192.974 0H215.715Z" fill="url(#paint0_linear_1_6213)"/>
<path d="M180.059 1.14795L184.748 74.1788L177.91 75.4059L157.669 5.14585L180.059 1.14795Z" fill="url(#paint1_linear_1_6213)"/>
<path d="M145.126 8.55054L162.28 79.6419L155.754 82.0564L123.771 16.4276L145.126 8.55054Z" fill="url(#paint2_linear_1_6213)"/>
<path d="M112.009 21.9678L141.081 88.982L135.083 92.5049L92.335 33.4865L112.009 21.9678Z" fill="url(#paint3_linear_1_6213)"/>
<path d="M81.7064 41.0288L121.817 101.908L116.503 106.42L64.2983 55.8329L81.7064 41.0288Z" fill="url(#paint4_linear_1_6213)"/>
<path d="M55.1157 65.1343L105.054 118.017L100.599 123.401L40.5015 82.7686L55.1157 65.1343Z" fill="url(#paint5_linear_1_6213)"/>
<path d="M33.0577 93.5344L91.2995 136.838L87.8413 142.914L21.6868 113.465L33.0577 93.5344Z" fill="url(#paint6_linear_1_6213)"/>
<path d="M16.2162 125.379L81.0031 157.778L78.6195 164.388L8.44019 147.031L16.2162 125.379Z" fill="url(#paint7_linear_1_6213)"/>
<path d="M5.07964 159.716L74.4384 180.22L73.227 187.147L1.13306 182.397L5.07964 159.716Z" fill="url(#paint8_linear_1_6213)"/>
<path d="M0 195.5L71.8204 203.496V210.522L0 218.517V195.5Z" fill="url(#paint9_linear_1_6213)"/>
<path d="M1.13306 231.619L73.227 226.849L74.4384 233.776L5.07964 254.28L1.13306 231.619Z" fill="url(#paint10_linear_1_6213)"/>
<path d="M8.44019 266.987L78.6195 249.61L81.0031 256.22L16.2162 288.619L8.44019 266.987Z" fill="url(#paint11_linear_1_6213)"/>
<path d="M21.6868 300.536L87.8413 271.086L91.2995 277.182L33.0577 320.486L21.6868 300.536Z" fill="url(#paint12_linear_1_6213)"/>
<path d="M40.5015 331.251L100.599 290.6L105.054 296.003L55.1157 348.886L40.5015 331.251Z" fill="url(#paint13_linear_1_6213)"/>
<path d="M64.2983 358.188L116.503 307.581L121.817 312.113L81.7064 372.972L64.2983 358.188Z" fill="url(#paint14_linear_1_6213)"/>
<path d="M92.335 380.511L135.083 321.512L141.081 325.035L112.009 392.03L92.335 380.511Z" fill="url(#paint15_linear_1_6213)"/>
<path d="M123.771 397.594L155.754 331.965L162.28 334.36L145.126 405.471L123.771 397.594Z" fill="url(#paint16_linear_1_6213)"/>
<path d="M157.669 408.874L177.91 338.614L184.748 339.821L180.059 412.871L157.669 408.874Z" fill="url(#paint17_linear_1_6213)"/>
<path d="M192.974 413.999L200.867 341.265H207.822L215.715 413.999H192.974Z" fill="url(#paint18_linear_1_6213)"/>
<path d="M228.649 412.871L223.941 339.821L230.779 338.614L251.02 408.874L228.649 412.871Z" fill="url(#paint19_linear_1_6213)"/>
<path d="M263.563 405.471L246.409 334.36L252.935 331.965L284.918 397.594L263.563 405.471Z" fill="url(#paint20_linear_1_6213)"/>
<path d="M296.679 392.03L267.607 325.035L273.625 321.512L316.373 380.511L296.679 392.03Z" fill="url(#paint21_linear_1_6213)"/>
<path d="M327.002 372.972L286.872 312.113L292.205 307.581L344.41 358.188L327.002 372.972Z" fill="url(#paint22_linear_1_6213)"/>
<path d="M353.573 348.886L303.635 296.003L308.109 290.6L368.187 331.251L353.573 348.886Z" fill="url(#paint23_linear_1_6213)"/>
<path d="M375.631 320.486L317.389 277.182L320.867 271.086L387.002 300.536L375.631 320.486Z" fill="url(#paint24_linear_1_6213)"/>
<path d="M392.492 288.619L327.705 256.22L330.069 249.61L400.268 266.987L392.492 288.619Z" fill="url(#paint25_linear_1_6213)"/>
<path d="M403.609 254.28L334.27 233.776L335.462 226.849L407.556 231.619L403.609 254.28Z" fill="url(#paint26_linear_1_6213)"/>
<path d="M408.689 218.517L336.888 210.522V203.496L408.689 195.5V218.517Z" fill="url(#paint27_linear_1_6213)"/>
<path d="M407.556 182.397L335.462 187.147L334.27 180.22L403.609 159.716L407.556 182.397Z" fill="url(#paint28_linear_1_6213)"/>
<path d="M400.268 147.031L330.069 164.388L327.705 157.778L392.492 125.379L400.268 147.031Z" fill="url(#paint29_linear_1_6213)"/>
<path d="M387.002 113.465L320.867 142.914L317.389 136.838L375.631 93.5344L387.002 113.465Z" fill="url(#paint30_linear_1_6213)"/>
<path d="M368.187 82.7686L308.109 123.401L303.635 118.017L353.573 65.1343L368.187 82.7686Z" fill="url(#paint31_linear_1_6213)"/>
<path d="M344.41 55.8329L292.205 106.42L286.872 101.908L327.002 41.0288L344.41 55.8329Z" fill="url(#paint32_linear_1_6213)"/>
<path d="M316.373 33.4865L273.625 92.5049L267.607 88.982L296.679 21.9678L316.373 33.4865Z" fill="url(#paint33_linear_1_6213)"/>
<path d="M284.918 16.4276L252.935 82.0564L246.409 79.6419L263.563 8.55054L284.918 16.4276Z" fill="url(#paint34_linear_1_6213)"/>
<path d="M251.02 5.14585L230.779 75.4059L223.941 74.1788L228.649 1.14795L251.02 5.14585Z" fill="url(#paint35_linear_1_6213)"/>
<path d="M145.126 8.55054L162.28 79.6419L155.754 82.0564L123.771 16.4276L145.126 8.55054Z" fill="url(#paint36_linear_1_6213)"/>
<path d="M81.7064 41.0288L121.817 101.908L116.503 106.42L64.2983 55.8329L81.7064 41.0288Z" fill="url(#paint37_linear_1_6213)"/>
<path d="M33.0577 93.5344L91.2995 136.838L87.8413 142.914L21.6868 113.465L33.0577 93.5344Z" fill="url(#paint38_linear_1_6213)"/>
<path d="M5.07964 159.716L74.4384 180.22L73.227 187.147L1.13306 182.397L5.07964 159.716Z" fill="url(#paint39_linear_1_6213)"/>
<path d="M1.13306 231.619L73.227 226.849L74.4384 233.776L5.07964 254.28L1.13306 231.619Z" fill="url(#paint40_linear_1_6213)"/>
<path d="M21.6868 300.536L87.8413 271.086L91.2995 277.182L33.0577 320.486L21.6868 300.536Z" fill="url(#paint41_linear_1_6213)"/>
<path d="M64.2983 358.188L116.503 307.581L121.817 312.113L81.7064 372.972L64.2983 358.188Z" fill="url(#paint42_linear_1_6213)"/>
<path d="M123.771 397.594L155.754 331.965L162.28 334.36L145.126 405.471L123.771 397.594Z" fill="url(#paint43_linear_1_6213)"/>
<path d="M192.974 413.999L200.867 341.265H207.822L215.715 413.999H192.974Z" fill="url(#paint44_linear_1_6213)"/>
<path d="M263.563 405.471L246.409 334.36L252.935 331.965L284.918 397.594L263.563 405.471Z" fill="url(#paint45_linear_1_6213)"/>
<path d="M327.002 372.972L286.872 312.113L292.205 307.581L344.41 358.188L327.002 372.972Z" fill="url(#paint46_linear_1_6213)"/>
<path d="M375.631 320.486L317.389 277.182L320.867 271.086L387.002 300.536L375.631 320.486Z" fill="url(#paint47_linear_1_6213)"/>
<path d="M403.609 254.28L334.27 233.776L335.462 226.849L407.556 231.619L403.609 254.28Z" fill="url(#paint48_linear_1_6213)"/>
<path d="M407.556 182.397L335.462 187.147L334.27 180.22L403.609 159.716L407.556 182.397Z" fill="url(#paint49_linear_1_6213)"/>
<path d="M387.002 113.465L320.867 142.914L317.389 136.838L375.631 93.5344L387.002 113.465Z" fill="url(#paint50_linear_1_6213)"/>
<path d="M344.41 55.8329L292.205 106.42L286.872 101.908L327.002 41.0288L344.41 55.8329Z" fill="url(#paint51_linear_1_6213)"/>
<path d="M284.918 16.4276L252.935 82.0564L246.409 79.6419L263.563 8.55054L284.918 16.4276Z" fill="url(#paint52_linear_1_6213)"/>
<path d="M234.139 105.864L244.006 80.3523C242.208 79.7783 240.391 79.2242 238.555 78.7294C236.718 78.2346 234.882 77.7794 233.026 77.3638L228.864 104.439L234.139 105.883V105.864Z" fill="url(#paint53_linear_1_6213)"/>
<path d="M216.341 102.162L221.674 75.285C217.884 74.7704 214.113 74.434 210.343 74.2559L210.89 101.667L216.321 102.162H216.341Z" fill="url(#paint54_linear_1_6213)"/>
<path d="M180.216 104.32L176.152 77.2053C172.44 78.0366 168.767 79.0261 165.172 80.1741L174.94 105.745L180.216 104.32Z" fill="url(#paint55_linear_1_6213)"/>
<path d="M147.001 118.868L134.048 94.8213C130.844 96.8796 127.737 99.0765 124.729 101.412L142.527 122.035L147.001 118.868Z" fill="url(#paint56_linear_1_6213)"/>
<path d="M120.704 144.064L100.385 125.935C98.0792 128.963 95.8911 132.11 93.8396 135.356L117.558 148.577L120.704 144.044V144.064Z" fill="url(#paint57_linear_1_6213)"/>
<path d="M104.507 176.839L79.3229 166.844C78.7564 168.665 78.2093 170.505 77.7209 172.366C77.2325 174.226 76.7831 176.087 76.3728 177.967L103.1 182.182L104.527 176.839H104.507Z" fill="url(#paint58_linear_1_6213)"/>
<path d="M100.326 213.253L73.2664 212.6C73.4227 216.46 73.7548 220.279 74.2432 224.079L100.795 218.775L100.326 213.273V213.253Z" fill="url(#paint59_linear_1_6213)"/>
<path d="M108.708 248.898L83.0742 257.646C84.52 261.188 86.1221 264.691 87.861 268.096L110.994 253.925L108.688 248.917L108.708 248.898Z" fill="url(#paint60_linear_1_6213)"/>
<path d="M128.636 279.517L107.496 296.617C110.036 299.447 112.732 302.178 115.526 304.771L132.505 283.416L128.656 279.497L128.636 279.517Z" fill="url(#paint61_linear_1_6213)"/>
<path d="M157.669 301.365L143.583 324.778C146.923 326.54 150.362 328.182 153.879 329.667L162.612 303.72L157.669 301.365Z" fill="url(#paint62_linear_1_6213)"/>
<path d="M192.348 311.856L187.015 338.733C190.805 339.247 194.576 339.584 198.346 339.762L197.799 312.351L192.368 311.856H192.348Z" fill="url(#paint63_linear_1_6213)"/>
<path d="M228.473 309.678L232.537 336.793C236.249 335.961 239.922 334.972 243.517 333.824L233.749 308.253L228.473 309.678Z" fill="url(#paint64_linear_1_6213)"/>
<path d="M261.688 295.13L274.641 319.177C277.845 317.119 280.952 314.922 283.96 312.587L266.162 291.964L261.688 295.13Z" fill="url(#paint65_linear_1_6213)"/>
<path d="M287.985 269.955L308.305 288.084C310.61 285.056 312.798 281.909 314.85 278.663L291.131 265.442L287.985 269.975V269.955Z" fill="url(#paint66_linear_1_6213)"/>
<path d="M304.201 237.183L329.386 247.178C329.952 245.357 330.499 243.516 330.988 241.656C331.476 239.795 331.925 237.935 332.336 236.055L305.608 231.839L304.182 237.183H304.201Z" fill="url(#paint67_linear_1_6213)"/>
<path d="M308.363 200.767L335.423 201.42C335.266 197.56 334.934 193.741 334.446 189.941L307.894 195.245L308.363 200.747V200.767Z" fill="url(#paint68_linear_1_6213)"/>
<path d="M299.981 165.102L325.615 156.354C324.169 152.812 322.567 149.308 320.828 145.904L297.696 160.075L300.001 165.082L299.981 165.102Z" fill="url(#paint69_linear_1_6213)"/>
<path d="M280.073 134.501L301.212 117.401C298.672 114.571 295.976 111.84 293.182 109.247L276.204 130.602L280.053 134.521L280.073 134.501Z" fill="url(#paint70_linear_1_6213)"/>
<path d="M251.02 112.632L265.107 89.2186C261.766 87.4571 258.327 85.8144 254.81 84.3301L246.077 110.277L251.02 112.632Z" fill="url(#paint71_linear_1_6213)"/>
<path d="M198.19 101.629L198.835 74.2173C195.025 74.3756 191.254 74.7121 187.503 75.2069L192.739 102.104L198.17 101.629H198.19Z" fill="url(#paint72_linear_1_6213)"/>
<path d="M162.983 110.119L154.348 84.1523C150.85 85.6169 147.392 87.2398 144.032 89.0013L158.021 112.434L162.964 110.099L162.983 110.119Z" fill="url(#paint73_linear_1_6213)"/>
<path d="M132.758 130.306L115.878 108.892C113.084 111.465 110.388 114.196 107.828 117.026L128.91 134.225L132.778 130.326L132.758 130.306Z" fill="url(#paint74_linear_1_6213)"/>
<path d="M111.189 159.718L88.0758 145.448C86.337 148.833 84.7153 152.316 83.25 155.878L108.864 164.725L111.189 159.718Z" fill="url(#paint75_linear_1_6213)"/>
<path d="M100.834 194.849L74.3019 189.446C73.7939 193.285 73.4617 197.105 73.2859 200.925L100.346 200.371L100.834 194.869V194.849Z" fill="url(#paint76_linear_1_6213)"/>
<path d="M102.983 231.441L76.2166 235.558C77.0371 239.318 78.014 243.039 79.1472 246.68L104.39 236.785L102.983 231.441Z" fill="url(#paint77_linear_1_6213)"/>
<path d="M117.343 265.087L93.605 278.208C95.6369 281.454 97.8056 284.601 100.111 287.649L120.469 269.619L117.343 265.087Z" fill="url(#paint78_linear_1_6213)"/>
<path d="M142.215 291.728L124.318 312.311C127.308 314.647 130.414 316.863 133.618 318.941L146.669 294.914L142.195 291.728H142.215Z" fill="url(#paint79_linear_1_6213)"/>
<path d="M174.569 308.153L164.703 333.664C166.5 334.238 168.317 334.793 170.154 335.287C171.99 335.782 173.827 336.237 175.683 336.653L179.844 309.578L174.569 308.133V308.153Z" fill="url(#paint80_linear_1_6213)"/>
<path d="M210.518 312.37L209.874 339.781C213.683 339.623 217.454 339.286 221.205 338.791L215.969 311.895L210.538 312.37H210.518Z" fill="url(#paint81_linear_1_6213)"/>
<path d="M245.706 303.878L254.341 329.844C257.839 328.38 261.297 326.757 264.657 324.995L250.668 301.562L245.725 303.897L245.706 303.878Z" fill="url(#paint82_linear_1_6213)"/>
<path d="M275.93 283.71L292.811 305.124C295.605 302.552 298.301 299.82 300.86 296.99L279.779 279.791L275.911 283.69L275.93 283.71Z" fill="url(#paint83_linear_1_6213)"/>
<path d="M297.5 254.28L320.613 268.55C322.352 265.165 323.974 261.682 325.439 258.12L299.825 249.273L297.5 254.28Z" fill="url(#paint84_linear_1_6213)"/>
<path d="M307.855 219.152L334.387 224.555C334.895 220.715 335.227 216.896 335.403 213.076L308.343 213.63L307.855 219.132V219.152Z" fill="url(#paint85_linear_1_6213)"/>
<path d="M305.706 182.555L332.473 178.439C331.652 174.678 330.675 170.957 329.542 167.316L304.299 177.211L305.706 182.555Z" fill="url(#paint86_linear_1_6213)"/>
<path d="M291.346 148.911L315.084 135.789C313.052 132.543 310.883 129.397 308.578 126.349L288.22 144.379L291.346 148.911Z" fill="url(#paint87_linear_1_6213)"/>
<path d="M266.494 122.271L284.39 101.687C281.401 99.3519 278.295 97.1352 275.09 95.0571L262.039 119.084L266.513 122.271H266.494Z" fill="url(#paint88_linear_1_6213)"/>
</g>
<defs>
<linearGradient id="paint0_linear_1_6213" x1="112.713" y1="-142.717" x2="410.081" y2="400.238" gradientUnits="userSpaceOnUse">
<stop stop-color="#0050B8"/>
<stop offset="0.33" stop-color="#498094"/>
<stop offset="0.65" stop-color="#87A975"/>
<stop offset="0.88" stop-color="#AEC363"/>
<stop offset="1" stop-color="#BDCD5C"/>
</linearGradient>
<linearGradient id="paint1_linear_1_6213" x1="89.248" y1="-129.852" x2="386.616" y2="413.083" gradientUnits="userSpaceOnUse">
<stop stop-color="#0050B8"/>
<stop offset="0.33" stop-color="#498094"/>
<stop offset="0.65" stop-color="#87A975"/>
<stop offset="0.88" stop-color="#AEC363"/>
<stop offset="1" stop-color="#BDCD5C"/>
</linearGradient>
<linearGradient id="paint2_linear_1_6213" x1="64.2592" y1="-116.176" x2="361.647" y2="426.76" gradientUnits="userSpaceOnUse">
<stop stop-color="#0050B8"/>
<stop offset="0.33" stop-color="#498094"/>
<stop offset="0.65" stop-color="#87A975"/>
<stop offset="0.88" stop-color="#AEC363"/>
<stop offset="1" stop-color="#BDCD5C"/>
</linearGradient>
<linearGradient id="paint3_linear_1_6213" x1="34.1518" y1="-99.691" x2="331.539" y2="443.244" gradientUnits="userSpaceOnUse">
<stop stop-color="#0050B8"/>
<stop offset="0.33" stop-color="#498094"/>
<stop offset="0.65" stop-color="#87A975"/>
<stop offset="0.88" stop-color="#AEC363"/>
<stop offset="1" stop-color="#BDCD5C"/>
</linearGradient>
<linearGradient id="paint4_linear_1_6213" x1="5.97842" y1="-84.2518" x2="303.366" y2="458.683" gradientUnits="userSpaceOnUse">
<stop stop-color="#0050B8"/>
<stop offset="0.33" stop-color="#498094"/>
<stop offset="0.65" stop-color="#87A975"/>
<stop offset="0.88" stop-color="#AEC363"/>
<stop offset="1" stop-color="#BDCD5C"/>
</linearGradient>
<linearGradient id="paint5_linear_1_6213" x1="-18.6" y1="-70.7942" x2="278.788" y2="472.141" gradientUnits="userSpaceOnUse">
<stop stop-color="#0050B8"/>
<stop offset="0.33" stop-color="#498094"/>
<stop offset="0.65" stop-color="#87A975"/>
<stop offset="0.88" stop-color="#AEC363"/>
<stop offset="1" stop-color="#BDCD5C"/>
</linearGradient>
<linearGradient id="paint6_linear_1_6213" x1="-41.4199" y1="-58.3065" x2="255.968" y2="484.649" gradientUnits="userSpaceOnUse">
<stop stop-color="#0050B8"/>
<stop offset="0.33" stop-color="#498094"/>
<stop offset="0.65" stop-color="#87A975"/>
<stop offset="0.88" stop-color="#AEC363"/>
<stop offset="1" stop-color="#BDCD5C"/>
</linearGradient>
<linearGradient id="paint7_linear_1_6213" x1="-61.7978" y1="-47.1442" x2="235.59" y2="495.811" gradientUnits="userSpaceOnUse">
<stop stop-color="#0050B8"/>
<stop offset="0.33" stop-color="#498094"/>
<stop offset="0.65" stop-color="#87A975"/>
<stop offset="0.88" stop-color="#AEC363"/>
<stop offset="1" stop-color="#BDCD5C"/>
</linearGradient>
<linearGradient id="paint8_linear_1_6213" x1="-79.0886" y1="-37.665" x2="218.28" y2="505.29" gradientUnits="userSpaceOnUse">
<stop stop-color="#0050B8"/>
<stop offset="0.33" stop-color="#498094"/>
<stop offset="0.65" stop-color="#87A975"/>
<stop offset="0.88" stop-color="#AEC363"/>
<stop offset="1" stop-color="#BDCD5C"/>
</linearGradient>
<linearGradient id="paint9_linear_1_6213" x1="-92.8039" y1="-30.144" x2="204.564" y2="512.791" gradientUnits="userSpaceOnUse">
<stop stop-color="#0050B8"/>
<stop offset="0.33" stop-color="#498094"/>
<stop offset="0.65" stop-color="#87A975"/>
<stop offset="0.88" stop-color="#AEC363"/>
<stop offset="1" stop-color="#BDCD5C"/>
</linearGradient>
<linearGradient id="paint10_linear_1_6213" x1="-102.514" y1="-24.8401" x2="194.873" y2="518.115" gradientUnits="userSpaceOnUse">
<stop stop-color="#0050B8"/>
<stop offset="0.33" stop-color="#498094"/>
<stop offset="0.65" stop-color="#87A975"/>
<stop offset="0.88" stop-color="#AEC363"/>
<stop offset="1" stop-color="#BDCD5C"/>
</linearGradient>
<linearGradient id="paint11_linear_1_6213" x1="-107.907" y1="-21.8713" x2="189.481" y2="521.064" gradientUnits="userSpaceOnUse">
<stop stop-color="#0050B8"/>
<stop offset="0.33" stop-color="#498094"/>
<stop offset="0.65" stop-color="#87A975"/>
<stop offset="0.88" stop-color="#AEC363"/>
<stop offset="1" stop-color="#BDCD5C"/>
</linearGradient>
<linearGradient id="paint12_linear_1_6213" x1="-109.02" y1="-21.2547" x2="188.348" y2="521.681" gradientUnits="userSpaceOnUse">
<stop stop-color="#0050B8"/>
<stop offset="0.33" stop-color="#498094"/>
<stop offset="0.65" stop-color="#87A975"/>
<stop offset="0.88" stop-color="#AEC363"/>
<stop offset="1" stop-color="#BDCD5C"/>
</linearGradient>
<linearGradient id="paint13_linear_1_6213" x1="-106.656" y1="-22.5623" x2="190.712" y2="520.373" gradientUnits="userSpaceOnUse">
<stop stop-color="#0050B8"/>
<stop offset="0.33" stop-color="#498094"/>
<stop offset="0.65" stop-color="#87A975"/>
<stop offset="0.88" stop-color="#AEC363"/>
<stop offset="1" stop-color="#BDCD5C"/>
</linearGradient>
<linearGradient id="paint14_linear_1_6213" x1="-99.8571" y1="-26.2828" x2="197.511" y2="516.653" gradientUnits="userSpaceOnUse">
<stop stop-color="#0050B8"/>
<stop offset="0.33" stop-color="#498094"/>
<stop offset="0.65" stop-color="#87A975"/>
<stop offset="0.88" stop-color="#AEC363"/>
<stop offset="1" stop-color="#BDCD5C"/>
</linearGradient>
<linearGradient id="paint15_linear_1_6213" x1="-88.8379" y1="-32.3213" x2="208.55" y2="510.614" gradientUnits="userSpaceOnUse">
<stop stop-color="#0050B8"/>
<stop offset="0.33" stop-color="#498094"/>
<stop offset="0.65" stop-color="#87A975"/>
<stop offset="0.88" stop-color="#AEC363"/>
<stop offset="1" stop-color="#BDCD5C"/>
</linearGradient>
<linearGradient id="paint16_linear_1_6213" x1="-73.9309" y1="-40.4926" x2="223.457" y2="502.463" gradientUnits="userSpaceOnUse">
<stop stop-color="#0050B8"/>
<stop offset="0.33" stop-color="#498094"/>
<stop offset="0.65" stop-color="#87A975"/>
<stop offset="0.88" stop-color="#AEC363"/>
<stop offset="1" stop-color="#BDCD5C"/>
</linearGradient>
<linearGradient id="paint17_linear_1_6213" x1="-55.5849" y1="-50.5481" x2="241.803" y2="492.407" gradientUnits="userSpaceOnUse">
<stop stop-color="#0050B8"/>
<stop offset="0.33" stop-color="#498094"/>
<stop offset="0.65" stop-color="#87A975"/>
<stop offset="0.88" stop-color="#AEC363"/>
<stop offset="1" stop-color="#BDCD5C"/>
</linearGradient>
<linearGradient id="paint18_linear_1_6213" x1="-34.3468" y1="-62.1659" x2="263.041" y2="480.769" gradientUnits="userSpaceOnUse">
<stop stop-color="#0050B8"/>
<stop offset="0.33" stop-color="#498094"/>
<stop offset="0.65" stop-color="#87A975"/>
<stop offset="0.88" stop-color="#AEC363"/>
<stop offset="1" stop-color="#BDCD5C"/>
</linearGradient>
<linearGradient id="paint19_linear_1_6213" x1="-10.8823" y1="-75.0303" x2="286.506" y2="467.924" gradientUnits="userSpaceOnUse">
<stop stop-color="#0050B8"/>
<stop offset="0.33" stop-color="#498094"/>
<stop offset="0.65" stop-color="#87A975"/>
<stop offset="0.88" stop-color="#AEC363"/>
<stop offset="1" stop-color="#BDCD5C"/>
</linearGradient>
<linearGradient id="paint20_linear_1_6213" x1="14.1062" y1="-88.7049" x2="311.474" y2="454.23" gradientUnits="userSpaceOnUse">
<stop stop-color="#0050B8"/>
<stop offset="0.33" stop-color="#498094"/>
<stop offset="0.65" stop-color="#87A975"/>
<stop offset="0.88" stop-color="#AEC363"/>
<stop offset="1" stop-color="#BDCD5C"/>
</linearGradient>
<linearGradient id="paint21_linear_1_6213" x1="44.1943" y1="-105.194" x2="341.582" y2="437.741" gradientUnits="userSpaceOnUse">
<stop stop-color="#0050B8"/>
<stop offset="0.33" stop-color="#498094"/>
<stop offset="0.65" stop-color="#87A975"/>
<stop offset="0.88" stop-color="#AEC363"/>
<stop offset="1" stop-color="#BDCD5C"/>
</linearGradient>
<linearGradient id="paint22_linear_1_6213" x1="72.3675" y1="-120.629" x2="369.755" y2="422.326" gradientUnits="userSpaceOnUse">
<stop stop-color="#0050B8"/>
<stop offset="0.33" stop-color="#498094"/>
<stop offset="0.65" stop-color="#87A975"/>
<stop offset="0.88" stop-color="#AEC363"/>
<stop offset="1" stop-color="#BDCD5C"/>
</linearGradient>
<linearGradient id="paint23_linear_1_6213" x1="96.9457" y1="-134.088" x2="394.333" y2="408.867" gradientUnits="userSpaceOnUse">
<stop stop-color="#0050B8"/>
<stop offset="0.33" stop-color="#498094"/>
<stop offset="0.65" stop-color="#87A975"/>
<stop offset="0.88" stop-color="#AEC363"/>
<stop offset="1" stop-color="#BDCD5C"/>
</linearGradient>
<linearGradient id="paint24_linear_1_6213" x1="119.766" y1="-146.575" x2="417.153" y2="396.36" gradientUnits="userSpaceOnUse">
<stop stop-color="#0050B8"/>
<stop offset="0.33" stop-color="#498094"/>
<stop offset="0.65" stop-color="#87A975"/>
<stop offset="0.88" stop-color="#AEC363"/>
<stop offset="1" stop-color="#BDCD5C"/>
</linearGradient>
<linearGradient id="paint25_linear_1_6213" x1="140.144" y1="-157.74" x2="437.531" y2="385.195" gradientUnits="userSpaceOnUse">
<stop stop-color="#0050B8"/>
<stop offset="0.33" stop-color="#498094"/>
<stop offset="0.65" stop-color="#87A975"/>
<stop offset="0.88" stop-color="#AEC363"/>
<stop offset="1" stop-color="#BDCD5C"/>
</linearGradient>
<linearGradient id="paint26_linear_1_6213" x1="157.454" y1="-167.221" x2="454.842" y2="375.714" gradientUnits="userSpaceOnUse">
<stop stop-color="#0050B8"/>
<stop offset="0.33" stop-color="#498094"/>
<stop offset="0.65" stop-color="#87A975"/>
<stop offset="0.88" stop-color="#AEC363"/>
<stop offset="1" stop-color="#BDCD5C"/>
</linearGradient>
<linearGradient id="paint27_linear_1_6213" x1="171.169" y1="-174.741" x2="468.538" y2="368.214" gradientUnits="userSpaceOnUse">
<stop stop-color="#0050B8"/>
<stop offset="0.33" stop-color="#498094"/>
<stop offset="0.65" stop-color="#87A975"/>
<stop offset="0.88" stop-color="#AEC363"/>
<stop offset="1" stop-color="#BDCD5C"/>
</linearGradient>
<linearGradient id="paint28_linear_1_6213" x1="180.86" y1="-180.046" x2="478.248" y2="362.889" gradientUnits="userSpaceOnUse">
<stop stop-color="#0050B8"/>
<stop offset="0.33" stop-color="#498094"/>
<stop offset="0.65" stop-color="#87A975"/>
<stop offset="0.88" stop-color="#AEC363"/>
<stop offset="1" stop-color="#BDCD5C"/>
</linearGradient>
<linearGradient id="paint29_linear_1_6213" x1="186.272" y1="-183.013" x2="483.64" y2="359.942" gradientUnits="userSpaceOnUse">
<stop stop-color="#0050B8"/>
<stop offset="0.33" stop-color="#498094"/>
<stop offset="0.65" stop-color="#87A975"/>
<stop offset="0.88" stop-color="#AEC363"/>
<stop offset="1" stop-color="#BDCD5C"/>
</linearGradient>
<linearGradient id="paint30_linear_1_6213" x1="187.386" y1="-183.627" x2="484.773" y2="359.328" gradientUnits="userSpaceOnUse">
<stop stop-color="#0050B8"/>
<stop offset="0.33" stop-color="#498094"/>
<stop offset="0.65" stop-color="#87A975"/>
<stop offset="0.88" stop-color="#AEC363"/>
<stop offset="1" stop-color="#BDCD5C"/>
</linearGradient>
<linearGradient id="paint31_linear_1_6213" x1="185.022" y1="-182.32" x2="482.409" y2="360.616" gradientUnits="userSpaceOnUse">
<stop stop-color="#0050B8"/>
<stop offset="0.33" stop-color="#498094"/>
<stop offset="0.65" stop-color="#87A975"/>
<stop offset="0.88" stop-color="#AEC363"/>
<stop offset="1" stop-color="#BDCD5C"/>
</linearGradient>
<linearGradient id="paint32_linear_1_6213" x1="178.223" y1="-178.598" x2="475.61" y2="364.337" gradientUnits="userSpaceOnUse">
<stop stop-color="#0050B8"/>
<stop offset="0.33" stop-color="#498094"/>
<stop offset="0.65" stop-color="#87A975"/>
<stop offset="0.88" stop-color="#AEC363"/>
<stop offset="1" stop-color="#BDCD5C"/>
</linearGradient>
<linearGradient id="paint33_linear_1_6213" x1="167.203" y1="-172.564" x2="464.572" y2="370.392" gradientUnits="userSpaceOnUse">
<stop stop-color="#0050B8"/>
<stop offset="0.33" stop-color="#498094"/>
<stop offset="0.65" stop-color="#87A975"/>
<stop offset="0.88" stop-color="#AEC363"/>
<stop offset="1" stop-color="#BDCD5C"/>
</linearGradient>
<linearGradient id="paint34_linear_1_6213" x1="152.277" y1="-164.388" x2="449.664" y2="378.547" gradientUnits="userSpaceOnUse">
<stop stop-color="#0050B8"/>
<stop offset="0.33" stop-color="#498094"/>
<stop offset="0.65" stop-color="#87A975"/>
<stop offset="0.88" stop-color="#AEC363"/>
<stop offset="1" stop-color="#BDCD5C"/>
</linearGradient>
<linearGradient id="paint35_linear_1_6213" x1="133.931" y1="-154.335" x2="431.319" y2="388.6" gradientUnits="userSpaceOnUse">
<stop stop-color="#0050B8"/>
<stop offset="0.33" stop-color="#498094"/>
<stop offset="0.65" stop-color="#87A975"/>
<stop offset="0.88" stop-color="#AEC363"/>
<stop offset="1" stop-color="#BDCD5C"/>
</linearGradient>
<linearGradient id="paint36_linear_1_6213" x1="64.2592" y1="-116.176" x2="361.647" y2="426.76" gradientUnits="userSpaceOnUse">
<stop stop-color="#0050B8"/>
<stop offset="0.33" stop-color="#498094"/>
<stop offset="0.65" stop-color="#87A975"/>
<stop offset="0.88" stop-color="#AEC363"/>
<stop offset="1" stop-color="#BDCD5C"/>
</linearGradient>
<linearGradient id="paint37_linear_1_6213" x1="5.97842" y1="-84.2518" x2="303.366" y2="458.683" gradientUnits="userSpaceOnUse">
<stop stop-color="#0050B8"/>
<stop offset="0.33" stop-color="#498094"/>
<stop offset="0.65" stop-color="#87A975"/>
<stop offset="0.88" stop-color="#AEC363"/>
<stop offset="1" stop-color="#BDCD5C"/>
</linearGradient>
<linearGradient id="paint38_linear_1_6213" x1="-41.4199" y1="-58.3065" x2="255.968" y2="484.649" gradientUnits="userSpaceOnUse">
<stop stop-color="#0050B8"/>
<stop offset="0.33" stop-color="#498094"/>
<stop offset="0.65" stop-color="#87A975"/>
<stop offset="0.88" stop-color="#AEC363"/>
<stop offset="1" stop-color="#BDCD5C"/>
</linearGradient>
<linearGradient id="paint39_linear_1_6213" x1="-79.0886" y1="-37.665" x2="218.28" y2="505.29" gradientUnits="userSpaceOnUse">
<stop stop-color="#0050B8"/>
<stop offset="0.33" stop-color="#498094"/>
<stop offset="0.65" stop-color="#87A975"/>
<stop offset="0.88" stop-color="#AEC363"/>
<stop offset="1" stop-color="#BDCD5C"/>
</linearGradient>
<linearGradient id="paint40_linear_1_6213" x1="-102.514" y1="-24.8401" x2="194.873" y2="518.115" gradientUnits="userSpaceOnUse">
<stop stop-color="#0050B8"/>
<stop offset="0.33" stop-color="#498094"/>
<stop offset="0.65" stop-color="#87A975"/>
<stop offset="0.88" stop-color="#AEC363"/>
<stop offset="1" stop-color="#BDCD5C"/>
</linearGradient>
<linearGradient id="paint41_linear_1_6213" x1="-109.02" y1="-21.2547" x2="188.348" y2="521.681" gradientUnits="userSpaceOnUse">
<stop stop-color="#0050B8"/>
<stop offset="0.33" stop-color="#498094"/>
<stop offset="0.65" stop-color="#87A975"/>
<stop offset="0.88" stop-color="#AEC363"/>
<stop offset="1" stop-color="#BDCD5C"/>
</linearGradient>
<linearGradient id="paint42_linear_1_6213" x1="-99.8571" y1="-26.2828" x2="197.511" y2="516.653" gradientUnits="userSpaceOnUse">
<stop stop-color="#0050B8"/>
<stop offset="0.33" stop-color="#498094"/>
<stop offset="0.65" stop-color="#87A975"/>
<stop offset="0.88" stop-color="#AEC363"/>
<stop offset="1" stop-color="#BDCD5C"/>
</linearGradient>
<linearGradient id="paint43_linear_1_6213" x1="-73.9309" y1="-40.4926" x2="223.457" y2="502.463" gradientUnits="userSpaceOnUse">
<stop stop-color="#0050B8"/>
<stop offset="0.33" stop-color="#498094"/>
<stop offset="0.65" stop-color="#87A975"/>
<stop offset="0.88" stop-color="#AEC363"/>
<stop offset="1" stop-color="#BDCD5C"/>
</linearGradient>
<linearGradient id="paint44_linear_1_6213" x1="-34.3468" y1="-62.1659" x2="263.041" y2="480.769" gradientUnits="userSpaceOnUse">
<stop stop-color="#0050B8"/>
<stop offset="0.33" stop-color="#498094"/>
<stop offset="0.65" stop-color="#87A975"/>
<stop offset="0.88" stop-color="#AEC363"/>
<stop offset="1" stop-color="#BDCD5C"/>
</linearGradient>
<linearGradient id="paint45_linear_1_6213" x1="14.1062" y1="-88.7049" x2="311.474" y2="454.23" gradientUnits="userSpaceOnUse">
<stop stop-color="#0050B8"/>
<stop offset="0.33" stop-color="#498094"/>
<stop offset="0.65" stop-color="#87A975"/>
<stop offset="0.88" stop-color="#AEC363"/>
<stop offset="1" stop-color="#BDCD5C"/>
</linearGradient>
<linearGradient id="paint46_linear_1_6213" x1="72.3675" y1="-120.629" x2="369.755" y2="422.326" gradientUnits="userSpaceOnUse">
<stop stop-color="#0050B8"/>
<stop offset="0.33" stop-color="#498094"/>
<stop offset="0.65" stop-color="#87A975"/>
<stop offset="0.88" stop-color="#AEC363"/>
<stop offset="1" stop-color="#BDCD5C"/>
</linearGradient>
<linearGradient id="paint47_linear_1_6213" x1="119.766" y1="-146.575" x2="417.153" y2="396.36" gradientUnits="userSpaceOnUse">
<stop stop-color="#0050B8"/>
<stop offset="0.33" stop-color="#498094"/>
<stop offset="0.65" stop-color="#87A975"/>
<stop offset="0.88" stop-color="#AEC363"/>
<stop offset="1" stop-color="#BDCD5C"/>
</linearGradient>
<linearGradient id="paint48_linear_1_6213" x1="157.454" y1="-167.221" x2="454.842" y2="375.714" gradientUnits="userSpaceOnUse">
<stop stop-color="#0050B8"/>
<stop offset="0.33" stop-color="#498094"/>
<stop offset="0.65" stop-color="#87A975"/>
<stop offset="0.88" stop-color="#AEC363"/>
<stop offset="1" stop-color="#BDCD5C"/>
</linearGradient>
<linearGradient id="paint49_linear_1_6213" x1="180.86" y1="-180.046" x2="478.248" y2="362.889" gradientUnits="userSpaceOnUse">
<stop stop-color="#0050B8"/>
<stop offset="0.33" stop-color="#498094"/>
<stop offset="0.65" stop-color="#87A975"/>
<stop offset="0.88" stop-color="#AEC363"/>
<stop offset="1" stop-color="#BDCD5C"/>
</linearGradient>
<linearGradient id="paint50_linear_1_6213" x1="187.386" y1="-183.627" x2="484.773" y2="359.328" gradientUnits="userSpaceOnUse">
<stop stop-color="#0050B8"/>
<stop offset="0.33" stop-color="#498094"/>
<stop offset="0.65" stop-color="#87A975"/>
<stop offset="0.88" stop-color="#AEC363"/>
<stop offset="1" stop-color="#BDCD5C"/>
</linearGradient>
<linearGradient id="paint51_linear_1_6213" x1="178.223" y1="-178.598" x2="475.61" y2="364.337" gradientUnits="userSpaceOnUse">
<stop stop-color="#0050B8"/>
<stop offset="0.33" stop-color="#498094"/>
<stop offset="0.65" stop-color="#87A975"/>
<stop offset="0.88" stop-color="#AEC363"/>
<stop offset="1" stop-color="#BDCD5C"/>
</linearGradient>
<linearGradient id="paint52_linear_1_6213" x1="152.277" y1="-164.388" x2="449.664" y2="378.547" gradientUnits="userSpaceOnUse">
<stop stop-color="#0050B8"/>
<stop offset="0.33" stop-color="#498094"/>
<stop offset="0.65" stop-color="#87A975"/>
<stop offset="0.88" stop-color="#AEC363"/>
<stop offset="1" stop-color="#BDCD5C"/>
</linearGradient>
<linearGradient id="paint53_linear_1_6213" x1="286.996" y1="324.632" x2="229.058" y2="65.3873" gradientUnits="userSpaceOnUse">
<stop stop-color="#0050B8"/>
<stop offset="0.52" stop-color="#639287"/>
<stop offset="1" stop-color="#BDCD5C"/>
</linearGradient>
<linearGradient id="paint54_linear_1_6213" x1="268.622" y1="328.728" x2="210.659" y2="69.4977" gradientUnits="userSpaceOnUse">
<stop stop-color="#0050B8"/>
<stop offset="0.52" stop-color="#639287"/>
<stop offset="1" stop-color="#BDCD5C"/>
</linearGradient>
<linearGradient id="paint55_linear_1_6213" x1="227.151" y1="338.009" x2="169.193" y2="78.7594" gradientUnits="userSpaceOnUse">
<stop stop-color="#0050B8"/>
<stop offset="0.52" stop-color="#639287"/>
<stop offset="1" stop-color="#BDCD5C"/>
</linearGradient>
<linearGradient id="paint56_linear_1_6213" x1="187.427" y1="346.887" x2="129.469" y2="87.6375" gradientUnits="userSpaceOnUse">
<stop stop-color="#0050B8"/>
<stop offset="0.52" stop-color="#639287"/>
<stop offset="1" stop-color="#BDCD5C"/>
</linearGradient>
<linearGradient id="paint57_linear_1_6213" x1="154.027" y1="354.358" x2="96.0694" y2="95.1088" gradientUnits="userSpaceOnUse">
<stop stop-color="#0050B8"/>
<stop offset="0.52" stop-color="#639287"/>
<stop offset="1" stop-color="#BDCD5C"/>
</linearGradient>
<linearGradient id="paint58_linear_1_6213" x1="130.123" y1="359.689" x2="72.1787" y2="100.464" gradientUnits="userSpaceOnUse">
<stop stop-color="#0050B8"/>
<stop offset="0.52" stop-color="#639287"/>
<stop offset="1" stop-color="#BDCD5C"/>
</linearGradient>
<linearGradient id="paint59_linear_1_6213" x1="118.563" y1="362.286" x2="60.6044" y2="103.037" gradientUnits="userSpaceOnUse">
<stop stop-color="#0050B8"/>
<stop offset="0.52" stop-color="#639287"/>
<stop offset="1" stop-color="#BDCD5C"/>
</linearGradient>
<linearGradient id="paint60_linear_1_6213" x1="120.157" y1="361.923" x2="62.1989" y2="102.673" gradientUnits="userSpaceOnUse">
<stop stop-color="#0050B8"/>
<stop offset="0.52" stop-color="#639287"/>
<stop offset="1" stop-color="#BDCD5C"/>
</linearGradient>
<linearGradient id="paint61_linear_1_6213" x1="134.92" y1="358.623" x2="76.9564" y2="99.3929" gradientUnits="userSpaceOnUse">
<stop stop-color="#0050B8"/>
<stop offset="0.52" stop-color="#639287"/>
<stop offset="1" stop-color="#BDCD5C"/>
</linearGradient>
<linearGradient id="paint62_linear_1_6213" x1="161.452" y1="352.696" x2="103.513" y2="93.4516" gradientUnits="userSpaceOnUse">
<stop stop-color="#0050B8"/>
<stop offset="0.52" stop-color="#639287"/>
<stop offset="1" stop-color="#BDCD5C"/>
</linearGradient>
<linearGradient id="paint63_linear_1_6213" x1="196.593" y1="344.843" x2="138.635" y2="85.5939" gradientUnits="userSpaceOnUse">
<stop stop-color="#0050B8"/>
<stop offset="0.52" stop-color="#639287"/>
<stop offset="1" stop-color="#BDCD5C"/>
</linearGradient>
<linearGradient id="paint64_linear_1_6213" x1="238.064" y1="335.562" x2="180.106" y2="76.3127" gradientUnits="userSpaceOnUse">
<stop stop-color="#0050B8"/>
<stop offset="0.52" stop-color="#639287"/>
<stop offset="1" stop-color="#BDCD5C"/>
</linearGradient>
<linearGradient id="paint65_linear_1_6213" x1="277.788" y1="326.685" x2="219.83" y2="67.4352" gradientUnits="userSpaceOnUse">
<stop stop-color="#0050B8"/>
<stop offset="0.52" stop-color="#639287"/>
<stop offset="1" stop-color="#BDCD5C"/>
</linearGradient>
<linearGradient id="paint66_linear_1_6213" x1="311.187" y1="319.214" x2="253.224" y2="59.9837" gradientUnits="userSpaceOnUse">
<stop stop-color="#0050B8"/>
<stop offset="0.52" stop-color="#639287"/>
<stop offset="1" stop-color="#BDCD5C"/>
</linearGradient>
<linearGradient id="paint67_linear_1_6213" x1="335.092" y1="313.886" x2="277.134" y2="54.636" gradientUnits="userSpaceOnUse">
<stop stop-color="#0050B8"/>
<stop offset="0.52" stop-color="#639287"/>
<stop offset="1" stop-color="#BDCD5C"/>
</linearGradient>
<linearGradient id="paint68_linear_1_6213" x1="346.652" y1="311.287" x2="288.708" y2="52.0618" gradientUnits="userSpaceOnUse">
<stop stop-color="#0050B8"/>
<stop offset="0.52" stop-color="#639287"/>
<stop offset="1" stop-color="#BDCD5C"/>
</linearGradient>
<linearGradient id="paint69_linear_1_6213" x1="345.058" y1="311.65" x2="287.099" y2="52.4009" gradientUnits="userSpaceOnUse">
<stop stop-color="#0050B8"/>
<stop offset="0.52" stop-color="#639287"/>
<stop offset="1" stop-color="#BDCD5C"/>
</linearGradient>
<linearGradient id="paint70_linear_1_6213" x1="330.295" y1="314.949" x2="272.356" y2="55.7041" gradientUnits="userSpaceOnUse">
<stop stop-color="#0050B8"/>
<stop offset="0.52" stop-color="#639287"/>
<stop offset="1" stop-color="#BDCD5C"/>
</linearGradient>
<linearGradient id="paint71_linear_1_6213" x1="303.758" y1="320.893" x2="245.8" y2="61.6434" gradientUnits="userSpaceOnUse">
<stop stop-color="#0050B8"/>
<stop offset="0.52" stop-color="#639287"/>
<stop offset="1" stop-color="#BDCD5C"/>
</linearGradient>
<linearGradient id="paint72_linear_1_6213" x1="249.142" y1="333.098" x2="191.184" y2="73.8484" gradientUnits="userSpaceOnUse">
<stop stop-color="#0050B8"/>
<stop offset="0.52" stop-color="#639287"/>
<stop offset="1" stop-color="#BDCD5C"/>
</linearGradient>
<linearGradient id="paint73_linear_1_6213" x1="206.449" y1="342.638" x2="148.491" y2="83.3884" gradientUnits="userSpaceOnUse">
<stop stop-color="#0050B8"/>
<stop offset="0.52" stop-color="#639287"/>
<stop offset="1" stop-color="#BDCD5C"/>
</linearGradient>
<linearGradient id="paint74_linear_1_6213" x1="169.78" y1="350.833" x2="111.822" y2="91.5836" gradientUnits="userSpaceOnUse">
<stop stop-color="#0050B8"/>
<stop offset="0.52" stop-color="#639287"/>
<stop offset="1" stop-color="#BDCD5C"/>
</linearGradient>
<linearGradient id="paint75_linear_1_6213" x1="140.688" y1="357.33" x2="82.7243" y2="98.0997" gradientUnits="userSpaceOnUse">
<stop stop-color="#0050B8"/>
<stop offset="0.52" stop-color="#639287"/>
<stop offset="1" stop-color="#BDCD5C"/>
</linearGradient>
<linearGradient id="paint76_linear_1_6213" x1="122.675" y1="361.363" x2="64.7166" y2="102.113" gradientUnits="userSpaceOnUse">
<stop stop-color="#0050B8"/>
<stop offset="0.52" stop-color="#639287"/>
<stop offset="1" stop-color="#BDCD5C"/>
</linearGradient>
<linearGradient id="paint77_linear_1_6213" x1="117.811" y1="362.449" x2="59.8476" y2="103.218" gradientUnits="userSpaceOnUse">
<stop stop-color="#0050B8"/>
<stop offset="0.52" stop-color="#639287"/>
<stop offset="1" stop-color="#BDCD5C"/>
</linearGradient>
<linearGradient id="paint78_linear_1_6213" x1="125.925" y1="360.63" x2="67.9618" y2="101.399" gradientUnits="userSpaceOnUse">
<stop stop-color="#0050B8"/>
<stop offset="0.52" stop-color="#639287"/>
<stop offset="1" stop-color="#BDCD5C"/>
</linearGradient>
<linearGradient id="paint79_linear_1_6213" x1="146.884" y1="355.95" x2="88.9261" y2="96.7006" gradientUnits="userSpaceOnUse">
<stop stop-color="#0050B8"/>
<stop offset="0.52" stop-color="#639287"/>
<stop offset="1" stop-color="#BDCD5C"/>
</linearGradient>
<linearGradient id="paint80_linear_1_6213" x1="178.213" y1="348.957" x2="120.255" y2="89.7078" gradientUnits="userSpaceOnUse">
<stop stop-color="#0050B8"/>
<stop offset="0.52" stop-color="#639287"/>
<stop offset="1" stop-color="#BDCD5C"/>
</linearGradient>
<linearGradient id="paint81_linear_1_6213" x1="216.072" y1="340.473" x2="158.128" y2="81.2481" gradientUnits="userSpaceOnUse">
<stop stop-color="#0050B8"/>
<stop offset="0.52" stop-color="#639287"/>
<stop offset="1" stop-color="#BDCD5C"/>
</linearGradient>
<linearGradient id="paint82_linear_1_6213" x1="258.766" y1="330.932" x2="200.803" y2="71.7013" gradientUnits="userSpaceOnUse">
<stop stop-color="#0050B8"/>
<stop offset="0.52" stop-color="#639287"/>
<stop offset="1" stop-color="#BDCD5C"/>
</linearGradient>
<linearGradient id="paint83_linear_1_6213" x1="295.434" y1="322.737" x2="237.496" y2="63.492" gradientUnits="userSpaceOnUse">
<stop stop-color="#0050B8"/>
<stop offset="0.52" stop-color="#639287"/>
<stop offset="1" stop-color="#BDCD5C"/>
</linearGradient>
<linearGradient id="paint84_linear_1_6213" x1="324.527" y1="316.241" x2="266.588" y2="56.9964" gradientUnits="userSpaceOnUse">
<stop stop-color="#0050B8"/>
<stop offset="0.52" stop-color="#639287"/>
<stop offset="1" stop-color="#BDCD5C"/>
</linearGradient>
<linearGradient id="paint85_linear_1_6213" x1="342.54" y1="312.211" x2="284.601" y2="52.9669" gradientUnits="userSpaceOnUse">
<stop stop-color="#0050B8"/>
<stop offset="0.52" stop-color="#639287"/>
<stop offset="1" stop-color="#BDCD5C"/>
</linearGradient>
<linearGradient id="paint86_linear_1_6213" x1="347.404" y1="311.12" x2="289.465" y2="51.876" gradientUnits="userSpaceOnUse">
<stop stop-color="#0050B8"/>
<stop offset="0.52" stop-color="#639287"/>
<stop offset="1" stop-color="#BDCD5C"/>
</linearGradient>
<linearGradient id="paint87_linear_1_6213" x1="339.289" y1="312.941" x2="281.351" y2="53.6966" gradientUnits="userSpaceOnUse">
<stop stop-color="#0050B8"/>
<stop offset="0.52" stop-color="#639287"/>
<stop offset="1" stop-color="#BDCD5C"/>
</linearGradient>
<linearGradient id="paint88_linear_1_6213" x1="318.331" y1="317.622" x2="260.392" y2="58.3771" gradientUnits="userSpaceOnUse">
<stop stop-color="#0050B8"/>
<stop offset="0.52" stop-color="#639287"/>
<stop offset="1" stop-color="#BDCD5C"/>
</linearGradient>
<clipPath id="clip0_1_6213">
<rect width="408.689" height="413.999" fill="white"/>
</clipPath>
</defs>
</svg>
