<svg width="36" height="36" viewBox="0 0 36 36" fill="none" xmlns="http://www.w3.org/2000/svg">
<path d="M18 33C26.2843 33 33 26.2843 33 18C33 9.71573 26.2843 3 18 3C9.71573 3 3 9.71573 3 18C3 26.2843 9.71573 33 18 33Z" fill="#BDCD5C"/>
<path d="M16.11 24.42C15.825 24.42 15.54 24.315 15.315 24.09C14.88 23.655 14.88 22.935 15.315 22.5L19.815 18L15.315 13.5C14.88 13.065 14.88 12.345 15.315 11.91C15.75 11.475 16.47 11.475 16.905 11.91L22.2 17.205C22.635 17.64 22.635 18.36 22.2 18.795L16.905 24.09C16.68 24.315 16.395 24.42 16.11 24.42Z" fill="#2A3886"/>
</svg>
