<svg width="336" height="400" viewBox="0 0 336 400" fill="none" xmlns="http://www.w3.org/2000/svg">
<g clip-path="url(#clip0_1_6644)">
<g opacity="0.03">
<mask id="mask0_1_6644" style="mask-type:luminance" maskUnits="userSpaceOnUse" x="0" y="0" width="336" height="400">
<path d="M-1.74846e-05 0L0 400L336 400L336 -1.4687e-05L-1.74846e-05 0Z" fill="white"/>
</mask>
<g mask="url(#mask0_1_6644)">
<path d="M767.051 437.441C767.051 439.215 767.036 440.989 766.991 442.747L955.861 446.181C955.92 443.268 955.943 440.362 955.943 437.434L955.943 437.298L767.051 437.298L767.051 437.434L767.051 437.441ZM766.588 421.026C766.7 422.838 766.782 424.649 766.857 426.468L955.599 419.336C955.487 416.339 955.36 413.343 955.189 410.407L766.588 421.026ZM766.267 459.019L954.651 472.989C954.868 470.015 955.062 467.019 955.218 464.068L766.603 453.6C766.521 455.411 766.394 457.223 766.267 459.019ZM765.252 404.822C765.461 406.619 765.64 408.415 765.797 410.226L953.889 392.506C953.613 389.524 953.307 386.521 952.978 383.585L765.252 404.822ZM764.647 475.207L951.963 499.796C952.336 496.823 952.702 493.826 953.031 490.875L765.274 469.826C765.08 471.622 764.878 473.419 764.647 475.207ZM763.012 388.724C763.318 390.498 763.601 392.287 763.855 394.068L950.664 365.766C950.231 362.792 949.753 359.796 949.26 356.875L763.004 388.724L763.012 388.724ZM762.115 491.253L947.774 526.453C948.334 523.479 948.849 520.498 949.335 517.562L763.056 485.917C762.765 487.706 762.451 489.479 762.115 491.253ZM759.89 372.777C760.286 374.551 760.674 376.324 761.025 378.113L945.945 339.109C945.355 336.211 944.72 333.321 944.078 330.438L759.883 372.785L759.89 372.777ZM758.711 507.102L942.092 552.913C942.794 550.015 943.496 547.041 944.16 544.09L759.928 501.856C759.539 503.615 759.129 505.366 758.703 507.102L758.711 507.102ZM755.881 357.072C756.374 358.8 756.851 360.536 757.307 362.279L939.785 312.913C939.023 310.015 938.224 307.102 937.403 304.226L755.881 357.072ZM754.402 522.785L934.991 578.853C935.85 576 936.701 573.124 937.507 570.287L755.941 517.57C755.455 519.321 754.947 521.056 754.402 522.777L754.402 522.785ZM750.99 341.585C751.58 343.283 752.162 344.996 752.722 346.724L932.139 286.981C931.206 284.121 930.25 281.253 929.287 278.468L750.998 341.585L750.99 341.585ZM749.235 538.211L926.375 604.558C927.405 601.743 928.421 598.898 929.391 596.083L751.065 533.102C750.475 534.815 749.87 536.513 749.235 538.211ZM745.271 326.453C745.958 328.105 746.615 329.758 747.264 331.434L923.074 261.592C921.984 258.777 920.857 255.962 919.737 253.222L745.271 326.453ZM743.21 553.313L916.347 629.698C917.542 626.936 918.721 624.136 919.841 621.366L745.315 548.302C744.636 549.977 743.934 551.638 743.21 553.306L743.21 553.313ZM738.722 311.66C739.484 313.275 740.246 314.89 740.97 316.528L912.651 236.838C911.404 234.121 910.12 231.373 908.828 228.656L738.715 311.66L738.722 311.66ZM736.363 568.045L904.923 654.234C906.267 651.555 907.611 648.8 908.903 646.075L738.73 563.192C737.953 564.823 737.169 566.445 736.355 568.045L736.363 568.045ZM731.338 297.253C732.197 298.83 733.048 300.407 733.892 302L900.831 212.656C899.465 210.038 898.039 207.381 896.598 204.77L731.338 297.253ZM728.702 582.355L892.192 677.992C893.656 675.426 895.142 672.785 896.583 670.143L731.338 577.63C730.479 579.207 729.598 580.785 728.702 582.355ZM723.169 283.283C724.125 284.815 725.058 286.34 725.992 287.894L887.69 189.207C886.174 186.664 884.614 184.098 883.053 181.585L723.169 283.283ZM720.242 596.204L878.118 701.056C879.738 698.558 881.388 695.97 883.008 693.373L723.147 591.668C722.191 593.2 721.221 594.702 720.242 596.204ZM714.239 269.781C715.277 271.26 716.3 272.739 717.301 274.234L873.287 166.558C871.629 164.09 869.934 161.63 868.239 159.23L714.239 269.781ZM711.036 609.57L862.93 723.079C864.67 720.694 866.417 718.256 868.135 715.826L714.194 605.177C713.157 606.641 712.104 608.113 711.036 609.57ZM704.585 256.815C705.697 258.219 706.788 259.638 707.863 261.072L857.704 144.792C855.889 142.407 854.038 140.022 852.208 137.698L704.585 256.815ZM701.098 622.392L846.496 744.287C848.408 741.962 850.297 739.615 852.111 737.306L704.488 618.204C703.375 619.607 702.248 621.019 701.098 622.4L701.098 622.392ZM694.191 244.385C695.386 245.728 696.573 247.087 697.738 248.46L840.874 123.879C838.962 121.63 837.029 119.389 835.065 117.177L694.191 244.392L694.191 244.385ZM690.458 634.634L828.935 764.498C830.943 762.324 832.914 760.121 834.878 757.902L694.087 630.604C692.899 631.962 691.69 633.306 690.458 634.626L690.458 634.634ZM683.141 232.558C684.402 233.834 685.642 235.117 686.889 236.423L823.006 104.038C820.96 101.887 818.855 99.7206 816.764 97.5999L683.141 232.551L683.141 232.558ZM679.198 646.241L810.29 783.706C812.411 781.653 814.502 779.57 816.585 777.464L683.044 642.423C681.774 643.706 680.49 644.981 679.198 646.241ZM671.448 221.381C672.777 222.581 674.113 223.804 675.42 225.041L803.959 85.1319C801.808 83.1017 799.635 81.1093 797.448 79.1244L671.448 221.381ZM667.311 657.192L790.601 801.849C792.826 799.902 795.081 797.909 797.269 795.932L671.343 653.615C670.014 654.823 668.67 656.022 667.311 657.2L667.311 657.192ZM659.143 210.845C660.546 211.985 661.935 213.117 663.317 214.294L783.955 67.3659C781.693 65.4716 779.408 63.5848 777.109 61.7282L659.143 210.845ZM654.849 667.441L769.896 818.875C772.24 817.064 774.615 815.185 776.952 813.298L659.046 664.121C657.657 665.245 656.261 666.362 654.849 667.449L654.849 667.441ZM646.3 201.064C647.749 202.106 649.205 203.17 650.646 204.256L762.982 50.747C760.6 48.9584 758.181 47.1848 755.791 45.4716L646.3 201.064ZM641.835 676.966L748.339 834.664C750.759 833.004 753.23 831.26 755.664 829.517L646.218 673.894C644.769 674.943 643.298 675.977 641.835 676.973L641.835 676.966ZM632.905 191.985C634.428 192.951 635.929 193.932 637.43 194.936L741.089 35.3207C738.633 33.683 736.131 32.0527 733.638 30.4678L632.905 191.992L632.905 191.985ZM628.305 685.766L726.007 849.185C728.523 847.645 731.062 846.068 733.548 844.49L632.875 682.928C631.359 683.894 629.851 684.838 628.313 685.766L628.305 685.766ZM619.054 183.705C620.615 184.573 622.175 185.464 623.728 186.385L718.413 21.1546C715.845 19.6603 713.231 18.1584 710.64 16.7169L619.054 183.705ZM614.358 693.766L702.793 862.483C705.391 861.087 708.019 859.645 710.625 858.189L619.039 691.185C617.494 692.068 615.926 692.921 614.358 693.766ZM604.748 176.211C606.368 177.004 607.981 177.811 609.579 178.634L694.848 8.25644C692.212 6.91306 689.532 5.56216 686.889 4.27914L604.755 176.211L604.748 176.211ZM599.969 700.943L678.967 874.392C681.617 873.155 684.305 871.872 686.941 870.589L604.823 698.641C603.21 699.426 601.605 700.196 599.969 700.943ZM590.046 169.562C591.704 170.249 593.346 170.958 594.982 171.675L670.679 -3.26797C667.968 -4.46799 665.198 -5.66806 662.435 -6.81521L590.046 169.555L590.046 169.562ZM585.23 707.306L654.454 884.958C657.224 883.856 659.994 882.717 662.697 881.585L590.173 705.275C588.538 705.97 586.895 706.649 585.238 707.306L585.23 707.306ZM574.986 163.743C576.681 164.34 578.361 164.951 580.041 165.592L645.8 -13.4115C643.007 -14.453 640.17 -15.4944 637.377 -16.4831L574.986 163.743ZM570.125 712.823L629.276 894.151C632.083 893.223 634.913 892.241 637.698 891.268L575.21 711.079C573.53 711.675 571.835 712.256 570.125 712.83L570.125 712.823ZM559.657 158.815C561.374 159.306 563.084 159.819 564.786 160.355L620.406 -22.1209C617.583 -23.0039 614.694 -23.8718 611.826 -24.702L559.657 158.815ZM554.721 717.472L603.718 901.879C606.562 901.094 609.43 900.287 612.237 899.479L559.896 716.015C558.178 716.513 556.446 717.004 554.714 717.472L554.721 717.472ZM544.096 154.762C545.836 155.155 547.583 155.57 549.315 156.007L594.638 -29.351C591.748 -30.0756 588.829 -30.7699 585.939 -31.4341L544.104 154.762L544.096 154.762ZM539.094 721.223L577.637 908.151C580.526 907.54 583.461 906.89 586.335 906.234L544.328 720.075C542.588 720.475 540.841 720.86 539.086 721.223L539.094 721.223ZM528.327 151.607C530.096 151.902 531.851 152.219 533.606 152.558L568.497 -35.0944C565.578 -35.6605 562.643 -36.1812 559.746 -36.6718L528.334 151.6L528.327 151.607ZM523.272 724.098L551.369 912.913C554.311 912.46 557.26 911.985 560.142 911.494L528.573 723.245C526.804 723.555 525.049 723.834 523.272 724.098ZM512.4 149.358C514.177 149.555 515.954 149.773 517.724 150.007L542.155 -39.3208C539.213 -39.7133 536.226 -40.0756 533.285 -40.4077L512.4 149.358ZM507.308 726.053L524.877 916.158C527.819 915.879 530.798 915.57 533.725 915.238L512.654 725.494C510.877 725.706 509.1 725.887 507.308 726.045L507.308 726.053ZM496.369 148C498.161 148.098 499.938 148.219 501.715 148.355L515.611 -42.0604C512.662 -42.2793 509.682 -42.4755 506.778 -42.6341L496.369 148ZM491.225 727.132L498.385 917.924C501.327 917.804 504.254 917.668 507.174 917.494L496.608 726.875C494.816 726.973 493.024 727.056 491.225 727.132ZM479.763 147.547L480.249 147.547C482.041 147.547 483.833 147.562 485.625 147.607L489.112 -43.2982C486.185 -43.3435 483.206 -43.3812 480.256 -43.3812L479.218 -43.3812L479.778 147.547L479.763 147.547ZM471.811 918.196C474.619 918.241 477.426 918.272 480.249 918.272L480.503 918.272L480.525 765.373L480.525 727.343L480.249 727.343C478.531 727.343 476.822 727.328 475.119 727.29L471.819 918.196L471.811 918.196ZM452.913 -42.5963L463.65 148.038C465.442 147.924 467.234 147.841 469.034 147.766L461.702 -43.0114C458.775 -42.8982 455.848 -42.7548 452.913 -42.5963ZM445.26 916.973C448.209 917.192 451.189 917.389 454.13 917.547L464.382 726.898C462.59 726.8 460.813 726.687 459.036 726.558L445.267 916.973L445.26 916.973ZM426.369 -40.3095L447.604 149.404C449.374 149.192 451.159 149.011 452.943 148.838L435.187 -41.2454C432.26 -40.9661 429.281 -40.6568 426.362 -40.3171L426.369 -40.3095ZM418.746 914.264C421.665 914.641 424.63 914.996 427.564 915.328L448.344 725.547C446.552 725.366 444.775 725.147 443.005 724.913L418.738 914.264L418.746 914.264ZM399.952 -36.5284L431.686 151.698C433.44 151.389 435.21 151.102 436.987 150.83L408.718 -37.9549C405.799 -37.502 402.849 -37.0265 399.96 -36.5208L399.952 -36.5284ZM392.381 910.045C395.286 910.596 398.25 911.132 401.169 911.623L432.417 723.328C430.648 723.019 428.893 722.702 427.138 722.377L392.381 910.053L392.381 910.045ZM373.744 -31.2454L415.916 154.875C417.656 154.475 419.403 154.083 421.157 153.728L382.458 -33.1774C379.568 -32.5661 376.634 -31.9171 373.744 -31.2454ZM366.278 904.332C369.16 905.056 372.087 905.751 374.969 906.415L416.648 720.173C414.908 719.781 413.161 719.366 411.429 718.936L366.278 904.332ZM347.857 -24.468L400.378 158.951C402.095 158.438 403.812 157.962 405.545 157.487L356.421 -26.8831C353.554 -26.0982 350.672 -25.2907 347.857 -24.4605L347.857 -24.468ZM340.51 897.14C343.332 898.007 346.2 898.875 349.015 899.698L401.072 716.143C399.355 715.653 397.638 715.14 395.928 714.589L340.503 897.14L340.51 897.14ZM322.411 -16.2265L385.071 163.887C386.751 163.29 388.446 162.709 390.141 162.151L330.811 -19.1246C328.003 -18.1963 325.181 -17.2152 322.411 -16.2265ZM315.049 888.43C317.841 889.479 320.686 890.513 323.523 891.509L385.728 711.207C384.033 710.619 382.353 710.007 380.681 709.373L315.056 888.423L315.049 888.43ZM297.48 -6.55855L370.086 169.713C371.721 169.019 373.378 168.339 375.036 167.683L305.656 -9.9095C302.923 -8.82271 300.175 -7.69813 297.472 -6.55855L297.48 -6.55855ZM290.155 878.294C292.888 879.502 295.673 880.702 298.458 881.864L370.668 705.419C369.01 704.732 367.368 704.023 365.732 703.306L290.162 878.294L290.155 878.294ZM273.168 4.49797L355.473 176.355C357.086 175.57 358.691 174.8 360.312 174.045L281.18 0.671619C278.492 1.91692 275.804 3.19988 273.168 4.49797ZM266.015 866.823C268.651 868.166 271.324 869.502 273.967 870.785L355.966 698.792C354.346 698 352.733 697.192 351.135 696.355L266.015 866.815L266.015 866.823ZM249.521 16.8981L341.227 183.826C342.787 182.943 344.363 182.09 345.931 181.245L257.309 12.6188C254.711 14.015 252.09 15.4565 249.514 16.8981L249.521 16.8981ZM242.458 853.94C245.026 855.441 247.64 856.936 250.231 858.377L341.667 691.306C340.107 690.438 338.546 689.547 336.993 688.641L242.458 853.94ZM226.599 30.6263L327.414 192.098C328.929 191.132 330.437 190.181 331.976 189.245L234.132 25.9093C231.624 27.449 229.085 29.0263 226.591 30.6188L226.599 30.6263ZM219.714 839.773C222.193 841.426 224.724 843.064 227.218 844.656L327.779 683.026C326.264 682.06 324.755 681.079 323.262 680.09L219.714 839.773ZM204.505 45.6075L314.071 201.147C315.534 200.098 316.998 199.057 318.476 198.038L211.777 40.4754C209.343 42.1509 206.902 43.8792 204.505 45.6L204.505 45.6075ZM197.815 824.377C200.189 826.136 202.608 827.909 205.012 829.638L314.399 673.985C312.943 672.936 311.495 671.872 310.054 670.792L197.815 824.377ZM183.255 61.8414L301.243 210.936C302.632 209.811 304.05 208.694 305.469 207.6L190.228 56.3169C187.891 58.1282 185.547 59.9848 183.255 61.8489L183.255 61.8414ZM176.818 807.751C179.096 809.66 181.418 811.57 183.718 813.426L301.534 664.189C300.13 663.064 298.749 661.917 297.368 660.762L176.811 807.751L176.818 807.751ZM162.945 79.2075L288.968 221.441C290.297 220.234 291.641 219.034 293 217.856L169.591 73.3132C167.373 75.2452 165.14 77.2301 162.945 79.2075ZM156.8 790.015C158.951 792.03 161.153 794.053 163.348 796.03L289.236 653.675C287.892 652.475 286.563 651.253 285.257 650.015L156.8 790.007L156.8 790.015ZM143.614 97.7282L277.297 232.634C278.559 231.336 279.836 230.068 281.135 228.815L149.916 91.4489C147.795 93.5168 145.682 95.6301 143.614 97.7206L143.614 97.7282ZM137.835 771.215C139.866 773.343 141.934 775.472 144.01 777.562L277.521 642.498C276.252 641.223 274.99 639.932 273.758 638.619L137.835 771.215ZM125.351 117.283L266.232 244.46C267.426 243.102 268.643 241.758 269.86 240.438L131.301 110.657C129.308 112.83 127.307 115.057 125.351 117.283ZM119.87 751.29C121.781 753.54 123.745 755.789 125.701 758.015L266.478 630.694C265.283 629.351 264.096 627.977 262.931 626.611L119.87 751.29ZM108.155 137.872L255.853 256.898C256.965 255.479 258.1 254.075 259.243 252.679L113.762 130.898C111.888 133.2 109.999 135.532 108.162 137.872L108.155 137.872ZM103.055 730.438C104.847 732.8 106.684 735.17 108.513 737.487L256.07 618.287C254.972 616.883 253.852 615.449 252.777 614.015L103.055 730.438ZM92.1164 159.404L246.169 269.909C247.199 268.43 248.252 266.958 249.312 265.509L97.3058 152.166C95.566 154.551 93.8188 156.989 92.1164 159.404ZM87.4124 708.649C89.07 711.094 90.7799 713.57 92.4823 715.985L246.385 605.298C245.355 603.834 244.324 602.347 243.339 600.86L87.4124 708.649ZM77.2801 181.857L237.224 283.434C238.179 281.902 239.135 280.377 240.128 278.868L82.0962 174.264C80.4759 176.77 78.8556 179.328 77.2801 181.857ZM73.0092 686.045C74.5474 688.604 76.1079 691.17 77.6834 693.668L237.448 591.811C236.507 590.294 235.559 588.755 234.64 587.215L73.0167 686.045L73.0092 686.045ZM63.7057 205.109L229.048 297.456C229.906 295.879 230.78 294.302 231.676 292.732L68.1036 197.253C66.6252 199.834 65.1543 202.475 63.7132 205.102L63.7057 205.109ZM59.8679 662.619C61.2492 665.245 62.6754 667.894 64.094 670.483L229.279 577.849C228.406 576.272 227.562 574.679 226.726 573.094L59.8679 662.619ZM51.4231 229.162L221.641 311.932C222.425 310.302 223.216 308.679 224.023 307.064L55.3804 221.034C54.0514 223.698 52.7148 226.43 51.4231 229.155L51.4231 229.162ZM48.0332 638.453C49.2652 641.155 50.5495 643.909 51.8338 646.596L221.88 563.457C221.118 561.841 220.356 560.226 219.617 558.589L48.0332 638.453ZM40.5068 253.864L215.085 326.8C215.764 325.124 216.466 323.449 217.176 321.796L43.9938 245.54C42.8066 248.294 41.6343 251.079 40.5068 253.856L40.5068 253.864ZM37.5874 613.728C38.6775 616.521 39.79 619.306 40.9026 622.023L215.324 548.679C214.637 547.019 213.965 545.343 213.315 543.668L37.5874 613.736L37.5874 613.728ZM30.9569 279.2L209.343 342.023C209.933 340.309 210.538 338.611 211.157 336.913L33.9809 270.687C32.9506 273.509 31.9351 276.377 30.9569 279.2ZM28.478 588.279C29.3964 591.102 30.3671 593.977 31.3452 596.807L209.575 533.547C208.985 531.849 208.41 530.136 207.857 528.423L28.478 588.287L28.478 588.279ZM22.8631 305.034L204.482 357.532C204.975 355.796 205.475 354.068 206.006 352.355L25.4167 296.332C24.5431 299.192 23.6844 302.128 22.8631 305.026L22.8631 305.034ZM20.8172 562.392C21.5788 565.275 22.3927 568.204 23.214 571.064L204.684 518.06C204.191 516.332 203.706 514.596 203.243 512.853L20.8172 562.392ZM16.2401 331.2L200.495 373.275C200.883 371.517 201.294 369.751 201.727 368L18.2786 322.415C17.5767 325.313 16.8897 328.264 16.2327 331.2L16.2401 331.2ZM14.6124 536.098C15.2172 539.019 15.8593 541.97 16.5089 544.883L200.667 502.355C200.256 500.596 199.883 498.823 199.517 497.049L14.6049 536.106L14.6124 536.098ZM11.0881 357.728L197.404 389.215C197.695 387.441 198.009 385.653 198.337 383.894L12.6562 348.8C12.1111 351.751 11.5884 354.747 11.0956 357.728L11.0881 357.728ZM9.88601 509.524C10.3191 512.46 10.7969 515.441 11.2897 518.377L197.516 486.4C197.21 484.626 196.934 482.838 196.672 481.041L9.88601 509.517L9.88601 509.524ZM7.42949 384.43L195.194 405.321C195.373 403.524 195.59 401.728 195.814 399.94L8.48227 375.464C8.10893 378.415 7.75802 381.434 7.42949 384.43ZM6.64548 482.755C6.92174 485.728 7.23535 488.747 7.56388 491.721L195.268 470.317C195.059 468.528 194.88 466.732 194.708 464.936L6.63802 482.755L6.64548 482.755ZM5.25668 411.23L193.88 421.532C193.962 419.721 194.089 417.909 194.208 416.113L5.81668 402.302C5.60762 405.26 5.42095 408.272 5.25668 411.23ZM4.90575 455.917C5.01775 458.89 5.15962 461.909 5.33136 464.898L193.917 454.113C193.805 452.317 193.723 450.506 193.648 448.694L4.90575 455.924L4.90575 455.917ZM4.55482 437.441L4.55482 437.856L193.447 437.856L193.447 437.441C193.447 435.751 193.462 434.068 193.491 432.392L4.62201 429.087C4.57721 431.864 4.54734 434.649 4.54734 437.441L4.55482 437.441Z" fill="white"/>
<path d="M553.766 670.665C552.354 671.117 550.936 671.563 549.525 671.978L595.198 826.446C597.528 825.751 599.857 825.019 602.18 824.272L602.284 824.234L553.863 670.627L553.758 670.665L553.766 670.665ZM566.713 666.084C565.302 666.634 563.883 667.17 562.449 667.699L616.508 819.359C618.868 818.499 621.22 817.623 623.512 816.733L566.72 666.084L566.713 666.084ZM536.391 675.555L573.56 832.325C575.979 831.744 578.413 831.133 580.802 830.499L540.789 674.438C539.325 674.831 537.854 675.2 536.391 675.555ZM579.264 660.838C577.883 661.465 576.502 662.076 575.098 662.665L637.422 811.08C639.729 810.091 642.037 809.072 644.284 808.053L579.264 660.838ZM523.093 678.385L551.541 837.012C554.005 836.551 556.484 836.083 558.91 835.593L527.535 677.517C526.057 677.819 524.571 678.114 523.093 678.385ZM591.502 654.891C590.166 655.593 588.822 656.287 587.463 656.951L657.873 801.608C660.128 800.491 662.391 799.336 664.593 798.189L591.502 654.891ZM509.667 680.446L529.238 840.446C531.746 840.136 534.255 839.797 536.719 839.434L514.155 679.842C512.662 680.061 511.168 680.265 509.667 680.438L509.667 680.446ZM603.397 648.265C602.09 649.042 600.776 649.812 599.447 650.559L677.892 790.936C680.049 789.714 682.185 788.461 684.32 787.2L603.397 648.272L603.397 648.265ZM496.183 681.744L506.726 842.612C509.212 842.438 511.758 842.25 514.274 842.031L500.67 681.389C499.169 681.525 497.669 681.638 496.183 681.744ZM614.873 640.982C613.626 641.827 612.364 642.657 611.095 643.48L697.163 779.216C699.276 777.85 701.389 776.453 703.465 775.05L614.88 640.982L614.873 640.982ZM482.593 682.257L484.258 843.48C486.745 843.45 489.254 843.397 491.718 843.329L487.141 682.167C485.625 682.219 484.109 682.25 482.601 682.25L482.593 682.257ZM625.946 633.034C624.744 633.955 623.534 634.861 622.302 635.759L715.845 766.348C717.883 764.853 719.914 763.344 721.885 761.842L625.946 633.034ZM468.997 682.008L461.59 843.065C464.091 843.178 466.622 843.276 469.109 843.344L473.529 682.189C472.013 682.144 470.505 682.091 468.989 682.016L468.997 682.008ZM636.519 624.499C635.384 625.48 634.234 626.438 633.069 627.397L733.727 752.461C735.691 750.853 737.64 749.216 739.529 747.6L636.519 624.499ZM455.422 680.982L439.003 841.351C441.512 841.616 444.043 841.857 446.529 842.061L459.947 681.412C458.439 681.291 456.938 681.148 455.422 680.982ZM646.614 615.389C645.523 616.423 644.433 617.457 643.313 618.468L750.751 737.653C752.596 735.94 754.455 734.197 756.284 732.446L646.614 615.389ZM441.945 679.185L416.551 838.348C419.03 838.755 421.561 839.14 424.062 839.495L446.41 679.872C444.917 679.661 443.423 679.434 441.937 679.185L441.945 679.185ZM656.193 605.691C655.156 606.793 654.118 607.887 653.072 608.982L766.976 721.834C768.709 720.053 770.456 718.212 772.173 716.37L656.201 605.691L656.193 605.691ZM428.594 676.627L394.375 834.091C396.794 834.627 399.28 835.155 401.752 835.653L433.03 677.563C431.551 677.268 430.073 676.951 428.594 676.627ZM665.213 595.465C664.242 596.634 663.264 597.782 662.264 598.936L782.261 705.133C783.896 703.253 785.538 701.321 787.136 699.412L665.213 595.465ZM415.401 673.299L372.415 828.559C374.82 829.238 377.306 829.91 379.785 830.567L419.761 674.499C418.298 674.114 416.857 673.714 415.408 673.299L415.401 673.299ZM673.673 584.748C672.762 585.97 671.844 587.178 670.91 588.378L796.597 687.623C798.135 685.638 799.658 683.631 801.136 681.638L673.665 584.74L673.673 584.748ZM402.401 669.231L350.986 821.85C353.33 822.657 355.712 823.45 358.094 824.219L406.702 670.672C405.269 670.204 403.827 669.721 402.394 669.231L402.401 669.231ZM681.52 573.57C680.684 574.838 679.833 576.084 678.974 577.329L809.932 669.374C811.366 667.284 812.792 665.17 814.173 663.087L681.528 573.57L681.52 573.57ZM389.656 664.438L329.908 813.917C332.245 814.876 334.604 815.812 336.904 816.695L393.859 666.121C392.456 665.578 391.045 665.019 389.648 664.438L389.656 664.438ZM688.748 561.933C687.986 563.253 687.21 564.567 686.419 565.857L822.267 650.317C823.566 648.189 824.85 646.038 826.112 643.872L688.748 561.925L688.748 561.933ZM377.179 658.929L309.307 804.823C311.554 805.895 313.809 806.936 316.079 807.963L381.308 660.846C379.927 660.227 378.545 659.593 377.172 658.929L377.179 658.929ZM695.326 549.91C694.639 551.261 693.93 552.604 693.213 553.948L833.474 630.702C834.662 628.491 835.849 626.219 836.991 623.978L695.326 549.91ZM365.053 652.74L289.244 794.582C291.424 795.774 293.612 796.944 295.822 798.099L369.078 654.891C367.726 654.189 366.39 653.472 365.053 652.74ZM701.232 537.54C700.62 538.929 699.985 540.325 699.336 541.706L843.644 610.37C844.704 608.099 845.742 605.827 846.758 603.54L701.232 537.54ZM353.293 645.887L269.763 783.223C271.884 784.536 274.049 785.857 276.185 787.125L357.183 648.242C355.877 647.472 354.577 646.687 353.301 645.887L353.293 645.887ZM706.459 524.831C705.914 526.265 705.361 527.684 704.786 529.11L852.656 589.548C853.582 587.223 854.501 584.876 855.389 582.529L706.459 524.823L706.459 524.831ZM341.936 638.378L250.895 770.748C252.941 772.189 255.047 773.638 257.145 775.057L345.662 640.936C344.408 640.091 343.168 639.246 341.936 638.378ZM710.954 511.88C710.498 513.329 710.021 514.778 709.528 516.235L860.504 568.234C861.318 565.834 862.102 563.412 862.856 561.034L710.946 511.88L710.954 511.88ZM331.02 630.242L232.803 757.268C234.745 758.808 236.761 760.37 238.777 761.902L334.589 633.012C333.379 632.099 332.185 631.17 331.013 630.242L331.02 630.242ZM714.747 498.665C714.366 500.151 713.978 501.623 713.56 503.102L867.171 546.484C867.843 544.068 868.501 541.608 869.128 539.178L714.747 498.665ZM320.552 621.495L215.526 742.831C217.4 744.484 219.304 746.144 221.2 747.759L323.986 624.484C322.829 623.502 321.694 622.514 320.559 621.502L320.552 621.495ZM717.786 485.276C717.495 486.77 717.181 488.265 716.853 489.759L872.637 524.401C873.167 521.933 873.697 519.419 874.183 516.944L717.793 485.276L717.786 485.276ZM310.606 612.197L198.987 727.359C200.764 729.117 202.586 730.884 204.408 732.627L313.854 615.344C312.757 614.31 311.674 613.261 310.599 612.197L310.606 612.197ZM720.086 471.721C719.869 473.246 719.638 474.763 719.399 476.272L876.863 501.94C877.259 499.45 877.64 496.929 877.983 494.446L720.086 471.729L720.086 471.721ZM301.206 602.34L183.404 711.042C185.069 712.884 186.779 714.733 188.474 716.551L304.282 605.699C303.244 604.589 302.221 603.48 301.206 602.34ZM721.601 458.061C721.482 459.585 721.34 461.102 721.183 462.619L879.827 479.329C880.089 476.816 880.328 474.257 880.537 471.721L721.601 458.061ZM292.365 591.978L168.702 693.804C170.293 695.774 171.905 697.736 173.503 699.638L295.247 595.472C294.277 594.325 293.313 593.155 292.365 591.978ZM722.378 444.325C722.333 445.857 722.281 447.382 722.206 448.914L881.537 456.506C881.649 453.963 881.747 451.397 881.821 448.868L722.378 444.325ZM284.107 581.118L154.949 675.699C156.405 677.744 157.913 679.797 159.406 681.804L286.802 584.801C285.891 583.585 285.003 582.355 284.107 581.118ZM722.37 430.597C722.423 432.121 722.453 433.638 722.46 435.163L881.956 433.616C881.933 431.095 881.881 428.521 881.814 425.978L722.378 430.597L722.37 430.597ZM276.454 569.782L142.24 656.899C143.592 659.012 144.973 661.133 146.332 663.216L278.94 573.623C278.104 572.355 277.267 571.072 276.454 569.782ZM721.609 416.899C721.743 418.416 721.863 419.94 721.952 421.457L881.104 410.801C880.94 408.265 880.746 405.714 880.529 403.193L721.609 416.899ZM269.465 558.038L130.562 637.299C131.787 639.495 133.056 641.706 134.318 643.88L271.72 562.008C270.951 560.695 270.204 559.374 269.465 558.038ZM720.078 403.268C720.295 404.778 720.496 406.287 720.668 407.804L878.969 388.076C878.67 385.563 878.334 383.034 877.983 380.559L720.078 403.276L720.078 403.268ZM263.118 545.902L120.042 617.148C121.154 619.419 122.289 621.699 123.417 623.918L265.157 549.985C264.462 548.627 263.79 547.276 263.118 545.895L263.118 545.902ZM717.786 389.744C718.085 391.238 718.368 392.74 718.637 394.242L875.594 365.578C875.153 363.087 874.676 360.559 874.19 358.084L717.793 389.744L717.786 389.744ZM257.466 533.427L110.656 596.446C111.634 598.763 112.642 601.11 113.65 603.404L259.273 537.638C258.653 536.242 258.048 534.846 257.466 533.427ZM714.754 376.355C715.135 377.834 715.494 379.314 715.845 380.793L870.965 343.284C870.382 340.823 869.777 338.355 869.158 335.955L714.754 376.355ZM252.486 520.619L102.465 575.351C103.317 577.714 104.175 580.061 105.056 582.385L254.069 524.929C253.531 523.495 253.001 522.061 252.486 520.612L252.486 520.619ZM710.864 362.74L710.991 363.133C711.447 364.589 711.902 366.046 712.32 367.518L865.163 321.419C864.454 319.027 863.715 316.597 862.96 314.197L862.692 313.351L710.872 362.748L710.864 362.74ZM95.4392 553.812C96.1187 556.106 96.8205 558.401 97.5448 560.687L97.612 560.891L219.319 521.721L249.589 511.97L249.514 511.744C249.073 510.348 248.648 508.959 248.237 507.555L95.4467 553.804L95.4392 553.812ZM855.322 292.159L706.34 349.751C706.885 351.178 707.415 352.612 707.937 354.061L857.905 299.193C857.069 296.838 856.203 294.499 855.322 292.151L855.322 292.159ZM89.6077 531.91C90.1901 534.37 90.7949 536.838 91.4221 539.268L245.788 498.733C245.407 497.253 245.041 495.774 244.69 494.295L89.6003 531.902L89.6077 531.91ZM846.698 271.163L701.143 337.065C701.762 338.446 702.367 339.857 702.957 341.261L849.7 278.099C848.721 275.789 847.721 273.45 846.698 271.163ZM84.9635 509.653C85.4115 512.121 85.8893 514.627 86.3747 517.102L242.749 485.351C242.435 483.85 242.152 482.348 241.89 480.846L84.9635 509.653ZM836.917 250.65L695.237 324.702C695.931 326.053 696.618 327.412 697.29 328.793L840.306 257.412C839.201 255.155 838.059 252.876 836.924 250.657L836.917 250.65ZM81.5587 487.125C81.8648 489.631 82.1933 492.174 82.5517 494.672L240.434 471.812C240.225 470.295 240.031 468.785 239.845 467.276L81.5587 487.118L81.5587 487.125ZM825.993 230.695L688.666 312.695C689.435 314.008 690.189 315.329 690.921 316.665L829.764 237.284C828.539 235.087 827.27 232.876 825.993 230.695ZM79.4157 464.438C79.58 466.967 79.7741 469.525 79.9907 472.038L238.911 458.189C238.777 456.672 238.657 455.148 238.56 453.631L79.4232 464.438L79.4157 464.438ZM813.964 211.382L681.438 301.102C682.289 302.37 683.111 303.646 683.932 304.929L818.086 217.729C816.727 215.601 815.345 213.465 813.964 211.382ZM78.5347 441.646C78.5645 444.159 78.6093 446.718 78.684 449.216L238.127 444.499C238.075 442.974 238.045 441.45 238.045 439.918L78.5421 441.638L78.5347 441.646ZM800.882 192.801L673.583 289.925C674.494 291.14 675.383 292.37 676.264 293.601L805.34 198.884C803.884 196.838 802.376 194.801 800.882 192.801ZM78.9453 418.702C78.8259 421.246 78.7363 423.819 78.6616 426.378L238.112 430.74C238.142 429.216 238.202 427.684 238.277 426.167L78.9453 418.695L78.9453 418.702ZM786.8 175.004L665.109 279.231C666.079 280.378 667.042 281.555 667.991 282.733L791.564 180.793C789.996 178.846 788.398 176.906 786.8 174.997L786.8 175.004ZM80.6328 395.865C80.3714 398.401 80.1325 400.967 79.916 403.533L238.866 417.027C238.986 415.502 239.128 413.985 239.285 412.468L80.6328 395.865ZM771.762 158.069L656.074 269.05C657.112 270.159 658.135 271.268 659.158 272.393L776.87 163.601C775.19 161.736 773.48 159.88 771.77 158.069L771.762 158.069ZM83.5746 373.291C83.1789 375.782 82.8056 378.295 82.4546 380.77L240.367 403.367C240.584 401.842 240.815 400.325 241.069 398.816L83.5746 373.291ZM755.829 142.016L646.472 259.374C647.569 260.416 648.66 261.48 649.735 262.544L761.234 147.253C759.457 145.495 757.636 143.736 755.829 142.016ZM87.7933 350.831C87.2557 353.306 86.7331 355.812 86.2477 358.287L242.667 389.819C242.958 388.325 243.272 386.831 243.593 385.336L87.7933 350.831ZM739.036 126.899L636.354 250.272C637.512 251.253 638.662 252.242 639.789 253.253L744.711 131.827C742.844 130.182 740.933 128.521 739.029 126.906L739.036 126.899ZM93.2365 328.71C92.557 331.148 91.9 333.631 91.2728 336.061L245.698 376.408C246.079 374.929 246.467 373.45 246.878 371.985L93.2365 328.71ZM721.445 112.77L625.729 241.736C626.939 242.657 628.149 243.578 629.328 244.521L727.388 117.367C725.432 115.819 723.431 114.272 721.445 112.763L721.445 112.77ZM99.8818 306.952C99.0904 309.329 98.2989 311.752 97.5373 314.152L249.462 363.201C249.925 361.751 250.402 360.295 250.888 358.846L99.8744 306.944L99.8818 306.952ZM703.077 99.6459L614.649 233.812C615.903 234.657 617.15 235.518 618.39 236.393L709.259 103.902C707.221 102.468 705.137 101.035 703.069 99.6534L703.077 99.6459ZM107.729 285.616C106.796 287.955 105.87 290.333 104.982 292.68L253.971 350.235C254.509 348.808 255.069 347.389 255.629 345.97L107.729 285.616ZM684.044 87.5855L603.143 226.529C604.449 227.299 605.749 228.084 607.025 228.884L690.443 91.4798C688.337 90.1742 686.187 88.8609 684.044 87.5855ZM116.712 264.793C115.659 267.065 114.614 269.374 113.598 271.661L259.176 337.548C259.788 336.152 260.415 334.755 261.065 333.374L116.712 264.801L116.712 264.793ZM664.347 76.6119L591.241 219.902C592.592 220.597 593.936 221.314 595.265 222.046L670.962 80.1289C668.775 78.9364 666.55 77.7591 664.354 76.6119L664.347 76.6119ZM126.814 244.552C125.642 246.748 124.477 248.982 123.342 251.201L265.067 325.155C265.754 323.797 266.463 322.438 267.187 321.102L126.807 244.559L126.814 244.552ZM644.097 66.7779L578.988 213.94C580.377 214.567 581.758 215.208 583.125 215.865L650.907 69.9251C648.66 68.861 646.375 67.8044 644.105 66.7855L644.097 66.7779ZM138.066 224.831C136.767 226.959 135.475 229.133 134.206 231.299L271.63 313.14C272.392 311.819 273.183 310.506 273.975 309.208L138.066 224.831ZM623.31 58.0685L566.429 208.687C567.84 209.231 569.251 209.797 570.655 210.363L630.291 60.8383C627.977 59.9024 625.64 58.9666 623.303 58.0685L623.31 58.0685ZM150.364 205.812C148.945 207.872 147.527 209.978 146.153 212.053L278.85 301.487C279.687 300.234 280.538 298.959 281.404 297.714L150.364 205.804L150.364 205.812ZM602.06 50.544L553.594 204.144C555.035 204.604 556.476 205.08 557.902 205.57L609.153 52.9062C606.809 52.0987 604.427 51.3063 602.06 50.544ZM163.692 187.51C162.169 189.487 160.638 191.502 159.152 193.518L286.705 290.302C287.609 289.087 288.527 287.872 289.461 286.687L163.699 187.518L163.692 187.51ZM580.384 44.2421L540.535 200.34C541.998 200.725 543.462 201.11 544.91 201.533L587.664 46.2119C585.253 45.5326 582.804 44.8761 580.384 44.2421ZM177.991 170.001C176.348 171.902 174.705 173.835 173.122 175.752L295.143 279.563C296.106 278.408 297.091 277.246 298.085 276.099L177.991 170.001ZM558.395 39.1553L527.274 197.284C528.752 197.578 530.231 197.88 531.702 198.212L565.772 40.7176C563.338 40.1817 560.859 39.6534 558.395 39.1553ZM193.267 153.314C191.528 155.11 189.788 156.952 188.093 158.763L304.162 269.344C305.193 268.235 306.246 267.133 307.298 266.046L193.275 153.306L193.267 153.314ZM536.107 35.3364L513.856 194.974C515.35 195.201 516.85 195.419 518.344 195.668L543.589 36.4761C541.125 36.076 538.616 35.6911 536.107 35.3364ZM209.47 137.495C207.633 139.193 205.774 140.944 203.96 142.672L313.72 259.646C314.81 258.612 315.9 257.578 317.013 256.559L209.463 137.495L209.47 137.495ZM513.64 32.793L500.334 193.45C501.842 193.57 503.358 193.714 504.852 193.872L521.151 33.4949C518.657 33.2383 516.134 32.9968 513.64 32.793ZM226.472 122.665C224.53 124.265 222.597 125.887 220.722 127.487L323.807 250.521C324.957 249.533 326.114 248.567 327.287 247.601L226.479 122.665L226.472 122.665ZM491.031 31.5176L486.752 192.687C488.268 192.733 489.776 192.786 491.285 192.853L498.579 31.7969C496.063 31.6836 493.525 31.5931 491.031 31.5176ZM244.392 108.725C242.376 110.197 240.337 111.721 238.344 113.246L334.38 241.963C335.582 241.042 336.799 240.144 338.016 239.253L244.392 108.725ZM468.399 31.5553L473.17 192.702C474.679 192.657 476.179 192.619 477.68 192.619L475.978 31.4043C473.477 31.427 470.923 31.4799 468.399 31.5553ZM263.029 95.8647C260.923 97.2233 258.81 98.6346 256.742 100.038L345.446 234.023C346.693 233.178 347.947 232.34 349.224 231.518L263.029 95.8647ZM445.872 32.8836L459.611 193.502C461.112 193.367 462.62 193.246 464.121 193.155L453.384 32.295C450.897 32.4686 448.374 32.6647 445.872 32.8836ZM282.375 84.0761C280.202 85.3138 278.022 86.5968 275.871 87.8723L356.929 226.725C358.229 225.94 359.543 225.178 360.857 224.431L282.375 84.0761ZM423.435 35.4874L446.134 195.065C447.619 194.846 449.12 194.642 450.606 194.461L430.939 34.4686C428.453 34.778 425.936 35.1252 423.435 35.4874ZM302.311 73.427C300.086 74.5364 297.831 75.6836 295.621 76.8383L368.809 220.084C370.145 219.382 371.489 218.702 372.856 218.023L302.311 73.427ZM401.244 39.3667L432.746 197.412C434.224 197.095 435.71 196.816 437.189 196.536L408.651 37.9252C406.209 38.378 403.715 38.861 401.244 39.3667ZM322.784 63.9251C320.492 64.9137 318.162 65.9402 315.885 66.9742L381.039 214.129C382.406 213.502 383.794 212.899 385.183 212.295L322.792 63.9251L322.784 63.9251ZM379.359 44.461L419.515 200.491C420.978 200.099 422.449 199.729 423.913 199.367L386.617 42.627C384.205 43.2157 381.763 43.8346 379.367 44.461L379.359 44.461ZM343.698 55.6308C341.361 56.4836 338.994 57.3742 336.657 58.2798L393.583 208.876C394.987 208.325 396.406 207.797 397.824 207.268L343.691 55.6383L343.698 55.6308ZM358.311 50.612L357.982 50.7175L406.403 204.325L406.732 204.219C408.076 203.789 409.42 203.367 410.764 202.967L364.978 48.5365C362.753 49.2082 360.528 49.9025 358.311 50.6194L358.311 50.612Z" fill="#4E61C8"/>
</g>
</g>
</g>
<defs>
<clipPath id="clip0_1_6644">
<rect width="400" height="336" fill="white" transform="translate(0 400) rotate(-90)"/>
</clipPath>
</defs>
</svg>
