<svg width="24" height="25" viewBox="0 0 24 25" fill="none" xmlns="http://www.w3.org/2000/svg">
<path d="M17 10.8966H19C21 10.8966 22 9.89661 22 7.89661V5.89661C22 3.89661 21 2.89661 19 2.89661H17C15 2.89661 14 3.89661 14 5.89661V7.89661C14 9.89661 15 10.8966 17 10.8966Z" stroke="white" stroke-opacity="0.5" stroke-width="1.5" stroke-miterlimit="10" stroke-linecap="round" stroke-linejoin="round"/>
<path d="M5 22.8966H7C9 22.8966 10 21.8966 10 19.8966V17.8966C10 15.8966 9 14.8966 7 14.8966H5C3 14.8966 2 15.8966 2 17.8966V19.8966C2 21.8966 3 22.8966 5 22.8966Z" stroke="white" stroke-opacity="0.5" stroke-width="1.5" stroke-miterlimit="10" stroke-linecap="round" stroke-linejoin="round"/>
<path d="M6 10.8966C8.20914 10.8966 10 9.10575 10 6.89661C10 4.68747 8.20914 2.89661 6 2.89661C3.79086 2.89661 2 4.68747 2 6.89661C2 9.10575 3.79086 10.8966 6 10.8966Z" stroke="white" stroke-opacity="0.5" stroke-width="1.5" stroke-miterlimit="10" stroke-linecap="round" stroke-linejoin="round"/>
<path d="M18 22.8966C20.2091 22.8966 22 21.1057 22 18.8966C22 16.6875 20.2091 14.8966 18 14.8966C15.7909 14.8966 14 16.6875 14 18.8966C14 21.1057 15.7909 22.8966 18 22.8966Z" stroke="white" stroke-opacity="0.5" stroke-width="1.5" stroke-miterlimit="10" stroke-linecap="round" stroke-linejoin="round"/>
</svg>
