<svg width="24" height="25" viewBox="0 0 24 25" fill="none" xmlns="http://www.w3.org/2000/svg">
<path d="M7.47998 19.2466L10.58 21.6466C10.98 22.0466 11.88 22.2466 12.48 22.2466H16.28C17.48 22.2466 18.78 21.3466 19.08 20.1466L21.48 12.8466C21.98 11.4466 21.08 10.2466 19.58 10.2466H15.58C14.98 10.2466 14.48 9.74664 14.58 9.04664L15.08 5.84664C15.28 4.94664 14.68 3.94664 13.78 3.64664C12.98 3.34664 11.98 3.74664 11.58 4.34664L7.47998 10.4466" stroke="white" stroke-opacity="0.5" stroke-width="1.5" stroke-miterlimit="10"/>
<path d="M2.37988 19.2466V9.44663C2.37988 8.04663 2.97988 7.54663 4.37988 7.54663H5.37988C6.77988 7.54663 7.37988 8.04663 7.37988 9.44663V19.2466C7.37988 20.6466 6.77988 21.1466 5.37988 21.1466H4.37988C2.97988 21.1466 2.37988 20.6466 2.37988 19.2466Z" stroke="white" stroke-opacity="0.5" stroke-width="1.5" stroke-linecap="round" stroke-linejoin="round"/>
</svg>
