<svg width="24" height="25" viewBox="0 0 24 25" fill="none" xmlns="http://www.w3.org/2000/svg">
<path d="M11.6801 15.7666C11.4901 15.7666 11.3001 15.6966 11.1501 15.5466C10.8601 15.2566 10.8601 14.7766 11.1501 14.4866L13.1801 12.4566L11.1501 10.4266C10.8601 10.1366 10.8601 9.65661 11.1501 9.36661C11.4401 9.07661 11.9201 9.07661 12.2101 9.36661L14.7701 11.9266C15.0601 12.2166 15.0601 12.6966 14.7701 12.9866L12.2101 15.5466C12.0701 15.6966 11.8701 15.7666 11.6801 15.7666Z" fill="#BDCD5C"/>
<path d="M14.17 13.2066H4C3.59 13.2066 3.25 12.8666 3.25 12.4566C3.25 12.0466 3.59 11.7066 4 11.7066H14.17C14.58 11.7066 14.92 12.0466 14.92 12.4566C14.92 12.8666 14.58 13.2066 14.17 13.2066Z" fill="#BDCD5C"/>
<path d="M12 21.1466C11.59 21.1466 11.25 20.8066 11.25 20.3966C11.25 19.9866 11.59 19.6466 12 19.6466C16.27 19.6466 19.25 16.6666 19.25 12.3966C19.25 8.12661 16.27 5.14661 12 5.14661C11.59 5.14661 11.25 4.80661 11.25 4.39661C11.25 3.98661 11.59 3.64661 12 3.64661C17.15 3.64661 20.75 7.24661 20.75 12.3966C20.75 17.5466 17.15 21.1466 12 21.1466Z" fill="#BDCD5C"/>
</svg>
