<svg width="24" height="25" viewBox="0 0 24 25" fill="none" xmlns="http://www.w3.org/2000/svg">
<path d="M9.16006 11.7666C9.06006 11.7566 8.94006 11.7566 8.83006 11.7666C6.45006 11.6866 4.56006 9.73661 4.56006 7.33661C4.56006 4.88661 6.54006 2.89661 9.00006 2.89661C11.4501 2.89661 13.4401 4.88661 13.4401 7.33661C13.4301 9.73661 11.5401 11.6866 9.16006 11.7666Z" stroke="white" stroke-opacity="0.5" stroke-width="1.5" stroke-linecap="round" stroke-linejoin="round"/>
<path d="M16.4098 4.89661C18.3498 4.89661 19.9098 6.46661 19.9098 8.39661C19.9098 10.2866 18.4098 11.8266 16.5398 11.8966C16.4598 11.8866 16.3698 11.8866 16.2798 11.8966" stroke="white" stroke-opacity="0.5" stroke-width="1.5" stroke-linecap="round" stroke-linejoin="round"/>
<path d="M4.16021 15.4566C1.74021 17.0766 1.74021 19.7166 4.16021 21.3266C6.91021 23.1666 11.4202 23.1666 14.1702 21.3266C16.5902 19.7066 16.5902 17.0666 14.1702 15.4566C11.4302 13.6266 6.92021 13.6266 4.16021 15.4566Z" stroke="white" stroke-opacity="0.5" stroke-width="1.5" stroke-linecap="round" stroke-linejoin="round"/>
<path d="M18.3398 20.8966C19.0598 20.7466 19.7398 20.4566 20.2998 20.0266C21.8598 18.8566 21.8598 16.9266 20.2998 15.7566C19.7498 15.3366 19.0798 15.0566 18.3698 14.8966" stroke="white" stroke-opacity="0.5" stroke-width="1.5" stroke-linecap="round" stroke-linejoin="round"/>
</svg>
