<svg width="80" height="81" viewBox="0 0 80 81" fill="none" xmlns="http://www.w3.org/2000/svg">
<path d="M72 0.896606H8C3.58172 0.896606 0 4.47833 0 8.89661V72.8966C0 77.3149 3.58172 80.8966 8 80.8966H72C76.4183 80.8966 80 77.3149 80 72.8966V8.89661C80 4.47833 76.4183 0.896606 72 0.896606Z" fill="white"/>
<path d="M26.7396 5.74512H24.2427V8.24209H26.7396V5.74512Z" fill="#2A3886"/>
<path d="M36.4364 5.74512H33.9395V8.24209H36.4364V5.74512Z" fill="#2A3886"/>
<path d="M43.7094 5.74512H41.2124V8.24209H43.7094V5.74512Z" fill="#2A3886"/>
<path d="M48.5575 5.74512H46.0605V8.24209H48.5575V5.74512Z" fill="#2A3886"/>
<path d="M50.9818 5.74512H48.4849V8.24209H50.9818V5.74512Z" fill="#2A3886"/>
<path d="M55.8305 5.74512H53.3335V8.24209H55.8305V5.74512Z" fill="#2A3886"/>
<path d="M26.7396 8.16895H24.2427V10.6659H26.7396V8.16895Z" fill="#2A3886"/>
<path d="M29.164 8.16895H26.667V10.6659H29.164V8.16895Z" fill="#2A3886"/>
<path d="M31.5878 8.16895H29.0908V10.6659H31.5878V8.16895Z" fill="#2A3886"/>
<path d="M36.4364 8.16895H33.9395V10.6659H36.4364V8.16895Z" fill="#2A3886"/>
<path d="M38.8607 8.16895H36.3638V10.6659H38.8607V8.16895Z" fill="#2A3886"/>
<path d="M41.2851 8.16895H38.7881V10.6659H41.2851V8.16895Z" fill="#2A3886"/>
<path d="M48.5575 8.16895H46.0605V10.6659H48.5575V8.16895Z" fill="#2A3886"/>
<path d="M53.4061 8.16895H50.9092V10.6659H53.4061V8.16895Z" fill="#2A3886"/>
<path d="M26.7396 10.5936H24.2427V13.0906H26.7396V10.5936Z" fill="#2A3886"/>
<path d="M34.0121 10.5936H31.5151V13.0906H34.0121V10.5936Z" fill="#2A3886"/>
<path d="M36.4364 10.5936H33.9395V13.0906H36.4364V10.5936Z" fill="#2A3886"/>
<path d="M38.8607 10.5936H36.3638V13.0906H38.8607V10.5936Z" fill="#2A3886"/>
<path d="M50.9818 10.5936H48.4849V13.0906H50.9818V10.5936Z" fill="#2A3886"/>
<path d="M53.4061 10.5936H50.9092V13.0906H53.4061V10.5936Z" fill="#2A3886"/>
<path d="M55.8305 10.5936H53.3335V13.0906H55.8305V10.5936Z" fill="#2A3886"/>
<path d="M29.164 13.0176H26.667V15.5145H29.164V13.0176Z" fill="#2A3886"/>
<path d="M34.0121 13.0176H31.5151V15.5145H34.0121V13.0176Z" fill="#2A3886"/>
<path d="M41.2851 13.0176H38.7881V15.5145H41.2851V13.0176Z" fill="#2A3886"/>
<path d="M48.5575 13.0176H46.0605V15.5145H48.5575V13.0176Z" fill="#2A3886"/>
<path d="M53.4061 13.0176H50.9092V15.5145H53.4061V13.0176Z" fill="#2A3886"/>
<path d="M31.5878 15.4424H29.0908V17.9394H31.5878V15.4424Z" fill="#2A3886"/>
<path d="M34.0121 15.4424H31.5151V17.9394H34.0121V15.4424Z" fill="#2A3886"/>
<path d="M38.8607 15.4424H36.3638V17.9394H38.8607V15.4424Z" fill="#2A3886"/>
<path d="M43.7094 15.4424H41.2124V17.9394H43.7094V15.4424Z" fill="#2A3886"/>
<path d="M46.1337 15.4424H43.6367V17.9394H46.1337V15.4424Z" fill="#2A3886"/>
<path d="M50.9818 15.4424H48.4849V17.9394H50.9818V15.4424Z" fill="#2A3886"/>
<path d="M53.4061 15.4424H50.9092V17.9394H53.4061V15.4424Z" fill="#2A3886"/>
<path d="M26.7396 17.8663H24.2427V20.3633H26.7396V17.8663Z" fill="#2A3886"/>
<path d="M34.0121 17.8663H31.5151V20.3633H34.0121V17.8663Z" fill="#2A3886"/>
<path d="M50.9818 17.8663H48.4849V20.3633H50.9818V17.8663Z" fill="#2A3886"/>
<path d="M26.7396 20.291H24.2427V22.788H26.7396V20.291Z" fill="#2A3886"/>
<path d="M31.5878 20.291H29.0908V22.788H31.5878V20.291Z" fill="#2A3886"/>
<path d="M36.4364 20.291H33.9395V22.788H36.4364V20.291Z" fill="#2A3886"/>
<path d="M41.2851 20.291H38.7881V22.788H41.2851V20.291Z" fill="#2A3886"/>
<path d="M46.1337 20.291H43.6367V22.788H46.1337V20.291Z" fill="#2A3886"/>
<path d="M50.9818 20.291H48.4849V22.788H50.9818V20.291Z" fill="#2A3886"/>
<path d="M55.8305 20.291H53.3335V22.788H55.8305V20.291Z" fill="#2A3886"/>
<path d="M26.7396 22.7148H24.2427V25.2118H26.7396V22.7148Z" fill="#2A3886"/>
<path d="M34.0121 22.7148H31.5151V25.2118H34.0121V22.7148Z" fill="#2A3886"/>
<path d="M36.4364 22.7148H33.9395V25.2118H36.4364V22.7148Z" fill="#2A3886"/>
<path d="M43.7094 22.7148H41.2124V25.2118H43.7094V22.7148Z" fill="#2A3886"/>
<path d="M46.1337 22.7148H43.6367V25.2118H46.1337V22.7148Z" fill="#2A3886"/>
<path d="M53.4061 22.7148H50.9092V25.2118H53.4061V22.7148Z" fill="#2A3886"/>
<path d="M55.8305 22.7148H53.3335V25.2118H55.8305V22.7148Z" fill="#2A3886"/>
<path d="M12.1942 25.1387H9.69727V27.6356H12.1942V25.1387Z" fill="#2A3886"/>
<path d="M14.6186 25.1387H12.1216V27.6356H14.6186V25.1387Z" fill="#2A3886"/>
<path d="M17.0424 25.1387H14.5454V27.6356H17.0424V25.1387Z" fill="#2A3886"/>
<path d="M21.891 25.1387H19.394V27.6356H21.891V25.1387Z" fill="#2A3886"/>
<path d="M26.7396 25.1387H24.2427V27.6356H26.7396V25.1387Z" fill="#2A3886"/>
<path d="M31.5878 25.1387H29.0908V27.6356H31.5878V25.1387Z" fill="#2A3886"/>
<path d="M50.9818 25.1387H48.4849V27.6356H50.9818V25.1387Z" fill="#2A3886"/>
<path d="M55.8305 25.1387H53.3335V27.6356H55.8305V25.1387Z" fill="#2A3886"/>
<path d="M58.2548 25.1387H55.7578V27.6356H58.2548V25.1387Z" fill="#2A3886"/>
<path d="M60.6791 25.1387H58.1821V27.6356H60.6791V25.1387Z" fill="#2A3886"/>
<path d="M63.1034 25.1387H60.6064V27.6356H63.1034V25.1387Z" fill="#2A3886"/>
<path d="M70.3759 25.1387H67.8789V27.6356H70.3759V25.1387Z" fill="#2A3886"/>
<path d="M72.8002 25.1387H70.3032V27.6356H72.8002V25.1387Z" fill="#2A3886"/>
<path d="M75.2245 25.1387H72.7275V27.6356H75.2245V25.1387Z" fill="#2A3886"/>
<path d="M9.76992 27.5633H7.27295V30.0603H9.76992V27.5633Z" fill="#2A3886"/>
<path d="M17.0424 27.5633H14.5454V30.0603H17.0424V27.5633Z" fill="#2A3886"/>
<path d="M26.7396 27.5633H24.2427V30.0603H26.7396V27.5633Z" fill="#2A3886"/>
<path d="M31.5878 27.5633H29.0908V30.0603H31.5878V27.5633Z" fill="#2A3886"/>
<path d="M36.4364 27.5633H33.9395V30.0603H36.4364V27.5633Z" fill="#2A3886"/>
<path d="M43.7094 27.5633H41.2124V30.0603H43.7094V27.5633Z" fill="#2A3886"/>
<path d="M46.1337 27.5633H43.6367V30.0603H46.1337V27.5633Z" fill="#2A3886"/>
<path d="M48.5575 27.5633H46.0605V30.0603H48.5575V27.5633Z" fill="#2A3886"/>
<path d="M58.2548 27.5633H55.7578V30.0603H58.2548V27.5633Z" fill="#2A3886"/>
<path d="M65.5272 27.5633H63.0303V30.0603H65.5272V27.5633Z" fill="#2A3886"/>
<path d="M67.9516 27.5633H65.4546V30.0603H67.9516V27.5633Z" fill="#2A3886"/>
<path d="M75.2245 27.5633H72.7275V30.0603H75.2245V27.5633Z" fill="#2A3886"/>
<path d="M7.3456 29.9875H4.84863V32.4845H7.3456V29.9875Z" fill="#2A3886"/>
<path d="M19.4667 29.9875H16.9697V32.4845H19.4667V29.9875Z" fill="#2A3886"/>
<path d="M21.891 29.9875H19.394V32.4845H21.891V29.9875Z" fill="#2A3886"/>
<path d="M29.164 29.9875H26.667V32.4845H29.164V29.9875Z" fill="#2A3886"/>
<path d="M31.5878 29.9875H29.0908V32.4845H31.5878V29.9875Z" fill="#2A3886"/>
<path d="M38.8607 29.9875H36.3638V32.4845H38.8607V29.9875Z" fill="#2A3886"/>
<path d="M41.2851 29.9875H38.7881V32.4845H41.2851V29.9875Z" fill="#2A3886"/>
<path d="M43.7094 29.9875H41.2124V32.4845H43.7094V29.9875Z" fill="#2A3886"/>
<path d="M46.1337 29.9875H43.6367V32.4845H46.1337V29.9875Z" fill="#2A3886"/>
<path d="M48.5575 29.9875H46.0605V32.4845H48.5575V29.9875Z" fill="#2A3886"/>
<path d="M55.8305 29.9875H53.3335V32.4845H55.8305V29.9875Z" fill="#2A3886"/>
<path d="M58.2548 29.9875H55.7578V32.4845H58.2548V29.9875Z" fill="#2A3886"/>
<path d="M60.6791 29.9875H58.1821V32.4845H60.6791V29.9875Z" fill="#2A3886"/>
<path d="M63.1034 29.9875H60.6064V32.4845H63.1034V29.9875Z" fill="#2A3886"/>
<path d="M70.3759 29.9875H67.8789V32.4845H70.3759V29.9875Z" fill="#2A3886"/>
<path d="M7.3456 32.4121H4.84863V34.9091H7.3456V32.4121Z" fill="#2A3886"/>
<path d="M12.1942 32.4121H9.69727V34.9091H12.1942V32.4121Z" fill="#2A3886"/>
<path d="M14.6186 32.4121H12.1216V34.9091H14.6186V32.4121Z" fill="#2A3886"/>
<path d="M17.0424 32.4121H14.5454V34.9091H17.0424V32.4121Z" fill="#2A3886"/>
<path d="M19.4667 32.4121H16.9697V34.9091H19.4667V32.4121Z" fill="#2A3886"/>
<path d="M29.164 32.4121H26.667V34.9091H29.164V32.4121Z" fill="#2A3886"/>
<path d="M31.5878 32.4121H29.0908V34.9091H31.5878V32.4121Z" fill="#2A3886"/>
<path d="M34.0121 32.4121H31.5151V34.9091H34.0121V32.4121Z" fill="#2A3886"/>
<path d="M36.4364 32.4121H33.9395V34.9091H36.4364V32.4121Z" fill="#2A3886"/>
<path d="M43.7094 32.4121H41.2124V34.9091H43.7094V32.4121Z" fill="#2A3886"/>
<path d="M48.5575 32.4121H46.0605V34.9091H48.5575V32.4121Z" fill="#2A3886"/>
<path d="M58.2548 32.4121H55.7578V34.9091H58.2548V32.4121Z" fill="#2A3886"/>
<path d="M60.6791 32.4121H58.1821V34.9091H60.6791V32.4121Z" fill="#2A3886"/>
<path d="M63.1034 32.4121H60.6064V34.9091H63.1034V32.4121Z" fill="#2A3886"/>
<path d="M72.8002 32.4121H70.3032V34.9091H72.8002V32.4121Z" fill="#2A3886"/>
<path d="M7.3456 34.836H4.84863V37.333H7.3456V34.836Z" fill="#2A3886"/>
<path d="M9.76992 34.836H7.27295V37.333H9.76992V34.836Z" fill="#2A3886"/>
<path d="M14.6186 34.836H12.1216V37.333H14.6186V34.836Z" fill="#2A3886"/>
<path d="M17.0424 34.836H14.5454V37.333H17.0424V34.836Z" fill="#2A3886"/>
<path d="M19.4667 34.836H16.9697V37.333H19.4667V34.836Z" fill="#2A3886"/>
<path d="M21.891 34.836H19.394V37.333H21.891V34.836Z" fill="#2A3886"/>
<path d="M24.3153 34.836H21.8184V37.333H24.3153V34.836Z" fill="#2A3886"/>
<path d="M26.7396 34.836H24.2427V37.333H26.7396V34.836Z" fill="#2A3886"/>
<path d="M31.5878 34.836H29.0908V37.333H31.5878V34.836Z" fill="#2A3886"/>
<path d="M34.0121 34.836H31.5151V37.333H34.0121V34.836Z" fill="#2A3886"/>
<path d="M38.8607 34.836H36.3638V37.333H38.8607V34.836Z" fill="#2A3886"/>
<path d="M43.7094 34.836H41.2124V37.333H43.7094V34.836Z" fill="#2A3886"/>
<path d="M46.1337 34.836H43.6367V37.333H46.1337V34.836Z" fill="#2A3886"/>
<path d="M58.2548 34.836H55.7578V37.333H58.2548V34.836Z" fill="#2A3886"/>
<path d="M63.1034 34.836H60.6064V37.333H63.1034V34.836Z" fill="#2A3886"/>
<path d="M70.3759 34.836H67.8789V37.333H70.3759V34.836Z" fill="#2A3886"/>
<path d="M72.8002 34.836H70.3032V37.333H72.8002V34.836Z" fill="#2A3886"/>
<path d="M75.2245 34.836H72.7275V37.333H75.2245V34.836Z" fill="#2A3886"/>
<path d="M7.3456 37.2607H4.84863V39.7577H7.3456V37.2607Z" fill="#2A3886"/>
<path d="M9.76992 37.2607H7.27295V39.7577H9.76992V37.2607Z" fill="#2A3886"/>
<path d="M14.6186 37.2607H12.1216V39.7577H14.6186V37.2607Z" fill="#2A3886"/>
<path d="M19.4667 37.2607H16.9697V39.7577H19.4667V37.2607Z" fill="#2A3886"/>
<path d="M26.7396 37.2607H24.2427V39.7577H26.7396V37.2607Z" fill="#2A3886"/>
<path d="M31.5878 37.2607H29.0908V39.7577H31.5878V37.2607Z" fill="#2A3886"/>
<path d="M34.0121 37.2607H31.5151V39.7577H34.0121V37.2607Z" fill="#2A3886"/>
<path d="M38.8607 37.2607H36.3638V39.7577H38.8607V37.2607Z" fill="#2A3886"/>
<path d="M41.2851 37.2607H38.7881V39.7577H41.2851V37.2607Z" fill="#2A3886"/>
<path d="M43.7094 37.2607H41.2124V39.7577H43.7094V37.2607Z" fill="#2A3886"/>
<path d="M48.5575 37.2607H46.0605V39.7577H48.5575V37.2607Z" fill="#2A3886"/>
<path d="M53.4061 37.2607H50.9092V39.7577H53.4061V37.2607Z" fill="#2A3886"/>
<path d="M55.8305 37.2607H53.3335V39.7577H55.8305V37.2607Z" fill="#2A3886"/>
<path d="M58.2548 37.2607H55.7578V39.7577H58.2548V37.2607Z" fill="#2A3886"/>
<path d="M60.6791 37.2607H58.1821V39.7577H60.6791V37.2607Z" fill="#2A3886"/>
<path d="M65.5272 37.2607H63.0303V39.7577H65.5272V37.2607Z" fill="#2A3886"/>
<path d="M67.9516 37.2607H65.4546V39.7577H67.9516V37.2607Z" fill="#2A3886"/>
<path d="M75.2245 37.2607H72.7275V39.7577H75.2245V37.2607Z" fill="#2A3886"/>
<path d="M7.3456 39.6845H4.84863V42.1815H7.3456V39.6845Z" fill="#2A3886"/>
<path d="M9.76992 39.6845H7.27295V42.1815H9.76992V39.6845Z" fill="#2A3886"/>
<path d="M21.891 39.6845H19.394V42.1815H21.891V39.6845Z" fill="#2A3886"/>
<path d="M24.3153 39.6845H21.8184V42.1815H24.3153V39.6845Z" fill="#2A3886"/>
<path d="M26.7396 39.6845H24.2427V42.1815H26.7396V39.6845Z" fill="#2A3886"/>
<path d="M34.0121 39.6845H31.5151V42.1815H34.0121V39.6845Z" fill="#2A3886"/>
<path d="M38.8607 39.6845H36.3638V42.1815H38.8607V39.6845Z" fill="#2A3886"/>
<path d="M41.2851 39.6845H38.7881V42.1815H41.2851V39.6845Z" fill="#2A3886"/>
<path d="M43.7094 39.6845H41.2124V42.1815H43.7094V39.6845Z" fill="#2A3886"/>
<path d="M55.8305 39.6845H53.3335V42.1815H55.8305V39.6845Z" fill="#2A3886"/>
<path d="M60.6791 39.6845H58.1821V42.1815H60.6791V39.6845Z" fill="#2A3886"/>
<path d="M63.1034 39.6845H60.6064V42.1815H63.1034V39.6845Z" fill="#2A3886"/>
<path d="M12.1942 42.1084H9.69727V44.6054H12.1942V42.1084Z" fill="#2A3886"/>
<path d="M14.6186 42.1084H12.1216V44.6054H14.6186V42.1084Z" fill="#2A3886"/>
<path d="M17.0424 42.1084H14.5454V44.6054H17.0424V42.1084Z" fill="#2A3886"/>
<path d="M19.4667 42.1084H16.9697V44.6054H19.4667V42.1084Z" fill="#2A3886"/>
<path d="M41.2851 42.1084H38.7881V44.6054H41.2851V42.1084Z" fill="#2A3886"/>
<path d="M48.5575 42.1084H46.0605V44.6054H48.5575V42.1084Z" fill="#2A3886"/>
<path d="M50.9818 42.1084H48.4849V44.6054H50.9818V42.1084Z" fill="#2A3886"/>
<path d="M55.8305 42.1084H53.3335V44.6054H55.8305V42.1084Z" fill="#2A3886"/>
<path d="M58.2548 42.1084H55.7578V44.6054H58.2548V42.1084Z" fill="#2A3886"/>
<path d="M60.6791 42.1084H58.1821V44.6054H60.6791V42.1084Z" fill="#2A3886"/>
<path d="M65.5272 42.1084H63.0303V44.6054H65.5272V42.1084Z" fill="#2A3886"/>
<path d="M67.9516 42.1084H65.4546V44.6054H67.9516V42.1084Z" fill="#2A3886"/>
<path d="M75.2245 42.1084H72.7275V44.6054H75.2245V42.1084Z" fill="#2A3886"/>
<path d="M17.0424 44.533H14.5454V47.03H17.0424V44.533Z" fill="#2A3886"/>
<path d="M19.4667 44.533H16.9697V47.03H19.4667V44.533Z" fill="#2A3886"/>
<path d="M21.891 44.533H19.394V47.03H21.891V44.533Z" fill="#2A3886"/>
<path d="M26.7396 44.533H24.2427V47.03H26.7396V44.533Z" fill="#2A3886"/>
<path d="M29.164 44.533H26.667V47.03H29.164V44.533Z" fill="#2A3886"/>
<path d="M31.5878 44.533H29.0908V47.03H31.5878V44.533Z" fill="#2A3886"/>
<path d="M41.2851 44.533H38.7881V47.03H41.2851V44.533Z" fill="#2A3886"/>
<path d="M43.7094 44.533H41.2124V47.03H43.7094V44.533Z" fill="#2A3886"/>
<path d="M50.9818 44.533H48.4849V47.03H50.9818V44.533Z" fill="#2A3886"/>
<path d="M60.6791 44.533H58.1821V47.03H60.6791V44.533Z" fill="#2A3886"/>
<path d="M67.9516 44.533H65.4546V47.03H67.9516V44.533Z" fill="#2A3886"/>
<path d="M70.3759 44.533H67.8789V47.03H70.3759V44.533Z" fill="#2A3886"/>
<path d="M75.2245 44.533H72.7275V47.03H75.2245V44.533Z" fill="#2A3886"/>
<path d="M7.3456 46.9572H4.84863V49.4542H7.3456V46.9572Z" fill="#2A3886"/>
<path d="M9.76992 46.9572H7.27295V49.4542H9.76992V46.9572Z" fill="#2A3886"/>
<path d="M12.1942 46.9572H9.69727V49.4542H12.1942V46.9572Z" fill="#2A3886"/>
<path d="M14.6186 46.9572H12.1216V49.4542H14.6186V46.9572Z" fill="#2A3886"/>
<path d="M34.0121 46.9572H31.5151V49.4542H34.0121V46.9572Z" fill="#2A3886"/>
<path d="M38.8607 46.9572H36.3638V49.4542H38.8607V46.9572Z" fill="#2A3886"/>
<path d="M41.2851 46.9572H38.7881V49.4542H41.2851V46.9572Z" fill="#2A3886"/>
<path d="M43.7094 46.9572H41.2124V49.4542H43.7094V46.9572Z" fill="#2A3886"/>
<path d="M50.9818 46.9572H48.4849V49.4542H50.9818V46.9572Z" fill="#2A3886"/>
<path d="M55.8305 46.9572H53.3335V49.4542H55.8305V46.9572Z" fill="#2A3886"/>
<path d="M58.2548 46.9572H55.7578V49.4542H58.2548V46.9572Z" fill="#2A3886"/>
<path d="M65.5272 46.9572H63.0303V49.4542H65.5272V46.9572Z" fill="#2A3886"/>
<path d="M67.9516 46.9572H65.4546V49.4542H67.9516V46.9572Z" fill="#2A3886"/>
<path d="M70.3759 46.9572H67.8789V49.4542H70.3759V46.9572Z" fill="#2A3886"/>
<path d="M72.8002 46.9572H70.3032V49.4542H72.8002V46.9572Z" fill="#2A3886"/>
<path d="M75.2245 46.9572H72.7275V49.4542H75.2245V46.9572Z" fill="#2A3886"/>
<path d="M7.3456 49.3818H4.84863V51.8788H7.3456V49.3818Z" fill="#2A3886"/>
<path d="M17.0424 49.3818H14.5454V51.8788H17.0424V49.3818Z" fill="#2A3886"/>
<path d="M19.4667 49.3818H16.9697V51.8788H19.4667V49.3818Z" fill="#2A3886"/>
<path d="M21.891 49.3818H19.394V51.8788H21.891V49.3818Z" fill="#2A3886"/>
<path d="M24.3153 49.3818H21.8184V51.8788H24.3153V49.3818Z" fill="#2A3886"/>
<path d="M26.7396 49.3818H24.2427V51.8788H26.7396V49.3818Z" fill="#2A3886"/>
<path d="M29.164 49.3818H26.667V51.8788H29.164V49.3818Z" fill="#2A3886"/>
<path d="M34.0121 49.3818H31.5151V51.8788H34.0121V49.3818Z" fill="#2A3886"/>
<path d="M36.4364 49.3818H33.9395V51.8788H36.4364V49.3818Z" fill="#2A3886"/>
<path d="M38.8607 49.3818H36.3638V51.8788H38.8607V49.3818Z" fill="#2A3886"/>
<path d="M48.5575 49.3818H46.0605V51.8788H48.5575V49.3818Z" fill="#2A3886"/>
<path d="M50.9818 49.3818H48.4849V51.8788H50.9818V49.3818Z" fill="#2A3886"/>
<path d="M53.4061 49.3818H50.9092V51.8788H53.4061V49.3818Z" fill="#2A3886"/>
<path d="M60.6791 49.3818H58.1821V51.8788H60.6791V49.3818Z" fill="#2A3886"/>
<path d="M63.1034 49.3818H60.6064V51.8788H63.1034V49.3818Z" fill="#2A3886"/>
<path d="M65.5272 49.3818H63.0303V51.8788H65.5272V49.3818Z" fill="#2A3886"/>
<path d="M70.3759 49.3818H67.8789V51.8788H70.3759V49.3818Z" fill="#2A3886"/>
<path d="M7.3456 51.8057H4.84863V54.3027H7.3456V51.8057Z" fill="#2A3886"/>
<path d="M12.1942 51.8057H9.69727V54.3027H12.1942V51.8057Z" fill="#2A3886"/>
<path d="M19.4667 51.8057H16.9697V54.3027H19.4667V51.8057Z" fill="#2A3886"/>
<path d="M29.164 51.8057H26.667V54.3027H29.164V51.8057Z" fill="#2A3886"/>
<path d="M31.5878 51.8057H29.0908V54.3027H31.5878V51.8057Z" fill="#2A3886"/>
<path d="M38.8607 51.8057H36.3638V54.3027H38.8607V51.8057Z" fill="#2A3886"/>
<path d="M41.2851 51.8057H38.7881V54.3027H41.2851V51.8057Z" fill="#2A3886"/>
<path d="M43.7094 51.8057H41.2124V54.3027H43.7094V51.8057Z" fill="#2A3886"/>
<path d="M46.1337 51.8057H43.6367V54.3027H46.1337V51.8057Z" fill="#2A3886"/>
<path d="M53.4061 51.8057H50.9092V54.3027H53.4061V51.8057Z" fill="#2A3886"/>
<path d="M55.8305 51.8057H53.3335V54.3027H55.8305V51.8057Z" fill="#2A3886"/>
<path d="M60.6791 51.8057H58.1821V54.3027H60.6791V51.8057Z" fill="#2A3886"/>
<path d="M65.5272 51.8057H63.0303V54.3027H65.5272V51.8057Z" fill="#2A3886"/>
<path d="M67.9516 51.8057H65.4546V54.3027H67.9516V51.8057Z" fill="#2A3886"/>
<path d="M72.8002 51.8057H70.3032V54.3027H72.8002V51.8057Z" fill="#2A3886"/>
<path d="M75.2245 51.8057H72.7275V54.3027H75.2245V51.8057Z" fill="#2A3886"/>
<path d="M7.3456 54.2295H4.84863V56.7265H7.3456V54.2295Z" fill="#2A3886"/>
<path d="M14.6186 54.2295H12.1216V56.7265H14.6186V54.2295Z" fill="#2A3886"/>
<path d="M17.0424 54.2295H14.5454V56.7265H17.0424V54.2295Z" fill="#2A3886"/>
<path d="M21.891 54.2295H19.394V56.7265H21.891V54.2295Z" fill="#2A3886"/>
<path d="M24.3153 54.2295H21.8184V56.7265H24.3153V54.2295Z" fill="#2A3886"/>
<path d="M31.5878 54.2295H29.0908V56.7265H31.5878V54.2295Z" fill="#2A3886"/>
<path d="M34.0121 54.2295H31.5151V56.7265H34.0121V54.2295Z" fill="#2A3886"/>
<path d="M36.4364 54.2295H33.9395V56.7265H36.4364V54.2295Z" fill="#2A3886"/>
<path d="M46.1337 54.2295H43.6367V56.7265H46.1337V54.2295Z" fill="#2A3886"/>
<path d="M53.4061 54.2295H50.9092V56.7265H53.4061V54.2295Z" fill="#2A3886"/>
<path d="M55.8305 54.2295H53.3335V56.7265H55.8305V54.2295Z" fill="#2A3886"/>
<path d="M58.2548 54.2295H55.7578V56.7265H58.2548V54.2295Z" fill="#2A3886"/>
<path d="M60.6791 54.2295H58.1821V56.7265H60.6791V54.2295Z" fill="#2A3886"/>
<path d="M63.1034 54.2295H60.6064V56.7265H63.1034V54.2295Z" fill="#2A3886"/>
<path d="M65.5272 54.2295H63.0303V56.7265H65.5272V54.2295Z" fill="#2A3886"/>
<path d="M67.9516 54.2295H65.4546V56.7265H67.9516V54.2295Z" fill="#2A3886"/>
<path d="M70.3759 54.2295H67.8789V56.7265H70.3759V54.2295Z" fill="#2A3886"/>
<path d="M72.8002 54.2295H70.3032V56.7265H72.8002V54.2295Z" fill="#2A3886"/>
<path d="M26.7396 56.6542H24.2427V59.1511H26.7396V56.6542Z" fill="#2A3886"/>
<path d="M29.164 56.6542H26.667V59.1511H29.164V56.6542Z" fill="#2A3886"/>
<path d="M41.2851 56.6542H38.7881V59.1511H41.2851V56.6542Z" fill="#2A3886"/>
<path d="M46.1337 56.6542H43.6367V59.1511H46.1337V56.6542Z" fill="#2A3886"/>
<path d="M50.9818 56.6542H48.4849V59.1511H50.9818V56.6542Z" fill="#2A3886"/>
<path d="M55.8305 56.6542H53.3335V59.1511H55.8305V56.6542Z" fill="#2A3886"/>
<path d="M65.5272 56.6542H63.0303V59.1511H65.5272V56.6542Z" fill="#2A3886"/>
<path d="M67.9516 56.6542H65.4546V59.1511H67.9516V56.6542Z" fill="#2A3886"/>
<path d="M72.8002 56.6542H70.3032V59.1511H72.8002V56.6542Z" fill="#2A3886"/>
<path d="M75.2245 56.6542H72.7275V59.1511H75.2245V56.6542Z" fill="#2A3886"/>
<path d="M34.0121 59.0781H31.5151V61.5751H34.0121V59.0781Z" fill="#2A3886"/>
<path d="M38.8607 59.0781H36.3638V61.5751H38.8607V59.0781Z" fill="#2A3886"/>
<path d="M53.4061 59.0781H50.9092V61.5751H53.4061V59.0781Z" fill="#2A3886"/>
<path d="M55.8305 59.0781H53.3335V61.5751H55.8305V59.0781Z" fill="#2A3886"/>
<path d="M60.6791 59.0781H58.1821V61.5751H60.6791V59.0781Z" fill="#2A3886"/>
<path d="M65.5272 59.0781H63.0303V61.5751H65.5272V59.0781Z" fill="#2A3886"/>
<path d="M29.164 61.5027H26.667V63.9997H29.164V61.5027Z" fill="#2A3886"/>
<path d="M34.0121 61.5027H31.5151V63.9997H34.0121V61.5027Z" fill="#2A3886"/>
<path d="M36.4364 61.5027H33.9395V63.9997H36.4364V61.5027Z" fill="#2A3886"/>
<path d="M46.1337 61.5027H43.6367V63.9997H46.1337V61.5027Z" fill="#2A3886"/>
<path d="M48.5575 61.5027H46.0605V63.9997H48.5575V61.5027Z" fill="#2A3886"/>
<path d="M50.9818 61.5027H48.4849V63.9997H50.9818V61.5027Z" fill="#2A3886"/>
<path d="M53.4061 61.5027H50.9092V63.9997H53.4061V61.5027Z" fill="#2A3886"/>
<path d="M55.8305 61.5027H53.3335V63.9997H55.8305V61.5027Z" fill="#2A3886"/>
<path d="M65.5272 61.5027H63.0303V63.9997H65.5272V61.5027Z" fill="#2A3886"/>
<path d="M67.9516 61.5027H65.4546V63.9997H67.9516V61.5027Z" fill="#2A3886"/>
<path d="M75.2245 61.5027H72.7275V63.9997H75.2245V61.5027Z" fill="#2A3886"/>
<path d="M26.7396 63.9269H24.2427V66.4239H26.7396V63.9269Z" fill="#2A3886"/>
<path d="M31.5878 63.9269H29.0908V66.4239H31.5878V63.9269Z" fill="#2A3886"/>
<path d="M55.8305 63.9269H53.3335V66.4239H55.8305V63.9269Z" fill="#2A3886"/>
<path d="M58.2548 63.9269H55.7578V66.4239H58.2548V63.9269Z" fill="#2A3886"/>
<path d="M60.6791 63.9269H58.1821V66.4239H60.6791V63.9269Z" fill="#2A3886"/>
<path d="M63.1034 63.9269H60.6064V66.4239H63.1034V63.9269Z" fill="#2A3886"/>
<path d="M65.5272 63.9269H63.0303V66.4239H65.5272V63.9269Z" fill="#2A3886"/>
<path d="M67.9516 63.9269H65.4546V66.4239H67.9516V63.9269Z" fill="#2A3886"/>
<path d="M70.3759 63.9269H67.8789V66.4239H70.3759V63.9269Z" fill="#2A3886"/>
<path d="M26.7396 66.3516H24.2427V68.8485H26.7396V66.3516Z" fill="#2A3886"/>
<path d="M34.0121 66.3516H31.5151V68.8485H34.0121V66.3516Z" fill="#2A3886"/>
<path d="M36.4364 66.3516H33.9395V68.8485H36.4364V66.3516Z" fill="#2A3886"/>
<path d="M41.2851 66.3516H38.7881V68.8485H41.2851V66.3516Z" fill="#2A3886"/>
<path d="M46.1337 66.3516H43.6367V68.8485H46.1337V66.3516Z" fill="#2A3886"/>
<path d="M48.5575 66.3516H46.0605V68.8485H48.5575V66.3516Z" fill="#2A3886"/>
<path d="M53.4061 66.3516H50.9092V68.8485H53.4061V66.3516Z" fill="#2A3886"/>
<path d="M55.8305 66.3516H53.3335V68.8485H55.8305V66.3516Z" fill="#2A3886"/>
<path d="M58.2548 66.3516H55.7578V68.8485H58.2548V66.3516Z" fill="#2A3886"/>
<path d="M63.1034 66.3516H60.6064V68.8485H63.1034V66.3516Z" fill="#2A3886"/>
<path d="M26.7396 68.7755H24.2427V71.2724H26.7396V68.7755Z" fill="#2A3886"/>
<path d="M38.8607 68.7755H36.3638V71.2724H38.8607V68.7755Z" fill="#2A3886"/>
<path d="M50.9818 68.7755H48.4849V71.2724H50.9818V68.7755Z" fill="#2A3886"/>
<path d="M53.4061 68.7755H50.9092V71.2724H53.4061V68.7755Z" fill="#2A3886"/>
<path d="M55.8305 68.7755H53.3335V71.2724H55.8305V68.7755Z" fill="#2A3886"/>
<path d="M58.2548 68.7755H55.7578V71.2724H58.2548V68.7755Z" fill="#2A3886"/>
<path d="M60.6791 68.7755H58.1821V71.2724H60.6791V68.7755Z" fill="#2A3886"/>
<path d="M63.1034 68.7755H60.6064V71.2724H63.1034V68.7755Z" fill="#2A3886"/>
<path d="M65.5272 68.7755H63.0303V71.2724H65.5272V68.7755Z" fill="#2A3886"/>
<path d="M67.9516 68.7755H65.4546V71.2724H67.9516V68.7755Z" fill="#2A3886"/>
<path d="M70.3759 68.7755H67.8789V71.2724H70.3759V68.7755Z" fill="#2A3886"/>
<path d="M72.8002 68.7755H70.3032V71.2724H72.8002V68.7755Z" fill="#2A3886"/>
<path d="M41.2851 71.1992H38.7881V73.6962H41.2851V71.1992Z" fill="#2A3886"/>
<path d="M53.4061 71.1992H50.9092V73.6962H53.4061V71.1992Z" fill="#2A3886"/>
<path d="M58.2548 71.1992H55.7578V73.6962H58.2548V71.1992Z" fill="#2A3886"/>
<path d="M65.5272 71.1992H63.0303V73.6962H65.5272V71.1992Z" fill="#2A3886"/>
<path d="M67.9516 71.1992H65.4546V73.6962H67.9516V71.1992Z" fill="#2A3886"/>
<path d="M72.8002 71.1992H70.3032V73.6962H72.8002V71.1992Z" fill="#2A3886"/>
<path d="M43.7094 73.6239H41.2124V76.1209H43.7094V73.6239Z" fill="#2A3886"/>
<path d="M46.1337 73.6239H43.6367V76.1209H46.1337V73.6239Z" fill="#2A3886"/>
<path d="M48.5575 73.6239H46.0605V76.1209H48.5575V73.6239Z" fill="#2A3886"/>
<path d="M65.5272 73.6239H63.0303V76.1209H65.5272V73.6239Z" fill="#2A3886"/>
<path d="M70.3759 73.6239H67.8789V76.1209H70.3759V73.6239Z" fill="#2A3886"/>
<path d="M10.3032 22.7148H16.485C19.3941 22.7148 21.8183 20.2906 21.8183 17.3815V11.1997C21.8183 8.16936 19.3941 5.74512 16.3638 5.74512H10.182C7.27288 5.74512 4.84863 8.16936 4.84863 11.0785V17.2603C4.84863 20.2906 7.27288 22.7148 10.3032 22.7148ZM19.3941 11.5633V16.8966C19.3941 18.7148 17.8183 20.2906 16.0001 20.2906H10.6668C8.72742 20.2906 7.27288 18.836 7.27288 16.8966V11.5633C7.27288 9.74512 8.84863 8.16936 10.6668 8.16936H16.0001C17.9395 8.16936 19.3941 9.62391 19.3941 11.5633Z" fill="#2A3886"/>
<path d="M63.6367 22.7148H69.8185C72.7276 22.7148 75.1518 20.2906 75.1518 17.3815V11.1997C75.1518 8.16936 72.7276 5.74512 69.6973 5.74512H63.5155C60.6064 5.74512 58.1821 8.16936 58.1821 11.0785V17.2603C58.1821 20.2906 60.6064 22.7148 63.6367 22.7148ZM72.7276 11.5633V16.8966C72.7276 18.7148 71.1518 20.2906 69.3336 20.2906H64.0003C62.0609 20.2906 60.6064 18.836 60.6064 16.8966V11.5633C60.6064 9.74512 62.1821 8.16936 64.0003 8.16936H69.3336C71.273 8.16936 72.7276 9.62391 72.7276 11.5633Z" fill="#2A3886"/>
<path d="M10.3032 76.0478H16.485C19.3941 76.0478 21.8183 73.6236 21.8183 70.7145V64.5327C21.8183 61.5024 19.3941 59.0781 16.3638 59.0781H10.182C7.27288 59.0781 4.84863 61.5024 4.84863 64.4115V70.5933C4.84863 73.6236 7.27288 76.0478 10.3032 76.0478ZM19.3941 64.8963V70.2296C19.3941 72.0478 17.8183 73.6236 16.0001 73.6236H10.6668C8.72742 73.6236 7.27288 72.169 7.27288 70.2296V64.8963C7.27288 63.0781 8.84863 61.5024 10.6668 61.5024H16.0001C17.9395 61.5024 19.3941 62.9569 19.3941 64.8963Z" fill="#2A3886"/>
<path d="M16.97 12.6542V15.927C16.97 16.8967 16.0003 17.8664 14.9094 17.8664H11.7579C10.5458 17.8664 9.69727 17.0179 9.69727 15.8057V12.6542C9.69727 11.5633 10.667 10.5936 11.7579 10.5936H15.0306C16.1215 10.5936 16.97 11.4421 16.97 12.6542Z" fill="#2A3886"/>
<path d="M70.303 12.6542V15.927C70.303 16.8967 69.3333 17.8664 68.2424 17.8664H65.0909C63.8788 17.8664 63.0303 17.0179 63.0303 15.8057V12.6542C63.0303 11.5633 64 10.5936 65.0909 10.5936H68.3636C69.4545 10.5936 70.303 11.4421 70.303 12.6542Z" fill="#2A3886"/>
<path d="M16.97 65.9875V69.2603C16.97 70.23 16.0003 71.1997 14.9094 71.1997H11.7579C10.5458 71.1997 9.69727 70.3512 9.69727 69.1391V65.9875C9.69727 64.8966 10.667 63.9269 11.7579 63.9269H15.0306C16.1215 63.9269 16.97 64.7754 16.97 65.9875Z" fill="#2A3886"/>
</svg>
