<svg width="24" height="25" viewBox="0 0 24 25" fill="none" xmlns="http://www.w3.org/2000/svg">
<path d="M12 15.8966C13.6569 15.8966 15 14.5535 15 12.8966C15 11.2398 13.6569 9.89661 12 9.89661C10.3431 9.89661 9 11.2398 9 12.8966C9 14.5535 10.3431 15.8966 12 15.8966Z" stroke="white" stroke-opacity="0.5" stroke-width="1.5" stroke-miterlimit="10" stroke-linecap="round" stroke-linejoin="round"/>
<path d="M2 13.7766V12.0166C2 10.9766 2.85 10.1166 3.9 10.1166C5.71 10.1166 6.45 8.8366 5.54 7.2666C5.02 6.3666 5.33 5.1966 6.24 4.6766L7.97 3.6866C8.76 3.2166 9.78 3.4966 10.25 4.2866L10.36 4.4766C11.26 6.0466 12.74 6.0466 13.65 4.4766L13.76 4.2866C14.23 3.4966 15.25 3.2166 16.04 3.6866L17.77 4.6766C18.68 5.1966 18.99 6.3666 18.47 7.2666C17.56 8.8366 18.3 10.1166 20.11 10.1166C21.15 10.1166 22.01 10.9666 22.01 12.0166V13.7766C22.01 14.8166 21.16 15.6766 20.11 15.6766C18.3 15.6766 17.56 16.9566 18.47 18.5266C18.99 19.4366 18.68 20.5966 17.77 21.1166L16.04 22.1066C15.25 22.5766 14.23 22.2966 13.76 21.5066L13.65 21.3166C12.75 19.7466 11.27 19.7466 10.36 21.3166L10.25 21.5066C9.78 22.2966 8.76 22.5766 7.97 22.1066L6.24 21.1166C5.33 20.5966 5.02 19.4266 5.54 18.5266C6.45 16.9566 5.71 15.6766 3.9 15.6766C2.85 15.6766 2 14.8166 2 13.7766Z" stroke="white" stroke-opacity="0.5" stroke-width="1.5" stroke-miterlimit="10" stroke-linecap="round" stroke-linejoin="round"/>
</svg>
