<svg width="16" height="17" viewBox="0 0 16 17" fill="none" xmlns="http://www.w3.org/2000/svg">
<path d="M5.3335 4.33337C5.06016 4.33337 4.8335 4.10671 4.8335 3.83337V1.83337C4.8335 1.56004 5.06016 1.33337 5.3335 1.33337C5.60683 1.33337 5.8335 1.56004 5.8335 1.83337V3.83337C5.8335 4.10671 5.60683 4.33337 5.3335 4.33337Z" fill="white"/>
<path d="M10.6665 4.33337C10.3932 4.33337 10.1665 4.10671 10.1665 3.83337V1.83337C10.1665 1.56004 10.3932 1.33337 10.6665 1.33337C10.9398 1.33337 11.1665 1.56004 11.1665 1.83337V3.83337C11.1665 4.10671 10.9398 4.33337 10.6665 4.33337Z" fill="white"/>
<path d="M13.6668 7.05994H2.3335C2.06016 7.05994 1.8335 6.83327 1.8335 6.55994C1.8335 6.2866 2.06016 6.05994 2.3335 6.05994H13.6668C13.9402 6.05994 14.1668 6.2866 14.1668 6.55994C14.1668 6.83327 13.9402 7.05994 13.6668 7.05994Z" fill="white"/>
<path d="M10.6667 15.6667H5.33333C2.9 15.6667 1.5 14.2667 1.5 11.8334V6.16671C1.5 3.73337 2.9 2.33337 5.33333 2.33337H10.6667C13.1 2.33337 14.5 3.73337 14.5 6.16671V11.8334C14.5 14.2667 13.1 15.6667 10.6667 15.6667ZM5.33333 3.33337C3.42667 3.33337 2.5 4.26004 2.5 6.16671V11.8334C2.5 13.74 3.42667 14.6667 5.33333 14.6667H10.6667C12.5733 14.6667 13.5 13.74 13.5 11.8334V6.16671C13.5 4.26004 12.5733 3.33337 10.6667 3.33337H5.33333Z" fill="white"/>
<path d="M5.66667 10.1667C5.58 10.1667 5.49333 10.1467 5.41333 10.1134C5.33333 10.0801 5.26001 10.0334 5.19334 9.97338C5.13334 9.90671 5.08666 9.83339 5.05332 9.75339C5.01999 9.67339 5 9.58672 5 9.50005C5 9.32672 5.07334 9.15339 5.19334 9.02672C5.26001 8.96672 5.33333 8.92004 5.41333 8.88671C5.53333 8.83337 5.66667 8.82004 5.80001 8.84671C5.84001 8.85337 5.88 8.86671 5.92 8.88671C5.96 8.90004 6 8.92006 6.04 8.94672C6.07333 8.97339 6.10666 9.00005 6.13999 9.02672C6.16666 9.06005 6.19999 9.09338 6.21999 9.12672C6.24666 9.16672 6.26668 9.20671 6.28001 9.24671C6.30001 9.28671 6.31334 9.32671 6.32001 9.36671C6.32667 9.41337 6.33333 9.45338 6.33333 9.50005C6.33333 9.67338 6.25999 9.84671 6.13999 9.97338C6.01333 10.0934 5.84 10.1667 5.66667 10.1667Z" fill="white"/>
<path d="M8.00016 10.1667C7.82683 10.1667 7.6535 10.0934 7.52684 9.97337C7.50017 9.94003 7.47351 9.9067 7.44684 9.87337C7.42017 9.83337 7.40015 9.79337 7.38682 9.75337C7.36682 9.71337 7.35349 9.67338 7.34682 9.63338C7.34016 9.58671 7.3335 9.5467 7.3335 9.50004C7.3335 9.41337 7.35349 9.3267 7.38682 9.2467C7.42015 9.1667 7.46684 9.09338 7.52684 9.02671C7.7135 8.84004 8.0135 8.78003 8.2535 8.8867C8.34017 8.92003 8.40682 8.96671 8.47349 9.02671C8.59349 9.15338 8.66683 9.3267 8.66683 9.50004C8.66683 9.5467 8.66017 9.58671 8.6535 9.63338C8.64684 9.67338 8.63351 9.71337 8.61351 9.75337C8.60017 9.79337 8.58015 9.83337 8.55349 9.87337C8.52682 9.9067 8.50016 9.94003 8.47349 9.97337C8.40682 10.0334 8.34017 10.08 8.2535 10.1134C8.1735 10.1467 8.08683 10.1667 8.00016 10.1667Z" fill="white"/>
<path d="M5.66667 12.5C5.58 12.5 5.49333 12.48 5.41333 12.4466C5.33333 12.4133 5.26001 12.3666 5.19334 12.3066C5.13334 12.24 5.08666 12.1733 5.05332 12.0866C5.01999 12.0066 5 11.92 5 11.8333C5 11.66 5.07334 11.4866 5.19334 11.36C5.26001 11.3 5.33333 11.2533 5.41333 11.2199C5.66 11.1133 5.95333 11.1733 6.13999 11.36C6.16666 11.3933 6.19999 11.4266 6.21999 11.46C6.24666 11.5 6.26668 11.54 6.28001 11.58C6.30001 11.62 6.31334 11.66 6.32001 11.7066C6.32667 11.7466 6.33333 11.7933 6.33333 11.8333C6.33333 12.0066 6.25999 12.18 6.13999 12.3066C6.01333 12.4266 5.84 12.5 5.66667 12.5Z" fill="white"/>
</svg>
