<svg width="16" height="16" viewBox="0 0 16 16" fill="none" xmlns="http://www.w3.org/2000/svg">
<g clip-path="url(#clip0_15722_1008)">
<path d="M3.3335 5.67636C3.3335 3.27773 5.42283 1.33327 8.00016 1.33327C10.5775 1.33327 12.6668 3.27773 12.6668 5.67636C12.6668 8.05618 11.1774 10.8332 8.85354 11.8263C8.31181 12.0578 7.68851 12.0578 7.14679 11.8263C4.82294 10.8332 3.3335 8.05618 3.3335 5.67636Z" stroke="#373F48" stroke-width="1.33333"/>
<path d="M9.33317 6.00002C9.33317 6.7364 8.73622 7.33335 7.99984 7.33335C7.26346 7.33335 6.6665 6.7364 6.6665 6.00002C6.6665 5.26364 7.26346 4.66669 7.99984 4.66669C8.73622 4.66669 9.33317 5.26364 9.33317 6.00002Z" stroke="#373F48" stroke-width="1.33333"/>
<path d="M13.9739 10.3333C14.4174 10.7349 14.6668 11.1877 14.6668 11.6666C14.6668 13.3235 11.6821 14.6666 8.00016 14.6666C4.31826 14.6666 1.3335 13.3235 1.3335 11.6666C1.3335 11.1877 1.58291 10.7349 2.02647 10.3333" stroke="#373F48" stroke-width="1.33333" stroke-linecap="round"/>
</g>
<defs>
<clipPath id="clip0_15722_1008">
<rect width="16" height="16" fill="white"/>
</clipPath>
</defs>
</svg>
