<svg width="23" height="25" viewBox="0 0 23 25" fill="none" xmlns="http://www.w3.org/2000/svg">
<path d="M16.2345 11.6748C16.2882 11.3815 16.21 11.0823 16.0197 10.8539C15.831 10.6275 15.5537 10.4977 15.2588 10.4977H8.24102C7.94613 10.4977 7.66877 10.6275 7.4801 10.8539C7.28983 11.0823 7.2115 11.3814 7.26522 11.6746C7.66071 13.8382 9.54677 15.4086 11.7499 15.4086C13.953 15.4086 15.8391 13.8382 16.2345 11.6748ZM11.7499 14.7054C9.88647 14.7054 8.29127 13.3776 7.95686 11.5481C7.94083 11.4606 7.96389 11.3716 8.02024 11.3041C8.05239 11.2655 8.12383 11.2008 8.24102 11.2008H15.2588C15.376 11.2008 15.4474 11.2655 15.4795 11.3041C15.5358 11.3716 15.5589 11.4605 15.5429 11.5482C15.2085 13.3777 13.6133 14.7054 11.7499 14.7054Z" fill="#8C755A"/>
<path d="M5.26804 23.7969H1.67765C1.45354 23.7969 1.27124 23.6148 1.27124 23.3909V17.33C1.27124 17.1059 1.45354 16.9236 1.67765 16.9236H3.34991V17.0931C3.34991 17.7047 3.84749 18.2023 4.45911 18.2023H7.67901C8.29058 18.2023 8.78821 17.7047 8.78821 17.0931V16.9236H11.9458C12.14 16.9236 12.2973 16.7662 12.2973 16.572C12.2973 16.3779 12.14 16.2205 11.9458 16.2205H8.73983C8.56026 15.4876 7.89819 14.9421 7.11083 14.9421H5.02738C4.97099 14.9421 4.91526 14.945 4.86027 14.9505C3.74094 13.4569 3.15032 11.6817 3.15032 9.80277C3.15022 5.06094 7.00799 1.20312 11.7499 1.20312C14.1544 1.20312 16.4657 2.22036 18.0912 3.99397C18.2224 4.13713 18.4448 4.14678 18.5879 4.01562C18.7311 3.88442 18.7408 3.66205 18.6096 3.51889C16.8512 1.60034 14.351 0.5 11.7499 0.5C6.62029 0.5 2.4471 4.67323 2.4471 9.80281C2.4471 11.7572 3.03819 13.6079 4.16038 15.1841C3.78482 15.4118 3.50558 15.7828 3.39829 16.2205H1.67765C1.06583 16.2205 0.568115 16.7182 0.568115 17.33V23.3909C0.568115 24.0025 1.06583 24.5 1.67765 24.5H5.26804C5.46219 24.5 5.6196 24.3426 5.6196 24.1484C5.6196 23.9543 5.46219 23.7969 5.26804 23.7969ZM4.05304 16.6196C4.05304 16.0824 4.4901 15.6453 5.02733 15.6453H7.11079C7.64797 15.6453 8.08504 16.0823 8.08504 16.6196V17.0931C8.08504 17.317 7.90288 17.4992 7.67896 17.4992H4.45907C4.23519 17.4992 4.05299 17.317 4.05299 17.0931V16.6196H4.05304Z" fill="#8C755A"/>
<path d="M21.8222 16.2205H20.1014C19.9941 15.7826 19.7148 15.4116 19.3391 15.1839C20.4614 13.608 21.0526 11.7574 21.0526 9.80283C21.0526 8.05416 20.5647 6.34997 19.6416 4.87448C19.5386 4.70986 19.3217 4.65989 19.1571 4.76292C18.9925 4.86591 18.9426 5.08284 19.0455 5.24742C19.8986 6.61097 20.3495 8.1862 20.3495 9.80283C20.3495 11.682 19.7587 13.4572 18.6391 14.9505C18.5842 14.9451 18.5286 14.9422 18.4724 14.9422H16.3889C15.6015 14.9422 14.9395 15.4876 14.7599 16.2205H13.5862C13.392 16.2205 13.2347 16.3779 13.2347 16.572C13.2347 16.7662 13.392 16.9236 13.5862 16.9236H14.7115V17.0931C14.7115 17.7047 15.2091 18.2023 15.8207 18.2023H19.0406C19.6521 18.2023 20.1497 17.7047 20.1497 17.0931V16.9236H21.8222C22.0462 16.9236 22.2286 17.1059 22.2286 17.33V23.391C22.2286 23.6148 22.0462 23.7969 21.8222 23.7969H6.90857C6.71441 23.7969 6.55701 23.9543 6.55701 24.1485C6.55701 24.3426 6.71441 24.5 6.90857 24.5H21.8222C22.434 24.5 22.9318 24.0025 22.9318 23.391V17.33C22.9317 16.7182 22.434 16.2205 21.8222 16.2205ZM19.4466 17.0931C19.4466 17.317 19.2645 17.4992 19.0406 17.4992H15.8207C15.5969 17.4992 15.4147 17.317 15.4147 17.0931V16.6196C15.4147 16.0824 15.8518 15.6453 16.3889 15.6453H18.4724C19.0096 15.6453 19.4466 16.0823 19.4466 16.6196V17.0931Z" fill="#8C755A"/>
<path d="M10.421 19.6348C10.3577 19.4808 10.2093 19.3815 10.0428 19.3815C10.0427 19.3815 10.0426 19.3815 10.0424 19.3815C9.87583 19.3816 9.72743 19.4814 9.66438 19.6355C9.6633 19.6382 9.66222 19.6409 9.66124 19.6435L8.71076 22.1391C8.64162 22.3206 8.73269 22.5237 8.91415 22.5928C9.0956 22.6619 9.29866 22.5708 9.3678 22.3894L9.51827 21.9943H10.5601L10.7088 22.3884C10.762 22.5292 10.8957 22.6159 11.0378 22.6159C11.079 22.6159 11.121 22.6086 11.1618 22.5932C11.3435 22.5246 11.4352 22.3218 11.3666 22.1401L10.4248 19.6444C10.4236 19.6412 10.4223 19.638 10.421 19.6348ZM9.78607 21.2912L10.0416 20.6203L10.2948 21.2912H9.78607Z" fill="#8C755A"/>
<path d="M12.6629 19.4025C12.5167 19.4488 12.4172 19.5844 12.4172 19.7377V22.2643C12.4172 22.4584 12.5746 22.6158 12.7688 22.6158C12.963 22.6158 13.1204 22.4584 13.1204 22.2643V20.8503L14.2549 22.4663C14.322 22.5618 14.4303 22.6159 14.5427 22.6159C14.578 22.6159 14.6137 22.6105 14.6486 22.5995C14.7948 22.5533 14.8942 22.4176 14.8942 22.2643L14.8941 19.733C14.8941 19.5388 14.7367 19.3814 14.5425 19.3814C14.3483 19.3814 14.191 19.5388 14.191 19.733L14.191 21.1516L13.0566 19.5357C12.9684 19.4103 12.8092 19.3564 12.6629 19.4025Z" fill="#8C755A"/>
<path d="M16.2797 19.3815C16.0855 19.3815 15.9281 19.5389 15.9281 19.733V22.2643C15.9281 22.4584 16.0855 22.6158 16.2797 22.6158C16.4739 22.6158 16.6312 22.4584 16.6312 22.2643V21.6916L17.4871 22.5173C17.5553 22.5831 17.6433 22.6158 17.7311 22.6158C17.8232 22.6158 17.9152 22.5799 17.9841 22.5084C18.1189 22.3687 18.115 22.1461 17.9752 22.0113L16.8734 20.9483L17.8792 20.0238C18.0221 19.8925 18.0315 19.67 17.9001 19.5271C17.7687 19.3841 17.5463 19.3748 17.4033 19.5062L16.6312 20.2159V19.7331C16.6312 19.5389 16.4739 19.3815 16.2797 19.3815Z" fill="#8C755A"/>
<path d="M6.95199 21.3068V22.2643C6.95199 22.4584 7.1094 22.6158 7.30355 22.6158C7.49771 22.6158 7.65511 22.4584 7.65511 22.2643V19.733C7.65511 19.5388 7.49771 19.3814 7.30355 19.3814C7.1094 19.3814 6.95199 19.5388 6.95199 19.733V20.6037H5.90344V19.733C5.90344 19.5388 5.74604 19.3814 5.55188 19.3814C5.35772 19.3814 5.20032 19.5388 5.20032 19.733V22.2643C5.20032 22.4584 5.35772 22.6158 5.55188 22.6158C5.74604 22.6158 5.90344 22.4584 5.90344 22.2643V21.3068H6.95199Z" fill="#8C755A"/>
<path d="M20.3215 21.9127C20.0796 21.9127 19.8473 21.8156 19.6999 21.6529C19.5695 21.509 19.3471 21.4982 19.2032 21.6285C19.0594 21.7589 19.0484 21.9813 19.1788 22.1251C19.4615 22.437 19.8779 22.6158 20.3214 22.6158C20.8719 22.6158 21.3344 22.2632 21.4212 21.7774C21.4866 21.4105 21.3219 20.9318 20.6629 20.6887L20.5502 20.6472C20.2551 20.5387 20.107 20.4842 19.973 20.4112C19.9368 20.3915 19.9211 20.356 19.9263 20.3057C19.9335 20.2355 19.9858 20.1471 20.111 20.1093C20.4481 20.0078 20.7643 20.2553 20.7752 20.2639C20.9238 20.3871 21.1442 20.3673 21.2685 20.2194C21.3935 20.0708 21.3743 19.849 21.2256 19.7241C21.2012 19.7035 20.6175 19.2223 19.9082 19.4361C19.5327 19.5493 19.2652 19.8622 19.2268 20.2333C19.1923 20.5675 19.3493 20.8722 19.6367 21.0287C19.8159 21.1263 19.9905 21.1905 20.3075 21.3071L20.4196 21.3484C20.4997 21.3779 20.7588 21.4873 20.729 21.6538C20.7063 21.7811 20.5476 21.9127 20.3215 21.9127Z" fill="#8C755A"/>
<path d="M3.11272 22.6158C3.30688 22.6158 3.46428 22.4584 3.46428 22.2643V20.0846H3.81449C4.00864 20.0846 4.16605 19.9272 4.16605 19.733C4.16605 19.5389 4.00864 19.3815 3.81449 19.3815H2.41663C2.22247 19.3815 2.06506 19.5389 2.06506 19.733C2.06506 19.9272 2.22247 20.0846 2.41663 20.0846H2.7612V22.2643C2.76116 22.4584 2.91856 22.6158 3.11272 22.6158Z" fill="#8C755A"/>
<path d="M8.07312 7.62699C8.07312 7.14216 8.46757 6.74771 8.9524 6.74771C9.43723 6.74771 9.83168 7.14216 9.83168 7.62699C9.83168 7.82115 9.98909 7.97855 10.1832 7.97855C10.3774 7.97855 10.5348 7.82115 10.5348 7.62699C10.5348 6.75446 9.82493 6.04459 8.9524 6.04459C8.07987 6.04459 7.37 6.75446 7.37 7.62699C7.37 7.82115 7.5274 7.97855 7.72156 7.97855C7.91571 7.97855 8.07312 7.82115 8.07312 7.62699Z" fill="#8C755A"/>
<path d="M13.6681 7.62699C13.6681 7.14216 14.0625 6.74771 14.5474 6.74771C15.0322 6.74771 15.4267 7.14216 15.4267 7.62699C15.4267 7.82115 15.5841 7.97855 15.7783 7.97855C15.9725 7.97855 16.1298 7.82115 16.1298 7.62699C16.1298 6.75446 15.42 6.04459 14.5474 6.04459C13.6749 6.04459 12.965 6.75446 12.965 7.62699C12.965 7.82115 13.1223 7.97855 13.3165 7.97855C13.5107 7.97855 13.6681 7.82115 13.6681 7.62699Z" fill="#8C755A"/>
</svg>
