<svg width="25" height="25" viewBox="0 0 25 25" fill="none" xmlns="http://www.w3.org/2000/svg">
<path d="M21.5446 13.9217H7.52508V14.6248H12.1575L10.4319 17.7859H2.6469L4.37246 14.6248H6.77166V13.9217H3.95522L1.46204 18.489H3.96085V24.5H18.7265V23.7969H13.1015V15.651L14.6507 18.489H20.8359V23.7969H19.4296V24.5H21.539V18.489H24.0378L21.5446 13.9217ZM4.66397 23.7969V18.489H10.8491L12.3983 15.651V23.7969H4.66397ZM13.3424 14.6248H21.1274L22.853 17.7859H15.0679L13.3424 14.6248Z" fill="#8C755A"/>
<path d="M9.19364 7.51142L9.31594 11.0896L12.7567 10.1002L16.1974 11.0896L16.3197 7.51142L18.3239 4.54484L14.9587 3.32286L12.7567 0.5L10.5546 3.32286L7.18945 4.5448L9.19364 7.51142ZM10.9846 3.91475L12.7567 1.64314L14.5288 3.91475L17.2368 4.89809L15.624 7.28544L15.5256 10.1648L12.7568 9.36866L9.98794 10.1648L9.8895 7.28544L8.27672 4.89814L10.9846 3.91475Z" fill="#8C755A"/>
<path d="M23.2969 6.88672C19.8075 6.88672 16.9688 9.72552 16.9688 13.2148H17.6719C17.6719 10.1132 20.1953 7.58984 23.2969 7.58984V6.88672Z" fill="#8C755A"/>
<path d="M19.4297 13.2148C19.4297 11.8579 20.5337 10.7539 21.8906 10.7539V10.0508C20.1459 10.0508 18.7266 11.4702 18.7266 13.2148H19.4297Z" fill="#8C755A"/>
<path d="M7.83154 13.2148H8.53467C8.53467 9.72552 5.69587 6.88672 2.20654 6.88672V7.58984C5.30817 7.58984 7.83154 10.1132 7.83154 13.2148Z" fill="#8C755A"/>
<path d="M3.61279 10.0508V10.7539C4.96973 10.7539 6.07373 11.8579 6.07373 13.2148H6.77686C6.77686 11.4702 5.35748 10.0508 3.61279 10.0508Z" fill="#8C755A"/>
<path d="M23.6798 9.34766C23.0983 9.34766 22.6251 9.82081 22.6251 10.4023C22.6251 10.9839 23.0983 11.457 23.6798 11.457C24.2613 11.457 24.7345 10.9839 24.7345 10.4023C24.7345 9.82081 24.2613 9.34766 23.6798 9.34766ZM23.6798 10.7539C23.4859 10.7539 23.3282 10.5962 23.3282 10.4023C23.3282 10.2085 23.4859 10.0508 23.6798 10.0508C23.8737 10.0508 24.0314 10.2085 24.0314 10.4023C24.0314 10.5962 23.8737 10.7539 23.6798 10.7539Z" fill="#8C755A"/>
<path d="M2.88086 10.4023C2.88086 9.82081 2.4077 9.34766 1.82617 9.34766C1.24464 9.34766 0.771484 9.82081 0.771484 10.4023C0.771484 10.9839 1.24464 11.457 1.82617 11.457C2.4077 11.457 2.88086 10.9839 2.88086 10.4023ZM1.47461 10.4023C1.47461 10.2085 1.6323 10.0508 1.82617 10.0508C2.02005 10.0508 2.17773 10.2085 2.17773 10.4023C2.17773 10.5962 2.02005 10.7539 1.82617 10.7539C1.6323 10.7539 1.47461 10.5962 1.47461 10.4023Z" fill="#8C755A"/>
<path d="M24.0469 6.88672H24.75V7.58984H24.0469V6.88672Z" fill="#8C755A"/>
<path d="M0.75 6.88672H1.45312V7.58984H0.75V6.88672Z" fill="#8C755A"/>
<path d="M5.80335 4.77732L4.31423 3.28824L2.8252 4.77732L4.31427 6.26639L5.80335 4.77732ZM4.31423 4.2826L4.80899 4.77732L4.31423 5.27204L3.81951 4.77732L4.31423 4.2826Z" fill="#8C755A"/>
<path d="M22.6765 4.77732L21.1874 3.28824L19.6984 4.77732L21.1874 6.26639L22.6765 4.77732ZM21.1874 4.2826L21.6822 4.77736L21.1874 5.27204L20.6927 4.77732L21.1874 4.2826Z" fill="#8C755A"/>
<path d="M18.0234 2.60938H18.7266V1.90625H19.4297V1.20312H18.7266V0.5H18.0234V1.20312H17.3203V1.90625H18.0234V2.60938Z" fill="#8C755A"/>
<path d="M7.47656 2.60938H8.17969V1.90625H8.88281V1.20312H8.17969V0.5H7.47656V1.20312H6.77344V1.90625H7.47656V2.60938Z" fill="#8C755A"/>
<path d="M9.93799 5.12891H10.6411V5.83203H9.93799V5.12891Z" fill="#8C755A"/>
<path d="M11.351 5.12891H12.0541V5.83203H11.351V5.12891Z" fill="#8C755A"/>
</svg>
