<svg width="25" height="25" viewBox="0 0 25 25" fill="none" xmlns="http://www.w3.org/2000/svg">
<g clip-path="url(#clip0_1_7753)">
<path d="M16.4688 0.5C16.2099 0.5 16 0.709906 16 0.96875V3.125C16 3.38384 16.2099 3.59375 16.4688 3.59375C16.7276 3.59375 16.9375 3.38384 16.9375 3.125V0.96875C16.9375 0.709906 16.7276 0.5 16.4688 0.5Z" fill="#8C755A"/>
<path d="M5.6875 15.125C5.42875 15.125 5.21875 15.335 5.21875 15.5938C5.21875 15.8525 5.42875 16.0625 5.6875 16.0625C5.94625 16.0625 6.15625 15.8525 6.15625 15.5938C6.15625 15.335 5.94625 15.125 5.6875 15.125Z" fill="#8C755A"/>
<path d="M23.0312 14.1875C23.0312 13.1536 22.1901 12.3125 21.1562 12.3125H17.6569C18.1987 10.9249 18.418 9.29155 18.3757 7.83762C18.3676 7.56017 18.357 7.39972 18.3426 7.2987C18.3183 6.28588 17.4867 5.46875 16.4688 5.46875C15.4349 5.46875 14.5938 6.30988 14.5938 7.34375V7.8125C14.5938 10.7772 10.7868 12.4429 7.91388 13.1571C7.69666 12.6605 7.20081 12.3125 6.625 12.3125H1.9375C1.67866 12.3125 1.46875 12.5224 1.46875 12.7812V24.0312C1.46875 24.2901 1.67866 24.5 1.9375 24.5H6.625C7.19697 24.5 7.68995 24.1565 7.90942 23.6652C8.14731 23.7262 8.36814 23.7839 8.572 23.8371C10.2086 24.2646 11.1102 24.5 13.3028 24.5H18.3438C19.3776 24.5 20.2188 23.6589 20.2188 22.625C20.2188 22.2395 20.1017 21.8809 19.9014 21.5826C20.6255 21.3293 21.1562 20.6375 21.1562 19.8125C21.1562 19.4284 21.0421 19.0686 20.8424 18.769C21.5633 18.5153 22.0938 17.825 22.0938 17C22.0938 16.6145 21.9767 16.2559 21.7764 15.9576C22.5005 15.7043 23.0312 15.0125 23.0312 14.1875ZM7.09375 23.0938C7.09375 23.3522 6.88347 23.5625 6.625 23.5625H2.40625V13.25H6.625C6.88347 13.25 7.09375 13.4603 7.09375 13.7188V23.0938ZM21.1562 15.125C20.1508 15.125 19.9112 15.125 18.8125 15.125C18.5537 15.125 18.3438 15.3349 18.3438 15.5938C18.3438 15.8526 18.5537 16.0625 18.8125 16.0625H20.2188C20.7357 16.0625 21.1562 16.4831 21.1562 17C21.1562 17.5178 20.7365 17.9375 20.2188 17.9375H17.875C17.6162 17.9375 17.4062 18.1474 17.4062 18.4062C17.4062 18.6651 17.6162 18.875 17.875 18.875H19.2812C19.792 18.875 20.2188 19.283 20.2188 19.8125C20.2188 20.3303 19.799 20.75 19.2812 20.75C18.2758 20.75 18.0362 20.75 16.9375 20.75C16.6787 20.75 16.4688 20.9599 16.4688 21.2188C16.4688 21.4776 16.6787 21.6875 16.9375 21.6875H18.3438C18.8607 21.6875 19.2812 22.1081 19.2812 22.625C19.2812 23.1419 18.8607 23.5625 18.3438 23.5625H13.3028C11.2306 23.5625 10.4213 23.3511 8.80891 22.9301C8.5727 22.8684 8.31362 22.8007 8.03125 22.7287V14.0949C11.4235 13.2869 15.5312 11.3146 15.5312 7.8125V7.34375C15.5312 6.82681 15.9518 6.40625 16.4688 6.40625C16.9847 6.40625 17.4053 6.82616 17.4062 7.3423V7.34375C17.4062 7.54747 17.6605 10.0476 16.641 12.3125H15.0625C14.8037 12.3125 14.5938 12.5224 14.5938 12.7812C14.5938 13.0401 14.8037 13.25 15.0625 13.25C15.3898 13.25 20.622 13.25 21.1562 13.25C21.6732 13.25 22.0938 13.6706 22.0938 14.1875C22.0938 14.7053 21.674 15.125 21.1562 15.125Z" fill="#8C755A"/>
<path d="M5.6875 17C5.42866 17 5.21875 17.2099 5.21875 17.4688V21.2188C5.21875 21.4776 5.42866 21.6875 5.6875 21.6875C5.94634 21.6875 6.15625 21.4776 6.15625 21.2188V17.4688C6.15625 17.2099 5.94634 17 5.6875 17Z" fill="#8C755A"/>
<path d="M12.7188 6.40625H10.8438C10.5849 6.40625 10.375 6.61616 10.375 6.875C10.375 7.13384 10.5849 7.34375 10.8438 7.34375H12.7188C12.9776 7.34375 13.1875 7.13384 13.1875 6.875C13.1875 6.61616 12.9776 6.40625 12.7188 6.40625Z" fill="#8C755A"/>
<path d="M22.0938 6.40625H20.2188C19.9599 6.40625 19.75 6.61616 19.75 6.875C19.75 7.13384 19.9599 7.34375 20.2188 7.34375H22.0938C22.3526 7.34375 22.5625 7.13384 22.5625 6.875C22.5625 6.61616 22.3526 6.40625 22.0938 6.40625Z" fill="#8C755A"/>
<path d="M20.7775 2.56621C20.5945 2.38321 20.2977 2.38321 20.1146 2.56621L18.789 3.89178C18.606 4.07483 18.606 4.37164 18.789 4.55474C18.9722 4.73778 19.2688 4.73774 19.452 4.55474L20.7775 3.22916C20.9606 3.04611 20.9606 2.7493 20.7775 2.56621Z" fill="#8C755A"/>
<path d="M14.1485 3.89178L12.8229 2.56621C12.6398 2.38321 12.3431 2.38321 12.16 2.56621C11.9769 2.74925 11.9769 3.04606 12.16 3.22916L13.4856 4.55474C13.6688 4.73778 13.9654 4.73774 14.1485 4.55474C14.3316 4.37169 14.3316 4.07488 14.1485 3.89178Z" fill="#8C755A"/>
</g>
<defs>
<clipPath id="clip0_1_7753">
<rect width="24" height="24" fill="white" transform="translate(0.25 0.5)"/>
</clipPath>
</defs>
</svg>
