<svg width="25" height="25" viewBox="0 0 25 25" fill="none" xmlns="http://www.w3.org/2000/svg">
<path d="M3.65006 20.525C3.80766 20.525 3.95953 20.5714 4.08923 20.659C4.25011 20.7678 4.46864 20.7254 4.57739 20.5646C4.68609 20.4037 4.64381 20.1851 4.48294 20.0765C4.23652 19.9099 3.94852 19.8219 3.65006 19.8219C2.82895 19.8219 2.16094 20.4899 2.16094 21.311C2.16094 22.1321 2.82895 22.8001 3.65006 22.8001C3.98016 22.8001 4.27692 22.6912 4.50816 22.4853C4.5533 22.4451 4.59628 22.4007 4.63598 22.3535C4.76081 22.2047 4.74145 21.983 4.59272 21.8582C4.44403 21.7333 4.22227 21.7528 4.09744 21.9014C4.07958 21.9227 4.06041 21.9425 4.04058 21.9602C3.93862 22.051 3.80723 22.097 3.65006 22.097C3.21666 22.097 2.86406 21.7445 2.86406 21.311C2.86406 20.8775 3.21666 20.525 3.65006 20.525ZM22.3029 22.097C22.0954 22.097 21.8964 22.0141 21.7706 21.8753C21.6402 21.7314 21.4179 21.7205 21.274 21.8509C21.1301 21.9813 21.1192 22.2036 21.2496 22.3475C21.5103 22.6352 21.8942 22.8002 22.3029 22.8002C22.7855 22.8002 23.2417 22.492 23.3264 22.0173C23.3878 21.6733 23.235 21.2253 22.6221 20.9992C22.3545 20.9004 22.1044 20.7931 22.0157 20.7545C21.9891 20.7291 21.9868 20.6972 21.9902 20.6734C21.9985 20.6155 22.0473 20.569 22.124 20.5459C22.4083 20.4599 22.6785 20.6706 22.6883 20.6784C22.837 20.8012 23.0571 20.7815 23.1814 20.6336C23.3063 20.485 23.2871 20.2632 23.1385 20.1383C22.9328 19.9654 22.4451 19.7149 21.9212 19.8726C21.5819 19.9749 21.3416 20.2434 21.2942 20.5735C21.2496 20.8848 21.3846 21.1842 21.6466 21.3551C21.6622 21.3653 21.6784 21.3741 21.6954 21.3817C21.7087 21.3876 22.0239 21.5279 22.3788 21.6589C22.5137 21.7086 22.6516 21.7964 22.6343 21.8937C22.6196 21.9757 22.5042 22.097 22.3029 22.097ZM19.9366 22.8001C20.1308 22.8001 20.2882 22.6428 20.2882 22.4486V20.525H20.5674C20.7616 20.525 20.919 20.3677 20.919 20.1735C20.919 19.9793 20.7616 19.8219 20.5674 19.8219H19.311C19.1168 19.8219 18.9594 19.9793 18.9594 20.1735C18.9594 20.3677 19.1168 20.525 19.311 20.525H19.5851V22.4486C19.5851 22.6428 19.7425 22.8001 19.9366 22.8001ZM18.2737 20.0718C18.2113 19.92 18.0649 19.8219 17.9008 19.8219H17.9004C17.7361 19.8221 17.5898 19.9204 17.5276 20.0725C17.5266 20.0751 17.5255 20.0778 17.5245 20.0804L16.6702 22.3235C16.6011 22.5049 16.6922 22.708 16.8736 22.7772C17.0551 22.8463 17.2582 22.7552 17.3273 22.5737L17.4538 22.2416H18.3411L18.4661 22.5727C18.5353 22.7566 18.7413 22.8446 18.9191 22.7775C19.1008 22.709 19.1925 22.5061 19.1239 22.3244L18.2774 20.0813C18.2762 20.0781 18.275 20.075 18.2737 20.0718ZM17.7217 21.5384L17.8995 21.0713L18.0758 21.5384H17.7217ZM12.5258 20.525C12.6834 20.525 12.8353 20.5714 12.965 20.659C13.1259 20.7678 13.3444 20.7254 13.4531 20.5646C13.5618 20.4037 13.5195 20.1851 13.3587 20.0765C13.1122 19.9099 12.8243 19.8219 12.5258 19.8219C11.7047 19.8219 11.0367 20.4899 11.0367 21.311C11.0367 22.1321 11.7047 22.8001 12.5258 22.8001C13.311 22.8001 13.8593 22.1878 13.8593 21.311C13.8593 21.1168 13.7019 20.9594 13.5078 20.9594H12.8272C12.633 20.9594 12.4756 21.1168 12.4756 21.311C12.4756 21.5052 12.633 21.6626 12.8272 21.6626H13.1033C13.0231 21.9056 12.845 22.097 12.5258 22.097C12.0924 22.097 11.7398 21.7445 11.7398 21.311C11.7398 20.8775 12.0924 20.525 12.5258 20.525ZM4.92853 21.311C4.92853 22.1322 5.59655 22.8002 6.41766 22.8002C7.23877 22.8002 7.90678 22.1322 7.90678 21.311C7.90678 20.4899 7.23877 19.8219 6.41766 19.8219C5.59655 19.8219 4.92853 20.4899 4.92853 21.311ZM7.20366 21.311C7.20366 21.7445 6.85106 22.097 6.41766 22.097C5.98425 22.097 5.63166 21.7445 5.63166 21.311C5.63166 20.8776 5.98425 20.525 6.41766 20.525C6.85106 20.525 7.20366 20.8776 7.20366 21.311ZM23.9297 18.1221H21.0009C20.8068 18.1221 20.6494 18.2795 20.6494 18.4737C20.6494 18.6679 20.8068 18.8252 21.0009 18.8252H23.9297C23.9943 18.8252 24.0469 18.8778 24.0469 18.9424V23.6797C24.0469 23.7443 23.9943 23.7969 23.9297 23.7969H1.57031C1.50572 23.7969 1.45312 23.7443 1.45312 23.6797V18.9424C1.45312 18.8778 1.50572 18.8252 1.57031 18.8252H19.3603C19.5545 18.8252 19.7119 18.6679 19.7119 18.4737C19.7119 18.2795 19.5545 18.1221 19.3603 18.1221H16.8952V16.2821C16.8952 15.7005 16.4221 15.2274 15.8405 15.2274H14.7178V14.1724C15.1269 14.0272 15.4207 13.6364 15.4207 13.1782C15.4207 12.72 15.1269 12.3293 14.7178 12.1841V10.6862C15.7192 10.2103 16.5224 9.38323 16.9674 8.36502L18.3673 7.93231C19.3117 7.64038 19.9463 6.78017 19.9463 5.79172V3.85156C19.9463 3.55433 19.7045 3.3125 19.4072 3.3125H17.3504V2.54891C17.7596 2.40378 18.0535 2.01298 18.0535 1.55469C18.0535 0.973156 17.5804 0.5 16.9988 0.5H8.5012C7.91962 0.5 7.44652 0.973156 7.44652 1.55469C7.44652 2.01298 7.74047 2.40378 8.14969 2.54891V3.3125H6.09281C5.79558 3.3125 5.55375 3.55433 5.55375 3.85156V5.79172C5.55375 6.78017 6.1883 7.64037 7.13273 7.93227L8.53261 8.36502C8.97769 9.38323 9.78089 10.2103 10.7822 10.6862V12.1841C10.3732 12.3293 10.0793 12.72 10.0793 13.1782C10.0793 13.6364 10.3732 14.0272 10.7822 14.1724V15.2274H9.65953C9.07795 15.2274 8.60484 15.7005 8.60484 16.2821V18.1221H1.57031C1.11802 18.1221 0.75 18.4901 0.75 18.9424V23.6797C0.75 24.132 1.11802 24.5 1.57031 24.5H23.9297C24.382 24.5 24.75 24.132 24.75 23.6797V18.9424C24.75 18.4901 24.382 18.1221 23.9297 18.1221ZM19.2431 4.01562V5.79172C19.2431 6.47 18.8077 7.06025 18.1596 7.26055L17.2368 7.54583C17.311 7.2185 17.3503 6.87805 17.3503 6.52859V4.01562H19.2431ZM7.34034 7.2605C6.6923 7.06025 6.25688 6.47 6.25688 5.79172V4.01562H8.14969V6.52859C8.14969 6.87805 8.18906 7.21845 8.26322 7.54578L7.34034 7.2605ZM8.85281 6.52859V2.60938H10.6666C10.8608 2.60938 11.0182 2.45202 11.0182 2.25781C11.0182 2.06361 10.8608 1.90625 10.6666 1.90625H8.5012C8.30733 1.90625 8.14964 1.74856 8.14964 1.55469C8.14964 1.36081 8.30733 1.20312 8.5012 1.20312H16.9988C17.1927 1.20312 17.3504 1.36081 17.3504 1.55469C17.3504 1.74856 17.1927 1.90625 16.9988 1.90625H12.3073C12.1131 1.90625 11.9557 2.06361 11.9557 2.25781C11.9557 2.45202 12.1131 2.60938 12.3073 2.60938H16.6472V6.52859C16.6472 8.67753 14.8989 10.4258 12.75 10.4258C10.6011 10.4258 8.85281 8.67753 8.85281 6.52859ZM11.134 13.5298C10.9401 13.5298 10.7824 13.3721 10.7824 13.1782C10.7824 12.9845 10.9398 12.827 11.1334 12.8267H11.1337C11.1341 12.8267 11.1344 12.8266 11.1346 12.8266H14.3653C14.3656 12.8266 14.3659 12.8267 14.3662 12.8267H14.3665C14.5601 12.827 14.7175 12.9845 14.7175 13.1782C14.7175 13.3721 14.5598 13.5298 14.366 13.5298H11.134ZM14.0147 14.2329V15.2274H11.4853V14.2329H14.0147ZM11.4853 12.1235V10.9521C11.8873 11.0672 12.3115 11.1289 12.75 11.1289C13.1885 11.1289 13.6127 11.0672 14.0147 10.9521V12.1235H11.4853ZM9.30792 16.2821C9.30792 16.0882 9.46561 15.9305 9.65948 15.9305H15.8405C16.0343 15.9305 16.192 16.0882 16.192 16.2821V18.1221H9.30792V16.2821ZM16.2012 20.7647C16.2012 20.2448 15.7632 19.8219 15.2249 19.8219H14.6203C14.6202 19.8219 14.6201 19.8219 14.6199 19.8219C14.6198 19.8219 14.6197 19.8219 14.6196 19.8219C14.4254 19.8219 14.268 19.9793 14.268 20.1735V22.4486C14.268 22.6428 14.4254 22.8001 14.6196 22.8001C14.8137 22.8001 14.9711 22.6428 14.9711 22.4486V21.9825L15.5857 22.6808C15.7144 22.827 15.9367 22.8403 16.0819 22.7125C16.2276 22.5842 16.2418 22.362 16.1135 22.2163L15.6015 21.6345C15.9533 21.4918 16.2012 21.1558 16.2012 20.7647ZM15.2249 21.0045C15.1646 21.0045 15.0704 21.0048 14.9741 21.0053C14.9721 20.8007 14.9744 20.7364 14.9729 20.5251H15.2249C15.3704 20.5251 15.498 20.6371 15.498 20.7648C15.498 20.8925 15.3704 21.0045 15.2249 21.0045ZM9.9075 20.1735V21.3586L8.95406 19.978C8.86664 19.8514 8.70708 19.7964 8.56017 19.8421C8.41327 19.8879 8.31323 20.0239 8.31323 20.1777V22.4486C8.31323 22.6428 8.47064 22.8001 8.6648 22.8001C8.85895 22.8001 9.01636 22.6428 9.01636 22.4486V21.3055L9.91111 22.6011C10.0118 22.7465 10.1807 22.808 10.3415 22.7577C10.505 22.7066 10.6107 22.5552 10.6107 22.3719V20.1735C10.6107 19.9793 10.4533 19.822 10.2591 19.822C10.065 19.822 9.9075 19.9793 9.9075 20.1735Z" fill="#8C755A"/>
</svg>
