<svg width="30" height="30" viewBox="0 0 30 30" fill="none" xmlns="http://www.w3.org/2000/svg">
<path opacity="0.4" d="M15 27.5C21.9036 27.5 27.5 21.9036 27.5 15C27.5 8.09644 21.9036 2.5 15 2.5C8.09644 2.5 2.5 8.09644 2.5 15C2.5 21.9036 8.09644 27.5 15 27.5Z" fill="#BDCD5C"/>
<path d="M16.5749 20.35C16.3374 20.35 16.0999 20.2625 15.9124 20.075L11.4999 15.6625C11.1374 15.3 11.1374 14.7 11.4999 14.3375L15.9124 9.92501C16.2749 9.56251 16.8749 9.56251 17.2374 9.92501C17.5999 10.2875 17.5999 10.8875 17.2374 11.25L13.4874 15L17.2374 18.75C17.5999 19.1125 17.5999 19.7125 17.2374 20.075C17.0624 20.2625 16.8249 20.35 16.5749 20.35Z" fill="#BDCD5C"/>
</svg>
