<svg width="52" height="60" viewBox="0 0 52 60" fill="none" xmlns="http://www.w3.org/2000/svg">
<path d="M46.2922 38.0828C46.3857 37.5857 46.5984 37.2169 46.9822 36.8875L49.9247 34.3623C51.2301 33.2421 51.7051 31.4694 51.1347 29.8465L49.8491 26.188C49.6814 25.711 49.6814 25.2853 49.8491 24.8081L51.1347 21.1498C51.7051 19.5269 51.2301 17.7543 49.9247 16.6339L46.9822 14.1088C46.5984 13.7791 46.3855 13.4105 46.2922 12.9134L45.5764 9.10244C45.2589 7.41165 43.9613 6.1141 42.2706 5.79657L38.4598 5.08078C37.9625 4.9873 37.5938 4.77445 37.2645 4.39073L34.739 1.44811C33.6187 0.142576 31.8461 -0.332432 30.2232 0.237989L26.5649 1.52356C26.5649 1.52356 26.5649 1.52369 26.5647 1.52369C26.0878 1.69147 25.6621 1.69173 25.1848 1.52356L21.5265 0.237989C19.9036 -0.332175 18.1311 0.142704 17.0106 1.44811L14.4853 4.39061C14.1558 4.77445 13.7872 4.98742 13.29 5.08065L9.47914 5.79657C7.78848 6.1141 6.4908 7.41165 6.17327 9.10231L5.45748 12.9132C5.36399 13.4103 5.15128 13.7791 4.76743 14.1085L1.82493 16.6337C0.519532 17.754 0.0445238 19.5266 0.614945 21.1495L1.90052 24.808C2.0683 25.285 2.0683 25.7107 1.90052 26.1879L0.614945 29.8462C0.0445238 31.4693 0.519532 33.2418 1.82493 34.3619L4.7673 36.8872C5.15128 37.2169 5.36412 37.5855 5.45748 38.0826L6.17327 41.8934C6.23121 42.2018 6.32251 42.4967 6.442 42.7755L0.639024 52.8266C0.449484 53.1548 0.455536 53.5605 0.654862 53.8831C0.854188 54.2057 1.21434 54.3936 1.59264 54.3698L7.64542 54.0084L10.3587 59.4309C10.5283 59.7698 10.8704 59.9882 11.2492 59.9995C11.2595 59.9999 11.2699 60 11.2802 60C11.6473 60 11.9878 59.8041 12.1721 59.4849L17.589 50.1026C18.322 50.6845 19.2194 50.9957 20.1414 50.9957C20.6031 50.9956 21.0709 50.9179 21.5267 50.7578L25.1852 49.4721C25.6624 49.3045 26.0881 49.3043 26.5651 49.4721L30.2234 50.7575C31.5896 51.2377 33.0605 50.9746 34.1605 50.1013L39.5782 59.4849C39.7626 59.8041 40.103 60 40.4701 60C40.4805 60 40.4908 59.9999 40.5011 59.9995C40.8799 59.9882 41.2219 59.7698 41.3916 59.4309L44.1049 54.0084L50.1575 54.3698C50.5361 54.393 50.8961 54.2055 51.0953 53.8831C51.2945 53.5605 51.3006 53.1548 51.1111 52.8266L45.3082 42.7755C45.4277 42.4968 45.519 42.202 45.5769 41.8937L46.2922 38.0828ZM11.3447 56.7975L9.18363 52.4787C8.99924 52.1102 8.61385 51.8878 8.20103 51.9115L3.38027 52.1993L7.82762 44.4964C8.30855 44.8399 8.86764 45.0846 9.47927 45.1994L13.2903 45.9154C13.7876 46.0088 14.1562 46.2217 14.4856 46.6053L16.1259 48.5166L11.3447 56.7975ZM43.5488 51.9115C43.1356 51.8855 42.7505 52.1099 42.5662 52.4787L40.4051 56.7975L35.6241 48.5166L37.2645 46.6054C37.594 46.2216 37.9626 46.0086 38.4598 45.9154L42.2706 45.1994C42.8823 45.0846 43.4414 44.8399 43.9224 44.4964L48.3698 52.1994L43.5488 51.9115ZM44.2674 37.7024L43.5516 41.5136C43.3895 42.3763 42.753 43.0129 41.8903 43.1748L38.0794 43.8907C37.1303 44.0689 36.3302 44.5308 35.701 45.2637L33.1757 48.2063C32.604 48.8725 31.7345 49.1059 30.9063 48.8143L27.2478 47.5288C26.3367 47.2087 25.4127 47.209 24.5017 47.5289L20.8435 48.8145C20.0152 49.1056 19.1457 48.8724 18.5739 48.2063L16.0486 45.2636C15.4198 44.531 14.6196 44.069 13.6705 43.8907L9.85938 43.1748C8.99666 43.0128 8.36019 42.3762 8.19807 41.5135L7.48241 37.7026C7.3042 36.7536 6.8422 35.9533 6.10928 35.3242L3.16665 32.7987C2.50055 32.2272 2.26762 31.3576 2.55863 30.5294L3.8442 26.8713C4.16443 25.9601 4.16443 25.036 3.8442 24.125L2.55863 20.4667C2.26762 19.6385 2.50055 18.769 3.16665 18.1973L6.10915 15.6721C6.84207 15.0431 7.30407 14.2428 7.48228 13.2936L8.19807 9.48255C8.36006 8.61996 8.99679 7.98336 9.85951 7.82137L13.6704 7.10545C14.6195 6.92724 15.4195 6.46537 16.0488 5.73245L18.5739 2.78982C18.983 2.3134 19.5444 2.05844 20.1339 2.05844C20.3685 2.05844 20.6078 2.09875 20.8434 2.18167L24.5016 3.46712C25.4127 3.78748 26.3367 3.78735 27.2478 3.46724L30.9061 2.18167C31.7339 1.89028 32.6039 2.1236 33.1756 2.78982L35.7009 5.73232C36.3298 6.46511 37.1299 6.92711 38.0791 7.10545L41.8902 7.82125C42.7529 7.98336 43.3893 8.61984 43.5515 9.48255L44.2673 13.2936C44.4455 14.2425 44.9073 15.0427 45.6404 15.6721L48.583 18.1974C49.2491 18.769 49.482 19.6385 49.191 20.4667L47.9055 24.1249C47.5852 25.036 47.5852 25.9601 47.9055 26.8711L49.191 30.5294C49.482 31.3576 49.2491 32.2272 48.5829 32.7989L45.6403 35.3242C44.9077 35.9531 44.4457 36.7531 44.2674 37.7024ZM25.8748 8.23303C16.355 8.23303 8.60986 15.978 8.60986 25.498C8.60986 35.0179 16.3548 42.7628 25.8748 42.7628C35.3948 42.7628 43.1398 35.0179 43.1398 25.498C43.1398 15.9781 35.3947 8.23303 25.8748 8.23303ZM25.8748 40.7026C17.4909 40.7026 10.6701 33.8818 10.6701 25.498C10.6701 17.1141 17.4909 10.2932 25.8748 10.2932C34.2587 10.2932 41.0796 17.1141 41.0796 25.498C41.0796 33.8819 34.2587 40.7026 25.8748 40.7026ZM34.4225 21.4678L30.4009 20.2255C30.3231 20.2015 30.285 20.1739 30.2381 20.1073L27.8137 16.6664C27.3633 16.0272 26.6567 15.6605 25.8748 15.6605C25.0931 15.6605 24.3863 16.0271 23.9359 16.6664L21.5114 20.1075C21.4647 20.1739 21.4266 20.2015 21.3488 20.2255L17.3271 21.4678C16.5802 21.6987 16.0131 22.2575 15.7715 23.001C15.53 23.7446 15.6602 24.5301 16.1289 25.1559L18.6521 28.5247C18.7009 28.59 18.7156 28.6347 18.7143 28.7162L18.6531 32.9249C18.6418 33.7067 18.9981 34.4187 19.6307 34.8784C20.2633 35.338 21.0505 35.4568 21.7903 35.2042L25.7741 33.8455C25.8513 33.8193 25.8983 33.8193 25.9754 33.8455L29.9591 35.2042C30.2143 35.2914 30.475 35.3342 30.7333 35.3342C31.2237 35.3342 31.7045 35.1795 32.1189 34.8783C32.7516 34.4187 33.1078 33.7065 33.0964 32.9249L33.0352 28.7163C33.0341 28.6347 33.0486 28.59 33.0974 28.5248L35.6208 25.1557C36.0895 24.53 36.2197 23.7445 35.978 23.001C35.7366 22.2575 35.1695 21.6987 34.4225 21.4678ZM33.9719 23.9209L31.4486 27.29C31.1268 27.7196 30.9677 28.2095 30.9754 28.7463L31.0366 32.9552C31.0382 33.0699 31.001 33.1444 30.9082 33.2117C30.8153 33.2792 30.7331 33.2917 30.6244 33.2546L26.6406 31.8959C26.1325 31.7225 25.6173 31.7225 25.1092 31.8959L21.1254 33.2546C21.0167 33.2917 20.9344 33.2792 20.8417 33.2118C20.7488 33.1444 20.7115 33.0698 20.7132 32.9551L20.7744 28.7462C20.7821 28.2095 20.623 27.7196 20.3012 27.2899L17.7779 23.9209C17.709 23.829 17.6954 23.7469 17.7309 23.6379C17.7665 23.5286 17.8257 23.4701 17.9353 23.4364L21.9569 22.1941C22.4699 22.0357 22.8867 21.7327 23.1958 21.294L25.6201 17.8532C25.6863 17.7593 25.7601 17.721 25.875 17.721C25.9898 17.721 26.0636 17.7593 26.1298 17.8531L28.5543 21.2941C28.8634 21.7328 29.2802 22.0357 29.793 22.1941L33.8145 23.4364C33.9242 23.4702 33.9834 23.5287 34.019 23.6379C34.0543 23.7471 34.0407 23.829 33.9719 23.9209Z" fill="#2A3886"/>
</svg>
