<svg width="80" height="57" viewBox="0 0 80 57" fill="none" xmlns="http://www.w3.org/2000/svg">
<g filter="url(#filter0_d_1_6399)">
<rect x="20" y="16.9375" width="40" height="16" rx="8" fill="#2A3886"/>
</g>
<rect x="42.3752" y="14.0625" width="21.875" height="21.875" rx="10.9375" fill="#BDCD5C"/>
<path fill-rule="evenodd" clip-rule="evenodd" d="M53.0451 21.2333C51.0845 21.3705 49.5366 23.0045 49.5366 25C49.5366 27.0855 51.2272 28.776 53.3127 28.776C54.9834 28.776 56.401 27.6907 56.8985 26.1868C56.5156 26.345 56.0961 26.4323 55.6564 26.4323C53.8586 26.4323 52.4012 24.9749 52.4012 23.1771C52.4012 22.4484 52.6408 21.7756 53.0451 21.2333ZM48.7554 25C48.7554 22.4831 50.7957 20.4427 53.3127 20.4427C53.5468 20.4427 53.7771 20.4604 54.0022 20.4946C54.1579 20.5183 54.2842 20.6331 54.3225 20.7859C54.3608 20.9386 54.3035 21.0995 54.1774 21.1937C53.5727 21.6455 53.1825 22.3657 53.1825 23.1771C53.1825 24.5434 54.2901 25.651 55.6564 25.651C56.2472 25.651 56.7886 25.4445 57.214 25.0993C57.3362 25.0001 57.5061 24.984 57.6448 25.0584C57.7835 25.1328 57.864 25.2832 57.849 25.4399C57.6274 27.7506 55.6813 29.5573 53.3127 29.5573C50.7957 29.5573 48.7554 27.5169 48.7554 25Z" fill="#2A3886"/>
<defs>
<filter id="filter0_d_1_6399" x="0" y="0.937515" width="80" height="56" filterUnits="userSpaceOnUse" color-interpolation-filters="sRGB">
<feFlood flood-opacity="0" result="BackgroundImageFix"/>
<feColorMatrix in="SourceAlpha" type="matrix" values="0 0 0 0 0 0 0 0 0 0 0 0 0 0 0 0 0 0 127 0" result="hardAlpha"/>
<feOffset dy="4"/>
<feGaussianBlur stdDeviation="10"/>
<feComposite in2="hardAlpha" operator="out"/>
<feColorMatrix type="matrix" values="0 0 0 0 0 0 0 0 0 0 0 0 0 0 0 0 0 0 0.1 0"/>
<feBlend mode="normal" in2="BackgroundImageFix" result="effect1_dropShadow_1_6399"/>
<feBlend mode="normal" in="SourceGraphic" in2="effect1_dropShadow_1_6399" result="shape"/>
</filter>
</defs>
</svg>
