<svg width="36" height="36" viewBox="0 0 36 36" fill="none" xmlns="http://www.w3.org/2000/svg">
<path d="M33 16.6049V24.9749C33 29.3999 29.4 32.9999 24.975 32.9999H11.025C6.6 32.9999 3 29.3999 3 24.9749V14.1599H32.61C32.835 14.8349 32.955 15.5249 32.985 16.2599C33 16.3649 33 16.4999 33 16.6049Z" fill="#85BAFF"/>
<path opacity="0.4" d="M32.61 14.16H3V9.63C3 5.97 5.97 3 9.63 3H13.125C15.57 3 16.335 3.795 17.31 5.1L19.41 7.89C19.875 8.505 19.935 8.595 20.805 8.595H24.99C28.545 8.58 31.575 10.92 32.61 14.16Z" fill="#85BAFF"/>
</svg>
