<svg width="16" height="16" viewBox="0 0 16 16" fill="none" xmlns="http://www.w3.org/2000/svg">
<path d="M7.83332 0.534668C8.12097 0.534668 8.35415 0.767853 8.35415 1.0555V1.74995C8.35415 2.03759 8.12097 2.27078 7.83332 2.27078C7.54567 2.27078 7.31249 2.03759 7.31249 1.74995V1.0555C7.31249 0.767853 7.54567 0.534668 7.83332 0.534668Z" fill="#BDCD5C"/>
<path fill-rule="evenodd" clip-rule="evenodd" d="M3.84026 7.99995C3.84026 5.79464 5.62802 4.00689 7.83332 4.00689C10.0386 4.00689 11.8264 5.79464 11.8264 7.99995C11.8264 10.2052 10.0386 11.993 7.83332 11.993C5.62802 11.993 3.84026 10.2052 3.84026 7.99995ZM7.83332 5.04856C6.20331 5.04856 4.88193 6.36994 4.88193 7.99995C4.88193 9.62995 6.20331 10.9513 7.83332 10.9513C9.46333 10.9513 10.7847 9.62995 10.7847 7.99995C10.7847 6.36994 9.46333 5.04856 7.83332 5.04856Z" fill="#BDCD5C"/>
<path d="M3.29115 2.72121C3.08775 2.51781 2.75798 2.51781 2.55458 2.72121C2.35118 2.92461 2.35118 3.25438 2.55458 3.45778L3.04563 3.94883C3.24903 4.15223 3.5788 4.15223 3.7822 3.94883C3.98559 3.74543 3.98559 3.41566 3.7822 3.21226L3.29115 2.72121Z" fill="#BDCD5C"/>
<path d="M15.2986 7.99995C15.2986 8.28759 15.0654 8.52078 14.7778 8.52078H14.0833C13.7957 8.52078 13.5625 8.28759 13.5625 7.99995C13.5625 7.7123 13.7957 7.47911 14.0833 7.47911H14.7778C15.0654 7.47911 15.2986 7.7123 15.2986 7.99995Z" fill="#BDCD5C"/>
<path d="M13.1121 3.45778C13.3154 3.25438 13.3154 2.92461 13.1121 2.72121C12.9087 2.51781 12.5789 2.51781 12.3755 2.72121L11.8844 3.21225C11.681 3.41565 11.681 3.74542 11.8844 3.94882C12.0878 4.15222 12.4176 4.15222 12.621 3.94882L13.1121 3.45778Z" fill="#BDCD5C"/>
<path d="M7.83332 13.7291C8.12097 13.7291 8.35415 13.9623 8.35415 14.2499V14.9444C8.35415 15.232 8.12097 15.4652 7.83332 15.4652C7.54567 15.4652 7.31249 15.232 7.31249 14.9444V14.2499C7.31249 13.9623 7.54567 13.7291 7.83332 13.7291Z" fill="#BDCD5C"/>
<path d="M12.6211 12.0511C12.4177 11.8477 12.0879 11.8477 11.8845 12.0511C11.6811 12.2545 11.6811 12.5842 11.8845 12.7876L12.3755 13.2787C12.5789 13.4821 12.9087 13.4821 13.1121 13.2787C13.3155 13.0753 13.3155 12.7455 13.1121 12.5421L12.6211 12.0511Z" fill="#BDCD5C"/>
<path d="M2.10415 7.99995C2.10415 8.28759 1.87097 8.52078 1.58332 8.52078H0.888875C0.601227 8.52078 0.368042 8.28759 0.368042 7.99995C0.368042 7.7123 0.601227 7.47911 0.888875 7.47911H1.58332C1.87097 7.47911 2.10415 7.7123 2.10415 7.99995Z" fill="#BDCD5C"/>
<path d="M3.78215 12.7876C3.98555 12.5842 3.98555 12.2545 3.78215 12.0511C3.57875 11.8477 3.24898 11.8477 3.04558 12.0511L2.55453 12.5421C2.35114 12.7455 2.35114 13.0753 2.55453 13.2787C2.75793 13.4821 3.08771 13.4821 3.2911 13.2787L3.78215 12.7876Z" fill="#BDCD5C"/>
</svg>
