<svg width="49" height="48" viewBox="0 0 49 48" fill="none" xmlns="http://www.w3.org/2000/svg">
<path d="M10.2148 40.56L13.7549 43.3C14.2149 43.76 15.2348 43.9799 15.9348 43.9799H20.2748C21.6548 43.9799 23.1349 42.96 23.4749 41.58L26.2148 33.2399C26.7948 31.6399 25.7549 30.26 24.0349 30.26H19.4548C18.7748 30.26 18.1948 29.6798 18.3148 28.8798L18.8949 25.2199C19.1149 24.1999 18.4348 23.0399 17.4148 22.6999C16.4948 22.3599 15.3549 22.82 14.8949 23.5L10.2148 30.4799" stroke="#BDCD5C" stroke-width="1.5" stroke-miterlimit="10"/>
<path d="M4.375 40.5601V29.3601C4.375 27.7601 5.055 27.1799 6.655 27.1799H7.795C9.395 27.1799 10.075 27.7601 10.075 29.3601V40.5601C10.075 42.1601 9.395 42.74 7.795 42.74H6.655C5.055 42.74 4.375 42.1801 4.375 40.5601Z" stroke="#BDCD5C" stroke-width="1.5" stroke-linecap="round" stroke-linejoin="round"/>
<path d="M38.5351 7.43994L34.9951 4.69995C34.5351 4.23995 33.5151 4.02002 32.8151 4.02002H28.4751C27.0951 4.02002 25.6151 5.03992 25.2751 6.41992L22.5351 14.76C21.9551 16.36 22.9951 17.74 24.7151 17.74H29.2951C29.9751 17.74 30.5551 18.3201 30.4351 19.1201L29.8551 22.78C29.6351 23.8 30.3151 24.96 31.3351 25.3C32.2551 25.64 33.3951 25.18 33.8551 24.5L38.5351 17.52" stroke="#BDCD5C" stroke-width="1.5" stroke-miterlimit="10"/>
<path d="M44.3753 7.43994V18.6399C44.3753 20.2399 43.6953 20.8201 42.0953 20.8201H40.9553C39.3553 20.8201 38.6753 20.2399 38.6753 18.6399V7.43994C38.6753 5.83994 39.3553 5.26001 40.9553 5.26001H42.0953C43.6953 5.26001 44.3753 5.81994 44.3753 7.43994Z" stroke="#BDCD5C" stroke-width="1.5" stroke-linecap="round" stroke-linejoin="round"/>
</svg>
