<svg width="49" height="48" viewBox="0 0 49 48" fill="none" xmlns="http://www.w3.org/2000/svg">
<path d="M17.875 38H16.875C8.875 38 4.875 36 4.875 26V16C4.875 8 8.875 4 16.875 4H32.875C40.875 4 44.875 8 44.875 16V26C44.875 34 40.875 38 32.875 38H31.875C31.255 38 30.655 38.3 30.275 38.8L27.275 42.8C25.955 44.56 23.795 44.56 22.475 42.8L19.475 38.8C19.155 38.36 18.415 38 17.875 38Z" stroke="#BDCD5C" stroke-width="1.5" stroke-miterlimit="10" stroke-linecap="round" stroke-linejoin="round"/>
<path d="M32.8679 22H32.8859" stroke="#BDCD5C" stroke-width="2" stroke-linecap="round" stroke-linejoin="round"/>
<path d="M24.866 22H24.8839" stroke="#BDCD5C" stroke-width="2" stroke-linecap="round" stroke-linejoin="round"/>
<path d="M16.864 22H16.882" stroke="#0F1822" stroke-width="2" stroke-linecap="round" stroke-linejoin="round"/>
</svg>
