<svg width="13" height="14" viewBox="0 0 13 14" fill="none" xmlns="http://www.w3.org/2000/svg">
<path fill-rule="evenodd" clip-rule="evenodd" d="M6.0451 3.2333C4.08451 3.37055 2.53662 5.00451 2.53662 7.00001C2.53662 9.08545 4.22721 10.776 6.31266 10.776C7.98343 10.776 9.40104 9.69073 9.89851 8.18681C9.51565 8.34498 9.09606 8.4323 8.65641 8.4323C6.85861 8.4323 5.40121 6.97489 5.40121 5.17709C5.40121 4.44837 5.64085 3.77557 6.0451 3.2333ZM1.75537 7.00001C1.75537 4.48308 3.79574 2.44271 6.31266 2.44271C6.54684 2.44271 6.77713 2.46041 7.00222 2.4946C7.15793 2.51825 7.28421 2.6331 7.32248 2.78587C7.36075 2.93865 7.30353 3.09946 7.17736 3.19373C6.57268 3.6455 6.18246 4.36567 6.18246 5.17709C6.18246 6.54342 7.29008 7.65105 8.65641 7.65105C9.24716 7.65105 9.7886 7.44448 10.214 7.0993C10.3362 7.00011 10.5061 6.98398 10.6448 7.05839C10.7835 7.1328 10.864 7.2832 10.849 7.4399C10.6274 9.75063 8.68126 11.5573 6.31266 11.5573C3.79574 11.5573 1.75537 9.51693 1.75537 7.00001Z" fill="#2A3886"/>
</svg>
