<svg width="26" height="26" viewBox="0 0 26 26" fill="none" xmlns="http://www.w3.org/2000/svg">
<path d="M8.7739 13.8015C8.7739 13.8015 7.56142 11.8745 7.79631 10.6787C8.03121 9.48288 13.081 5.57468 13.081 5.57468C13.081 5.57468 18.1299 9.48203 18.3653 10.6787C18.6006 11.8754 17.3872 13.8015 17.3872 13.8015H8.7739Z" stroke="white" stroke-width="1.5" stroke-linecap="round" stroke-linejoin="round"/>
<path d="M17.4019 13.8018V21.283" stroke="white" stroke-width="1.5" stroke-linecap="round" stroke-linejoin="round"/>
<path d="M8.76465 21.283V13.8018" stroke="white" stroke-width="1.5" stroke-linecap="round" stroke-linejoin="round"/>
<path d="M15.1964 22.6431V17.85H11.0537V22.6418" stroke="white" stroke-width="1.5" stroke-linecap="round" stroke-linejoin="round"/>
<path d="M21.4243 16.4373L24.8618 12.9998L21.4243 9.56265V4.70077H16.5628L13.1248 1.26321L9.68726 4.70077H4.82624V9.56265L1.38867 12.9998L4.82624 16.4373V21.2988H9.68726L13.1248 24.7368L16.5628 21.2988H21.4243V16.4373Z" stroke="white" stroke-width="1.5" stroke-linecap="round" stroke-linejoin="round"/>
</svg>
