<svg width="49" height="48" viewBox="0 0 49 48" fill="none" xmlns="http://www.w3.org/2000/svg">
<path d="M11.5852 36.98V31.14C11.5852 29.2 13.1052 27.46 15.2652 27.46C17.2052 27.46 18.9452 28.98 18.9452 31.14V36.76C18.9452 40.66 15.7051 43.9 11.8051 43.9C7.90515 43.9 4.66513 40.64 4.66513 36.76V24.4399C4.44513 13.1999 13.3252 4.09998 24.5652 4.09998C35.8052 4.09998 44.6651 13.2 44.6651 24.22V36.54C44.6651 40.44 41.4252 43.6801 37.5252 43.6801C33.6252 43.6801 30.3852 40.44 30.3852 36.54V30.92C30.3852 28.98 31.9052 27.24 34.0652 27.24C36.0052 27.24 37.7452 28.76 37.7452 30.92V36.98" stroke="#BDCD5C" stroke-width="1.5" stroke-linecap="round" stroke-linejoin="round"/>
<path d="M31.6849 18.24H30.0649C29.6249 18.24 29.2049 18.5 29.0049 18.88L27.5049 21.88C27.2849 22.32 26.6649 22.32 26.4449 21.88L22.765 14.54C22.545 14.12 21.9449 14.1 21.7249 14.52L20.0449 17.62C19.8449 18 19.4449 18.24 19.0049 18.24H17.5449" stroke="#BDCD5C" stroke-width="1.5" stroke-linecap="round" stroke-linejoin="round"/>
</svg>
