<svg width="25" height="24" viewBox="0 0 25 24" fill="none" xmlns="http://www.w3.org/2000/svg">
<path d="M12.25 6.44V9.77" stroke="white" stroke-width="1.5" stroke-miterlimit="10" stroke-linecap="round"/>
<path d="M12.2699 2C8.5899 2 5.6099 4.98 5.6099 8.66V10.76C5.6099 11.44 5.3299 12.46 4.9799 13.04L3.7099 15.16C2.9299 16.47 3.4699 17.93 4.9099 18.41C9.6899 20 14.8599 20 19.6399 18.41C20.9899 17.96 21.5699 16.38 20.8399 15.16L19.5699 13.04C19.2199 12.46 18.9399 11.43 18.9399 10.76V8.66C18.9299 5 15.9299 2 12.2699 2Z" stroke="white" stroke-width="1.5" stroke-miterlimit="10" stroke-linecap="round"/>
<path d="M15.5799 18.82C15.5799 20.65 14.0799 22.15 12.2499 22.15C11.3399 22.15 10.4999 21.77 9.89992 21.17C9.29992 20.57 8.91992 19.73 8.91992 18.82" stroke="white" stroke-width="1.5" stroke-miterlimit="10"/>
</svg>
