<svg width="49" height="49" viewBox="0 0 49 49" fill="none" xmlns="http://www.w3.org/2000/svg">
<g clip-path="url(#clip0_15742_1212)">
<path d="M35.031 48.5C34.695 48.5 34.351 48.458 34.011 48.368L3.08503 40.086C0.965031 39.502 -0.29897 37.306 0.25703 35.186L4.15903 20.642C4.30303 20.108 4.85103 19.798 5.38303 19.934C5.91703 20.076 6.23303 20.626 6.09103 21.158L2.19103 35.698C1.91303 36.758 2.54903 37.862 3.61103 38.156L34.525 46.434C35.587 46.714 36.683 46.082 36.959 45.026L38.521 39.238C38.665 38.704 39.213 38.386 39.747 38.532C40.281 38.676 40.595 39.226 40.453 39.758L38.893 45.538C38.423 47.318 36.803 48.5 35.031 48.5Z" fill="#AABC3A"/>
<path d="M44.125 36.5H12.125C9.919 36.5 8.125 34.706 8.125 32.5V8.5C8.125 6.294 9.919 4.5 12.125 4.5H44.125C46.331 4.5 48.125 6.294 48.125 8.5V32.5C48.125 34.706 46.331 36.5 44.125 36.5ZM12.125 6.5C11.023 6.5 10.125 7.398 10.125 8.5V32.5C10.125 33.602 11.023 34.5 12.125 34.5H44.125C45.227 34.5 46.125 33.602 46.125 32.5V8.5C46.125 7.398 45.227 6.5 44.125 6.5H12.125Z" fill="#AABC3A"/>
<path d="M18.125 18.5C15.919 18.5 14.125 16.706 14.125 14.5C14.125 12.294 15.919 10.5 18.125 10.5C20.331 10.5 22.125 12.294 22.125 14.5C22.125 16.706 20.331 18.5 18.125 18.5ZM18.125 12.5C17.023 12.5 16.125 13.398 16.125 14.5C16.125 15.602 17.023 16.5 18.125 16.5C19.227 16.5 20.125 15.602 20.125 14.5C20.125 13.398 19.227 12.5 18.125 12.5Z" fill="#AABC3A"/>
<path d="M9.26515 34.3601C9.00915 34.3601 8.75315 34.2621 8.55715 34.0681C8.16715 33.6781 8.16715 33.0441 8.55715 32.6541L18.0031 23.2081C19.1351 22.0761 21.1131 22.0761 22.2451 23.2081L25.0571 26.0201L32.8411 16.6801C33.4071 16.0021 34.2391 15.6081 35.1251 15.6001H35.1471C36.0231 15.6001 36.8531 15.9801 37.4251 16.6461L47.8851 28.8501C48.2451 29.2681 48.1971 29.9001 47.7771 30.2601C47.3591 30.6201 46.7291 30.5741 46.3671 30.1521L35.9072 17.9481C35.7132 17.7241 35.4451 17.6001 35.1471 17.6001C34.9391 17.5821 34.5732 17.7261 34.3792 17.9601L25.8931 28.1421C25.7131 28.3581 25.4511 28.4881 25.1691 28.5001C24.8851 28.5201 24.6151 28.4081 24.4171 28.2081L20.8311 24.6221C20.4531 24.2461 19.7951 24.2461 19.4171 24.6221L9.97115 34.0681C9.77715 34.2621 9.52115 34.3601 9.26515 34.3601Z" fill="#AABC3A"/>
</g>
<defs>
<clipPath id="clip0_15742_1212">
<rect width="48" height="48" fill="white" transform="translate(0.125 0.5)"/>
</clipPath>
</defs>
</svg>
