<svg width="15" height="15" viewBox="0 0 15 15" fill="none" xmlns="http://www.w3.org/2000/svg">
<mask id="path-1-inside-1_15742_1175" fill="white">
<path d="M7.5 0L9.81763 4.93769L15 5.72949L11.25 9.57295L12.1353 15L7.5 12.4377L2.86474 15L3.75 9.57295L0 5.72949L5.18237 4.93769L7.5 0Z"/>
</mask>
<path d="M7.5 0L9.81763 4.93769L15 5.72949L11.25 9.57295L12.1353 15L7.5 12.4377L2.86474 15L3.75 9.57295L0 5.72949L5.18237 4.93769L7.5 0Z" fill="white"/>
<path d="M7.5 0L8.40524 -0.424897L7.5 -2.35351L6.59476 -0.424897L7.5 0ZM9.81763 4.93769L8.91239 5.36259L9.13911 5.84563L9.66659 5.92622L9.81763 4.93769ZM15 5.72949L15.7158 6.42784L17.0748 5.03489L15.151 4.74096L15 5.72949ZM11.25 9.57295L10.5342 8.8746L10.1818 9.23583L10.263 9.73394L11.25 9.57295ZM12.1353 15L11.6515 15.8752L13.4537 16.8715L13.1222 14.839L12.1353 15ZM7.5 12.4377L7.98379 11.5625L7.5 11.2951L7.01621 11.5625L7.5 12.4377ZM2.86474 15L1.87779 14.839L1.54626 16.8715L3.34853 15.8752L2.86474 15ZM3.75 9.57295L4.73696 9.73394L4.81821 9.23583L4.46575 8.8746L3.75 9.57295ZM0 5.72949L-0.151034 4.74096L-2.07483 5.03489L-0.715755 6.42784L0 5.72949ZM5.18237 4.93769L5.33341 5.92622L5.86089 5.84563L6.08761 5.36259L5.18237 4.93769ZM6.59476 0.424897L8.91239 5.36259L10.7229 4.5128L8.40524 -0.424897L6.59476 0.424897ZM9.66659 5.92622L14.849 6.71802L15.151 4.74096L9.96866 3.94917L9.66659 5.92622ZM14.2842 5.03114L10.5342 8.8746L11.9658 10.2713L15.7158 6.42784L14.2842 5.03114ZM10.263 9.73394L11.1483 15.161L13.1222 14.839L12.237 9.41196L10.263 9.73394ZM12.619 14.1248L7.98379 11.5625L7.01621 13.3129L11.6515 15.8752L12.619 14.1248ZM7.01621 11.5625L2.38095 14.1248L3.34853 15.8752L7.98379 13.3129L7.01621 11.5625ZM3.8517 15.161L4.73696 9.73394L2.76304 9.41196L1.87779 14.839L3.8517 15.161ZM4.46575 8.8746L0.715755 5.03114L-0.715755 6.42784L3.03424 10.2713L4.46575 8.8746ZM0.151034 6.71802L5.33341 5.92622L5.03134 3.94917L-0.151034 4.74096L0.151034 6.71802ZM6.08761 5.36259L8.40524 0.424897L6.59476 -0.424897L4.27713 4.5128L6.08761 5.36259Z" fill="#2A3886" mask="url(#path-1-inside-1_15742_1175)"/>
</svg>
