<svg width="284" height="211" viewBox="0 0 284 211" fill="none" xmlns="http://www.w3.org/2000/svg">
<g clip-path="url(#clip0_1_5461)">
<path d="M142.152 46.7386C164.361 46.7386 186.57 46.7469 208.778 46.7352C219.884 46.729 227.877 54.2387 227.961 65.4127C228.129 87.7602 228.142 110.111 227.953 132.458C227.847 144.956 219.605 152.966 206.987 153.046C184.846 153.187 162.704 153.123 140.563 153.092C139.163 153.09 138.22 153.483 137.287 154.532C125.658 167.621 113.987 180.672 102.324 193.73C102.056 194.03 101.772 194.317 101.485 194.599C100.923 195.149 100.455 195.905 99.4574 195.487C98.5075 195.088 98.5494 194.269 98.5487 193.452C98.5446 186.473 98.5357 179.493 98.5302 172.513C98.526 166.674 98.4752 160.835 98.557 154.997C98.5769 153.56 98.1143 153.187 96.7533 153.19C90.0451 153.202 83.3362 153.155 76.6281 153.083C71.969 153.034 67.7505 151.814 64.4579 148.266C63.629 147.373 62.8096 146.437 62.3944 145.311C59.9384 138.64 57.2528 132.215 57.4281 124.684C57.879 105.299 57.5559 85.896 57.5497 66.5006C57.5484 62.493 58.0474 58.5776 60.214 55.0913C63.7781 49.3558 69.0263 46.6946 75.729 46.7125C86.7993 46.7414 97.8703 46.7407 108.941 46.7455C120.012 46.7503 131.083 46.7469 142.154 46.7469V46.7386H142.152Z" fill="#2A3886"/>
<path d="M225.696 211C218.005 210.805 211.073 209.636 204.629 206.195C189.944 198.351 190.602 178.978 203.316 170.828C211.971 165.279 221.546 164.05 231.553 165.628C237.648 166.589 243.444 168.439 248.374 172.325C259.947 181.447 259.071 197.784 246.574 205.605C240.046 209.691 232.732 210.82 225.697 211.001L225.696 211Z" fill="#4E61C8"/>
<path d="M239.61 43.8985C237.026 42.8719 235.398 44.8571 233.698 46.8464C232.966 47.7032 232.334 49.3191 231.016 48.8178C229.714 48.3227 230.419 46.7364 230.584 45.7297C231.014 43.127 230.28 41.7613 227.753 40.3909C221.515 37.0098 218.819 31.2701 219.326 24.2672C219.812 17.5449 223.382 12.7198 229.547 10.0187C235.623 7.3569 241.91 7.07016 248.161 9.35311C255.164 11.9097 259.304 16.9659 259.9 24.4405C260.501 31.9838 256.41 38.5927 249.616 41.8418C246.477 43.3429 243.963 43.8847 239.609 43.8971L239.61 43.8985Z" fill="#4E61C8"/>
<path d="M31.3727 79.9363C31.163 84.4575 28.7703 88.8556 23.5283 91.3441C21.4311 92.3398 20.2577 93.7838 19.8735 96.0035C19.7484 96.7276 19.5683 97.4489 19.3394 98.1476C18.773 99.877 17.5405 100.815 15.732 100.813C13.9221 100.811 12.7123 99.822 12.0847 98.1545C11.8503 97.5315 11.7018 96.8658 11.5919 96.2071C11.2337 94.0644 10.0638 92.6307 8.15358 91.558C0.943614 87.5106 -1.64301 80.7903 1.02885 73.3639C3.54673 66.3651 11.0165 62.2221 18.687 63.5699C26.1218 64.8764 31.3713 71.1634 31.3727 79.9369V79.9363Z" fill="#2A3886"/>
<path d="M284 72.2793C283.782 77.3761 281.959 81.548 277.603 84.2394C275.599 85.4771 274.542 87.0133 274.315 89.3746C274.039 92.2365 272.716 93.6173 270.684 93.6627C268.601 93.7095 266.893 92.0653 266.474 89.3354C266.103 86.9163 265.094 85.2254 262.792 84.0324C256.818 80.9353 254.103 74.2081 255.984 67.818C257.827 61.5564 263.9 57.2016 270.234 57.6011C277.126 58.0357 282.785 63.1262 283.756 69.7839C283.882 70.6441 283.927 71.5154 284 72.28V72.2793Z" fill="#2A3886"/>
<path d="M44.3514 48.2404C45.975 48.8779 47.4825 48.8641 48.783 47.7666C49.3081 47.3238 49.8897 47.1044 50.3715 47.6518C50.8946 48.2473 50.6362 48.8937 50.1454 49.4486C48.5678 51.2309 43.1946 51.5507 41.4658 49.9492C41.2761 49.7738 40.9812 49.4555 41.0334 49.3152C41.5538 47.9275 40.8437 46.2862 41.1695 45.2444C42.1724 42.0366 41.0341 39.4965 39.6724 36.902C39.0448 35.7062 37.9306 34.868 36.883 34.0332C34.0551 31.7805 32.7518 28.8553 32.8316 25.2576C32.8866 22.7773 32.813 20.2929 32.8948 17.814C33.0687 12.5467 37.391 9.00399 42.5443 9.9096C44.3418 10.2252 46.107 10.305 47.9334 10.14C54.8038 9.51765 58.9178 13.3168 58.957 20.2248C58.9659 21.7672 58.8745 23.3102 58.8985 24.8519C58.9563 28.5603 57.798 31.6492 54.7392 33.9748C52.2433 35.8719 50.7159 38.4382 50.2835 41.5882C50.0938 42.9725 49.3143 43.57 47.9416 43.4786C46.8618 43.407 45.7915 43.5019 44.7831 43.9173C44.326 44.1057 43.9857 44.4997 44.1411 45.0271C44.2937 45.5442 44.8099 45.4039 45.1632 45.3379C46.4782 45.0911 47.7877 44.8098 49.0882 44.4949C49.8182 44.3182 50.43 44.3037 50.7077 45.1543C50.9757 45.9781 50.5619 46.4539 49.8278 46.6726C48.0076 47.2145 46.1771 47.7206 44.3507 48.2404H44.3514Z" fill="#2A3886"/>
<path d="M37.8331 125.238C37.7403 128.085 39.2429 129.838 42.0667 130.007C43.6504 130.102 44.6464 130.668 44.6389 132.386C44.6313 134.057 43.7528 135.001 42.1244 135.234C38.471 135.756 37.6764 136.695 37.9438 140.269C38.0723 141.99 37.0577 142.745 35.5647 142.887C34.0222 143.034 32.9664 142.34 32.8248 140.664C32.7856 140.199 32.8489 139.726 32.8413 139.257C32.8076 137.231 31.6535 135.919 29.634 135.54C28.9163 135.405 28.1609 135.29 27.5182 134.972C26.2795 134.36 25.9001 133.233 26.1324 131.921C26.3593 130.635 27.1175 130.032 28.4805 129.906C31.7669 129.602 32.7987 128.405 32.8468 125.143C32.8805 122.85 33.6765 121.847 35.4444 121.87C37.2302 121.892 37.9108 122.852 37.8338 125.238H37.8331Z" fill="#4E61C8"/>
<path d="M55.2622 183.79C55.1371 187.053 53.9452 189.815 51.2176 191.7C49.7349 192.725 48.8929 193.913 48.7169 195.763C48.5086 197.946 47.3195 199.006 45.5928 198.997C43.9032 198.988 42.7133 197.905 42.4686 195.721C42.2789 194.027 41.4822 193.049 40.1322 192.064C36.5083 189.42 35.0435 185.794 36.0615 181.327C36.9737 177.322 40.0628 174.374 43.9568 173.721C49.9088 172.722 55.3825 177.597 55.2622 183.79V183.79Z" fill="#2A3886"/>
<path d="M195.674 17.3697C197.129 17.5767 197.968 18.3592 198.024 20.002C198.156 23.8252 198.55 24.2309 202.397 25.0148C203.371 25.2136 204.191 25.6598 204.372 26.7401C204.562 27.874 204.321 28.9103 203.238 29.5113C202.726 29.7959 202.129 29.9878 201.548 30.0806C198.853 30.5118 197.9 31.5109 197.994 34.1528C198.054 35.854 197.436 36.913 195.684 36.9975C193.89 37.0842 193.243 35.9853 193.169 34.3336C193.041 31.4683 192.229 30.5592 189.342 30.2615C187.599 30.082 186.804 29.1131 186.768 27.5233C186.733 26.0215 187.617 25.3181 189.129 25.0932C192.12 24.6476 192.96 23.5955 193.066 20.5569C193.138 18.4754 194.038 17.3401 195.673 17.3697H195.674Z" fill="#4E61C8"/>
<path d="M270.345 155.07C268.716 155.094 267.89 154.394 267.684 152.98C267.304 150.362 265.781 148.821 263.114 148.359C262.012 148.168 261.024 147.829 260.765 146.536C260.433 144.878 261.307 143.859 263.219 143.694C266.798 143.383 267.733 142.393 267.769 138.862C267.785 137.285 268.527 136.215 270.124 136.193C271.648 136.172 272.298 137.192 272.377 138.698C272.593 142.777 273.122 143.353 276.979 143.681C278.269 143.791 278.993 144.423 279.085 145.644C279.177 146.853 278.557 147.688 277.344 147.993C277.023 148.074 276.683 148.078 276.351 148.115C273.199 148.469 272.397 149.29 272.469 152.463C272.508 154.175 271.71 154.903 270.346 155.071L270.345 155.07Z" fill="#4E61C8"/>
<path d="M140.091 23.8184C135.313 23.7861 131.832 20.3108 131.845 15.586C131.858 11.0779 135.37 7.60533 139.904 7.61771C144.519 7.63009 148.34 11.4616 148.331 16.066C148.322 20.493 144.754 23.85 140.091 23.8184Z" fill="#2A3886"/>
<path d="M91.3621 6.52559C92.7101 6.73944 93.1906 7.52404 93.249 8.77691C93.3858 11.711 93.6772 12.0102 96.644 12.312C97.7273 12.4227 98.4917 12.8278 98.5047 13.9747C98.5178 15.1437 97.7018 15.6134 96.6508 15.6498C94.5241 15.7234 93.4806 16.6978 93.5315 18.9154C93.5597 20.1469 92.983 21.177 91.5346 21.2066C90.1475 21.2348 89.6973 20.3168 89.6801 19.0969C89.6505 16.9501 88.3967 15.9366 86.4329 15.7186C85.2609 15.5879 84.2023 15.3541 84.1824 13.9775C84.1625 12.5933 85.2423 12.3354 86.3923 12.1738C88.88 11.8245 89.3158 11.3555 89.5351 8.64282C89.6375 7.37551 90.1241 6.63149 91.3614 6.5249L91.3621 6.52559Z" fill="#4E61C8"/>
<path d="M252.654 118.283C253.593 118.35 254.121 118.947 254.263 120.051C254.627 122.875 254.987 123.249 257.633 123.506C258.706 123.61 259.481 123.956 259.481 125.149C259.481 126.279 258.631 126.702 257.723 126.657C255.247 126.532 254.114 127.54 254.269 130.083C254.333 131.118 253.511 131.588 252.519 131.613C251.477 131.639 250.757 131.078 250.797 130.071C250.89 127.661 249.741 126.67 247.435 126.599C246.509 126.57 245.773 126.085 245.836 124.938C245.898 123.806 246.623 123.501 247.591 123.434C249.607 123.296 250.836 122.393 250.869 120.192C250.884 119.201 251.234 118.319 252.654 118.283Z" fill="#4E61C8"/>
<path d="M23.1312 23.1719C22.7181 23.2193 22.1551 23.2042 22.0293 22.5166C21.8953 21.7808 22.4754 21.6563 23.0164 21.5649C24.3884 21.3325 25.7597 21.0952 27.1359 20.8931C27.6335 20.8202 28.1126 20.9879 28.2068 21.536C28.3024 22.0916 27.9071 22.3866 27.4012 22.4746C26.0292 22.7118 24.653 22.9257 23.1312 23.1726V23.1719Z" fill="#2A3886"/>
<path d="M25.7706 14.0388C26.7247 14.5332 28.7016 13.3656 28.5958 15.2057C28.5215 16.4909 26.7996 15.5021 25.838 15.6802C25.7741 15.6918 25.6998 15.6891 25.6393 15.6685C24.798 15.3742 23.1579 16.2028 23.2335 14.7807C23.3029 13.4653 24.8805 14.3503 25.7706 14.0388Z" fill="#2A3886"/>
<path d="M61.1683 8.68753C60.5318 8.74666 60.2569 8.61051 60.0706 8.28663C59.8692 7.93457 60.0005 7.60381 60.2273 7.37208C61.1216 6.45478 62.1994 5.78571 63.3535 5.24798C63.6587 5.10564 64.0045 5.15308 64.265 5.4412C64.5241 5.72795 64.608 6.10133 64.3207 6.32825C63.2298 7.19123 62.0963 7.99989 61.1683 8.68753Z" fill="#2A3886"/>
<path d="M40.8154 4.6834C40.7728 5.37654 40.3645 5.80287 39.9129 5.61721C38.4625 5.02241 38.4845 3.49517 38.0824 2.27531C37.905 1.73551 38.4357 1.25898 38.8997 1.47009C40.2806 2.10065 40.1562 3.69046 40.8147 4.68271L40.8154 4.6834Z" fill="#2A3886"/>
<path d="M29.4178 28.2019C30.0028 28.2927 30.5183 28.611 30.3541 29.0965C29.9224 30.3741 28.6487 30.6856 27.5557 31.1044C26.9983 31.3183 26.5611 30.7317 26.7302 30.3006C27.2038 29.0951 28.3496 28.6303 29.4178 28.2019Z" fill="#2A3886"/>
<path d="M66.0058 23.1913C65.0909 22.8873 63.9011 23.1136 63.1346 22.1853C63.0171 22.0429 63.0515 21.5492 63.1779 21.4667C64.2166 20.7859 65.2408 21.4158 66.2684 21.5863C66.7984 21.6743 67.426 21.7974 67.3428 22.5139C67.2617 23.2201 66.641 23.2043 66.0058 23.1913Z" fill="#2A3886"/>
<path d="M63.0016 14.6596C63.8471 14.7696 65.0253 14.3571 64.9366 15.535C64.85 16.6895 63.6127 16.3237 62.825 16.3801C62.0874 16.433 60.9374 16.6572 61.0144 15.5226C61.0997 14.256 62.4242 15.0282 63.0016 14.6589V14.6596Z" fill="#2A3886"/>
<path d="M30.8663 7.75778C30.7845 8.26181 30.3686 8.56231 29.8909 8.37802C28.7519 7.93931 28.1814 6.94637 27.8913 5.82621C27.7758 5.37994 28.1491 5.10351 28.6151 5.09525C29.1911 5.08494 30.9268 7.09352 30.8663 7.75778Z" fill="#2A3886"/>
<path d="M46.2706 3.66709C46.118 4.33272 46.5119 5.42193 45.3908 5.5464C44.4394 5.6516 44.4683 4.74117 44.5391 4.09686C44.6168 3.38653 44.1686 2.28976 45.3585 2.17286C46.2892 2.08072 46.2555 2.93682 46.2706 3.66709Z" fill="#2A3886"/>
<path d="M49.9599 2.83569C50.5909 2.87351 50.9937 3.12519 50.9119 3.69799C50.7896 4.55684 50.6122 5.48034 49.7173 5.87023C49.1983 6.09646 48.7659 5.666 48.7755 5.14546C48.7934 4.18896 49.067 3.30328 49.9592 2.83569H49.9599Z" fill="#2A3886"/>
<path d="M56.2692 2.66104C55.5907 2.65279 55.1013 2.43412 55.1913 1.8902C55.3536 0.911012 56.032 0.258447 56.9868 0.0177746C57.3978 -0.0860583 57.7917 0.268074 57.7917 0.694407C57.791 1.78843 56.9084 2.19964 56.2699 2.66104H56.2692Z" fill="#2A3886"/>
<path d="M62.7905 31.3101C62.2008 31.2923 61.8048 30.9416 61.6839 30.3997C61.5567 29.829 61.9581 29.5409 62.4812 29.556C63.0593 29.5732 63.48 29.8771 63.4979 30.5139C63.5109 30.9622 63.269 31.2421 62.7905 31.3101Z" fill="#2A3886"/>
<path d="M61.5415 129.164C61.4858 128.498 61.3813 127.833 61.3813 127.168C61.3813 106.952 61.3917 86.7374 61.4061 66.523C61.4061 66.0575 61.4741 65.592 61.5106 65.1264C62.0715 64.2868 62.8592 63.7883 63.8642 63.8076C65.3132 63.8357 65.9744 62.9996 66.5285 61.801C68.5755 57.3747 72.1588 55.2857 76.9595 55.2836C119.207 55.2664 161.453 55.285 203.701 55.2596C209.109 55.2561 212.6 58.0555 215.111 62.5492C215.263 59.7079 213.893 56.401 211.472 53.5955C210.838 52.8611 209.883 52.2842 210.033 51.0884C216.168 51.3538 220.375 54.4454 222.958 59.9155C222.999 60.5544 222.545 60.8885 222.109 61.1856C218.807 63.4328 217.919 66.7953 217.892 70.4934C217.839 77.8071 217.877 85.1208 217.875 92.4345C217.873 101.828 218.029 111.225 217.824 120.614C217.668 127.717 214.346 133.167 208.065 136.644C206.042 137.763 203.818 138.252 201.485 138.252C178.342 138.25 155.2 138.25 132.057 138.252C130.706 138.252 129.366 138.128 128.076 137.754C126.582 137.322 125.757 137.706 125.185 139.25C121.329 149.668 115.621 159.031 108.732 167.701C108.251 168.305 107.91 169.135 106.926 169.118C106.676 168.881 106.485 168.579 106.481 168.248C106.415 163.143 105.632 158.052 106.001 153.463C105.883 157.311 105.197 161.66 105.168 166.046C105.156 167.833 104.473 169.606 105.052 171.398C105.26 171.677 105.417 171.979 105.476 172.327C105.37 173.036 104.928 173.327 104.244 173.32C103.006 173.353 103.136 172.485 103.123 171.664C103.031 166.372 103.329 161.086 103.345 155.794C103.361 150.831 103.194 145.875 103.117 140.915C103.078 138.432 102.954 138.272 100.504 138.266C92.1198 138.248 83.7351 138.273 75.351 138.254C70.2596 138.242 66.1504 136.188 62.961 132.233C62.2248 131.321 61.778 130.296 61.5422 129.164H61.5415Z" fill="#BDCD5C"/>
<path d="M105.318 172.275C105.155 172.121 104.991 171.968 104.828 171.814C105.059 170.529 105.692 169.554 106.951 169.063C112.825 161.637 118.17 153.871 122.088 145.209C123.163 142.833 124.131 140.4 125 137.942C125.39 136.84 125.778 136.414 126.978 136.846C129.014 137.58 131.156 137.692 133.313 137.691C155.71 137.678 178.109 137.504 200.504 137.768C210.593 137.886 217.27 128.428 217.28 120.938C217.303 104.169 217.32 87.3998 217.29 70.6311C217.281 66.0102 218.67 62.2186 222.957 59.915C224.424 62.1691 224.481 64.8103 224.376 67.2672C224.253 70.1519 224.588 73.0083 224.46 75.8702C224.095 84.0476 224.181 92.2277 224.171 100.408C224.159 109.792 224.198 119.176 224.138 128.56C224.075 138.332 216.649 145.68 206.865 145.688C184.788 145.706 162.711 145.676 140.634 145.733C138.806 145.737 137.411 145.335 136.298 143.844C135.301 142.508 134.165 141.276 132.923 139.8C132.418 142.94 131.716 145.868 130.784 148.74C129.189 153.647 126.022 157.52 122.718 161.338C117.55 167.31 112.65 173.516 107.078 179.133C106.192 178.538 106.42 177.596 106.401 176.77C106.362 175.107 106.338 173.441 106.449 171.697C106.048 171.9 105.77 172.281 105.32 172.273L105.318 172.275Z" fill="#7584D4"/>
<path d="M210.033 51.0885C212.963 54.0336 215.347 57.2834 215.867 61.5701C215.924 62.0335 216.015 62.4977 216.013 62.9612C216.011 63.4734 216.218 64.2292 215.606 64.3832C214.811 64.5833 215.036 63.7203 214.822 63.2988C212.79 59.3009 209.37 55.862 204.077 55.8675C161.838 55.915 119.598 55.8902 77.3583 55.8978C71.7514 55.8991 68.7248 57.9779 66.6111 63.2046C66.2633 64.0641 65.9636 64.7971 64.7462 64.3873C63.5742 63.9926 62.5672 64.7648 61.5114 65.1258C61.264 57.1967 67.1638 51.0128 75.2632 50.9798C93.5689 50.9042 111.875 50.9379 130.181 50.9365C155.662 50.9344 181.143 50.9392 206.624 50.9502C207.76 50.9502 208.897 51.0396 210.034 51.0878L210.033 51.0885Z" fill="white"/>
<path d="M61.5416 129.164C64.1296 133.477 67.5899 136.629 72.7439 137.447C73.9248 137.634 75.1401 137.67 76.3396 137.673C84.7772 137.695 93.2155 137.732 101.652 137.655C103.326 137.64 103.812 138.118 103.787 139.792C103.682 146.891 103.9 153.999 103.616 161.089C103.477 164.563 103.655 168.045 103.319 171.504C103.218 172.546 103.777 172.772 104.48 173.043C104.393 176.131 104.1 179.218 104.455 182.308C104.179 182.913 103.83 183.448 103.114 183.703C102.745 182.975 102.942 182.237 102.941 181.533C102.936 170.34 102.915 159.146 102.998 147.953C103.011 146.239 102.641 145.646 100.803 145.669C92.7632 145.772 84.7209 145.738 76.6805 145.702C67.5796 145.661 60.8226 138.252 61.5423 129.165L61.5416 129.164Z" fill="#7584D4"/>
<path d="M104.454 182.306C104.274 182.227 103.941 182.156 103.937 182.068C103.787 179.041 103.202 175.983 104.48 173.042C104.933 172.977 105.172 172.677 105.318 172.274C105.769 171.727 106.219 171.179 107.076 170.139C107.076 173.506 107.076 176.321 107.076 179.134C106.202 180.191 105.328 181.249 104.454 182.306V182.306Z" fill="white"/>
<path d="M252.798 185.945C253.776 191.963 251.67 196.858 247.178 200.753C242.552 204.765 236.889 206.481 230.976 207.147C222.595 208.09 214.378 207.304 206.743 203.323C203.06 201.403 199.923 198.869 198.387 194.804C197.9 184.042 203.685 176.169 213.377 173.208C223.822 170.016 233.923 170.696 243.448 176.195C247.784 178.698 250.999 182.337 252.342 186.953C252.348 187.088 252.323 186.835 252.364 186.581C252.409 186.296 252.558 186.093 252.798 185.946V185.945Z" fill="#85BAFF"/>
<path d="M252.798 185.945C252.759 186.742 252.719 187.54 252.658 188.781C251.412 185.815 250.363 183.217 248.453 181.051C243.915 175.907 237.988 173.514 231.463 172.415C223.896 171.141 216.507 171.913 209.579 175.366C203.364 178.464 200.004 183.64 199.09 190.515C198.9 191.941 199.001 193.439 198.387 194.803C195.301 188.142 197.476 179.778 203.73 174.814C210.376 169.537 218.191 168.096 226.41 168.426C232.644 168.677 238.601 170.185 243.971 173.487C248.658 176.368 252.156 180.162 252.798 185.945H252.798Z" fill="white"/>
<path d="M255.923 28.893C254.873 34.1115 251.574 37.4747 246.742 39.1457C239.359 41.6982 232.499 40.5993 226.551 35.277C225.24 34.1039 224.268 32.6619 223.667 30.991C224.151 28.6324 224.406 26.2319 225.2 23.931C226.386 20.4949 228.633 18.1047 231.897 16.5651C235.719 14.7621 239.737 14.1653 243.854 14.8942C250.442 16.0604 255.374 21.9046 255.923 28.8937V28.893Z" fill="#BDCD5C"/>
<path d="M255.922 28.8929C254.86 26.9607 254.684 24.7004 253.595 22.7661C250.257 16.8346 244.203 14.0538 237.477 15.3885C233.241 16.2288 229.336 17.635 226.898 21.5332C225.452 23.8457 224.943 26.4766 224.549 29.1233C224.44 29.8563 224.497 30.6203 223.665 30.9902C220.869 23.3479 223.97 15.9874 231.463 13.1131C238.11 10.5634 244.74 10.5358 250.838 14.7222C255.486 17.9135 257.406 23.614 255.922 28.8923L255.922 28.8929Z" fill="white"/>
<path d="M27.2793 76.4128C28.4946 80.5544 26.6613 85.5349 22.6126 87.2348C18.588 88.9243 16.3788 91.5971 15.8612 96.2971C15.5058 95.5538 15.3161 95.2815 15.2411 94.981C14.3379 91.3578 12.1706 88.8617 8.75086 87.3338C6.79663 86.4605 5.41499 84.9236 4.73242 82.838C4.52483 77.0454 8.23051 71.9686 13.711 70.5369C18.764 69.2167 24.1159 71.7004 26.7466 76.5812C27.1831 77.3906 27.0064 76.1687 27.28 76.4135L27.2793 76.4128Z" fill="#BDCD5C"/>
<path d="M27.2796 76.4128C27.2391 76.943 27.1985 77.4731 27.1387 78.2605C25.4725 74.8443 23.2137 72.2677 19.6991 71.239C13.1938 69.335 7.21008 72.9925 5.50468 79.7733C5.2476 80.7951 4.98983 81.8162 4.73206 82.8374C2.97855 78.5995 3.96769 73.6801 7.18259 70.6511C10.9625 67.0898 16.5681 66.1959 21.1413 68.505C24.416 70.1581 26.6513 72.6748 27.2789 76.4121L27.2796 76.4128Z" fill="white"/>
<path d="M280.114 70.3836C281.045 73.8135 279.729 78.4158 276.6 80.3357C273.198 82.4227 270.651 84.8088 270.189 89.0419C269.969 88.2648 269.743 87.4892 269.531 86.7101C268.806 84.0441 267.305 82.0823 264.702 80.9347C262.502 79.9651 260.827 78.3705 259.956 76.0524C260.367 73.3996 260.865 70.7872 262.502 68.538C266.927 62.46 275.71 62.909 279.46 69.4195C279.653 69.7558 279.679 70.2103 280.114 70.3836Z" fill="#A58E74"/>
<path d="M280.114 70.3834C279.591 71.5806 279.487 70.2968 279.437 70.2067C277.559 66.86 274.703 64.9621 270.897 64.7902C265.734 64.5571 261.574 68.5014 260.776 74.175C260.676 74.8902 260.822 75.6844 259.955 76.0523C258.236 71.9444 258.821 68.1362 261.763 64.8535C264.641 61.6402 268.328 60.5647 272.516 61.7185C276.908 62.9288 279.311 65.9771 280.114 70.3841V70.3834Z" fill="white"/>
<path d="M55.8797 18.0091C56.5774 21.4659 56.3065 24.8937 55.5312 28.2975C55.283 29.3861 54.5276 30.17 53.7192 30.8865C50.8116 33.4651 48.3906 36.3394 47.8043 40.3703C47.572 41.9657 46.235 41.1742 45.3943 41.4204C44.4911 41.6851 44.0058 41.1762 43.8752 40.3215C43.2847 36.4508 41.1676 33.6267 38.0881 31.3018C36.382 30.0139 35.4994 28.1036 35.5977 25.853C35.6589 24.4537 35.661 23.0516 35.6892 21.6502C36.4212 21.0842 37.1856 20.6235 37.6283 19.6911C39.8423 15.0331 42.8881 14.5558 47.2805 15.3061C49.2526 15.643 51.0749 16.6112 52.8408 17.5966C54.4087 18.4719 55.0796 20.0033 55.5154 21.0849C55.1565 20.3272 54.9455 19.1547 55.879 18.0091H55.8797Z" fill="#85BAFF"/>
<path d="M55.8797 18.009V21.725C55.7168 21.8268 55.5532 21.9285 55.3903 22.0296C54.498 18.4003 51.5828 17.3358 48.6876 16.3071C43.7563 14.555 39.4856 15.5095 37.8001 20.7094C37.3918 21.9677 36.4838 21.5524 35.6892 21.6501C35.6562 20.3814 35.5544 19.1092 35.6025 17.8433C35.7359 14.3267 38.4071 11.8788 41.8825 12.5031C44.4932 12.9721 47.0516 12.8813 49.6492 12.8703C53.4319 12.8545 55.1084 14.2848 55.8804 18.0083L55.8797 18.009Z" fill="white"/>
<path d="M52.1859 184.365C52.2127 186.506 51.106 188.026 49.4756 189.234C46.5095 191.432 46.1679 191.957 45.6077 195.429C44.9801 195.162 45.1444 194.546 45.0729 194.113C44.7594 192.199 43.7517 190.8 42.1494 189.759C41.1493 189.109 40.0818 188.503 39.6494 187.272C39.7436 185.438 40.2406 183.708 41.0964 182.095C42.2683 179.887 44.5951 178.509 46.6147 178.76C48.9683 179.051 51.1583 181.03 51.7941 183.453C51.88 183.781 51.9735 184.096 52.1866 184.365H52.1859Z" fill="#A58E74"/>
<path d="M52.1859 184.364C51.4325 184.087 51.4449 183.313 51.1411 182.746C50.0646 180.733 48.4459 179.268 46.15 179.256C43.8232 179.244 42.2965 180.763 41.2599 182.827C40.543 184.255 40.719 185.987 39.648 187.272C37.9358 184.292 38.2018 181.311 40.4055 178.781C42.4347 176.452 45.4681 175.827 48.4239 177.128C51.1748 178.34 52.4932 180.876 52.1852 184.364H52.1859Z" fill="white"/>
<path d="M145.624 16.8505C145.153 19.2524 143.622 20.8388 141.388 21.2431C138.762 21.7182 136.485 20.6992 135.147 18.4506C135.388 18.0978 135.322 17.6846 135.38 17.2947C135.768 14.7051 136.988 13.151 138.931 12.7632C141.281 12.2949 143.626 13.349 144.889 15.4429C145.162 15.8967 145.26 16.4427 145.623 16.8505H145.624Z" fill="#85BAFF"/>
<path d="M145.624 16.8505C144.797 16.5486 144.535 15.7235 144.031 15.1239C142.622 13.4502 140.837 12.6738 138.712 13.2906C136.814 13.8421 136.133 15.4498 135.92 17.2755C135.857 17.8173 135.887 18.3736 135.148 18.4499C133.899 15.9009 134.159 13.5904 135.893 11.795C137.476 10.1557 139.976 9.70048 142.2 10.6453C144.557 11.6465 145.773 13.8483 145.625 16.8505H145.624Z" fill="white"/>
<path d="M194.707 110.688C196.099 112.08 195.477 113.835 195.545 115.458C195.569 116.035 195.141 116.253 194.606 116.26C194.003 116.269 193.399 116.276 192.796 116.276C159.471 116.276 126.146 116.275 92.82 116.275C88.486 116.275 87.9478 115.501 89.2861 111.166C89.4332 110.191 90.1612 109.888 90.986 109.721C91.5793 109.601 92.1855 109.603 92.789 109.602C125.69 109.593 158.591 109.592 191.492 109.616C192.644 109.616 193.973 109.329 194.707 110.688V110.688Z" fill="#85BAFF"/>
<path d="M189.087 74.8235C189.917 76.1981 189.402 77.7034 189.498 79.1488C189.544 79.8467 189.086 80.0668 188.468 80.0674C187.931 80.0681 187.395 80.0784 186.86 80.0784C155.501 80.0757 124.142 80.0729 92.7838 80.0688C88.3886 80.0688 87.9233 79.3633 89.5331 75.1605C89.7105 73.9839 90.6694 73.7625 91.5815 73.5404C92.5659 73.2997 93.5825 73.3554 94.5882 73.3554C124.446 73.3527 154.304 73.3444 184.161 73.3761C185.899 73.3781 187.863 72.936 189.088 74.8249L189.087 74.8235Z" fill="#85BAFF"/>
<path d="M139.148 71.602C123.117 71.602 107.087 71.5861 91.0554 71.6267C89.5604 71.6308 88.7266 71.5002 88.7623 69.6312C88.7974 67.7835 89.6621 67.5889 91.1462 67.5896C122.672 67.6144 154.196 67.6082 185.722 67.6164C188.675 67.6171 189.694 68.2539 189.857 70.0328C189.955 71.0945 189.673 71.6686 188.447 71.615C186.707 71.5387 184.96 71.602 183.216 71.602C168.527 71.602 153.838 71.602 139.148 71.602Z" fill="white"/>
<path d="M88.8353 108.228C88.0428 105.713 88.5673 105.023 91.3567 105.022C119.127 105.017 146.898 105.019 174.668 105.019C180.437 105.019 186.206 104.995 191.974 105.034C194.78 105.053 195.519 105.764 195.5 108.155C194.839 108.924 193.929 108.813 193.069 108.813C159.149 108.825 125.228 108.824 91.3079 108.815C90.4438 108.815 89.5454 108.902 88.8353 108.228Z" fill="white"/>
<path d="M102.525 91.3207C102.036 90.6035 102.167 89.7852 102.123 88.9875C102.072 88.04 102.481 87.6295 103.422 87.6893C103.889 87.7189 104.359 87.6886 104.828 87.6886C124.037 87.6865 143.247 87.6852 162.457 87.6838C162.792 87.6838 163.127 87.6824 163.461 87.6893C166.655 87.756 167.071 88.1926 166.92 91.3124C166.095 91.7463 165.208 91.496 164.353 91.518C145.055 92.0124 125.753 91.8949 106.451 91.9072C105.11 91.9079 103.772 91.9334 102.525 91.3207Z" fill="white"/>
<path d="M194.708 110.689C193.792 110.154 192.778 110.193 191.773 110.194C158.726 110.198 125.68 110.203 92.6333 110.209C91.427 110.209 90.1917 110.11 89.2865 111.166C88.4465 110.44 88.9022 109.478 88.8238 108.613C89.5353 108.318 90.2818 108.463 91.0104 108.463C125.128 108.455 159.246 108.454 193.364 108.467C194.082 108.467 194.84 108.249 195.521 108.683C195.378 109.404 196.041 110.452 194.707 110.689L194.708 110.689Z" fill="white"/>
<path d="M189.087 74.8236C187.927 74.2268 186.696 74.0315 185.396 74.0315C154.685 74.0383 123.975 74.0328 93.2636 74.0239C91.8964 74.0239 90.5746 74.116 89.5325 75.1599C88.2966 74.7019 88.7874 73.6457 88.9723 72.9457C89.2218 71.9988 90.2295 72.4265 90.8956 72.4258C115.384 72.4025 139.872 72.4052 164.361 72.4038C172.278 72.4038 180.195 72.3949 188.111 72.4121C188.723 72.4135 189.599 72.1027 189.78 73.0468C189.904 73.6952 190.206 74.585 189.087 74.8236Z" fill="white"/>
<path d="M150.391 91.7849C152.075 92.4319 153.826 92.0434 155.542 92.0778C158.956 92.1466 162.372 92.0888 165.787 92.1156C166.262 92.1191 167.061 91.8598 167.087 92.6183C167.116 93.451 166.302 93.3451 165.718 93.3692C165.183 93.3912 164.647 93.3767 164.111 93.3767C144.223 93.3781 124.336 93.3788 104.447 93.3795C104.179 93.3795 103.91 93.4008 103.645 93.3754C103.142 93.3272 102.455 93.5837 102.252 92.9071C101.978 91.9946 103.05 92.2174 103.357 91.7684C103.828 91.3902 104.386 91.5456 104.905 91.5449C119.554 91.5366 134.203 91.5366 148.851 91.5449C149.368 91.5449 149.929 91.3778 150.391 91.7828V91.7849Z" fill="white"/>
<path d="M195.521 108.683C162.706 108.669 129.892 108.655 97.0771 108.639C94.3262 108.638 91.5746 108.622 88.8237 108.613C88.8306 108.485 88.834 108.356 88.8347 108.228C123.719 108.218 158.604 108.208 193.489 108.197C194.159 108.197 194.829 108.17 195.499 108.155C195.506 108.331 195.514 108.507 195.521 108.683Z" fill="#85BAFF"/>
<path d="M106.951 169.063C106.243 169.981 105.536 170.898 104.828 171.815C103.652 171.431 104.205 170.452 104.247 169.785C104.566 164.673 104.957 159.564 105.358 154.457C105.441 153.407 105.662 152.368 105.819 151.323C106.009 151.318 106.2 151.313 106.391 151.308C106.578 157.226 106.765 163.144 106.951 169.063V169.063Z" fill="white"/>
<path d="M150.39 91.7849C134.712 91.7794 119.034 91.7746 103.356 91.7698C103.119 91.5463 102.452 92.1191 102.524 91.3214C123.989 91.3187 145.454 91.3159 166.919 91.3125C166.576 92.1466 165.855 91.6976 165.34 91.7038C160.357 91.7636 155.373 91.7657 150.39 91.7849Z" fill="#85BAFF"/>
<path d="M225.776 198.515C224.88 198.593 224.243 198.116 223.686 197.508C220.971 194.548 218.264 191.58 215.554 188.617C214.462 187.422 214.09 186.142 215.421 184.929C216.804 183.668 217.973 184.389 219.042 185.53C220.918 187.533 222.865 189.473 224.686 191.524C225.533 192.479 226.063 192.431 226.905 191.528C228.913 189.372 231.014 187.304 233.088 185.212C233.655 184.639 234.256 184.078 235.114 184.004C236.141 183.916 236.938 184.326 237.464 185.223C238.016 186.163 237.842 187.053 237.14 187.807C234.035 191.136 230.913 194.449 227.778 197.749C227.254 198.301 226.558 198.561 225.777 198.513L225.776 198.515Z" fill="#2A3886"/>
<path d="M239.632 35.0557C239.265 34.9347 238.821 34.9017 238.527 34.6748C236.618 33.2019 234.962 31.4566 233.389 29.6427C232.815 28.9812 233.105 28.2378 233.686 27.674C234.285 27.0943 234.966 27.2745 235.498 27.7359C236.455 28.5658 237.367 29.4529 238.244 30.3674C238.853 31.0021 239.279 30.9774 239.86 30.3055C240.821 29.1964 241.861 28.1539 242.896 27.1115C243.535 26.4679 244.273 26.2973 245.044 26.9093C245.748 27.467 246.101 28.2069 245.609 29.0162C244.245 31.2627 242.375 33.0774 240.415 34.7979C240.234 34.9567 239.921 34.965 239.63 35.0557H239.632Z" fill="#2A3886"/>
</g>
<defs>
<clipPath id="clip0_1_5461">
<rect width="284" height="211" fill="white"/>
</clipPath>
</defs>
</svg>
