<svg width="49" height="49" viewBox="0 0 49 49" fill="none" xmlns="http://www.w3.org/2000/svg">
<g clip-path="url(#clip0_15742_132)">
<path d="M24.375 0.5C11.1375 0.5 0.375 11.2625 0.375 24.5C0.375 37.7375 11.1375 48.5 24.375 48.5C37.6125 48.5 48.375 37.7281 48.375 24.5C48.375 11.2719 37.6125 0.5 24.375 0.5ZM24.375 47C11.9719 47 1.875 36.9031 1.875 24.5C1.875 12.0969 11.9719 2 24.375 2C36.7781 2 46.875 12.0969 46.875 24.5C46.875 36.9031 36.7781 47 24.375 47Z" fill="#AABC3A"/>
<path d="M33.0282 21.6126L22.3032 15.4251C20.7094 14.5064 18.6657 15.0501 17.7469 16.6439C17.4563 17.1501 17.2969 17.722 17.2969 18.3126V30.697C17.2875 32.5345 18.7782 34.0251 20.6157 34.0345C21.2063 34.0345 21.7875 33.8845 22.3032 33.5845L33.0282 27.3876C34.6219 26.4689 35.1657 24.4251 34.2469 22.8314C33.9563 22.3251 33.5344 21.9032 33.0282 21.6126ZM32.2782 26.0845L21.5532 32.2814C20.6719 32.7876 19.5563 32.4876 19.05 31.6064C18.8907 31.3251 18.8063 31.0157 18.8063 30.6876V18.3032C18.8063 17.2907 19.6219 16.4751 20.625 16.4657C20.9532 16.4657 21.2719 16.5501 21.5532 16.7189L32.2782 22.9157C33.1594 23.422 33.4594 24.5376 32.9532 25.4189C32.7844 25.6907 32.55 25.9251 32.2782 26.0845Z" fill="#AABC3A"/>
</g>
<defs>
<clipPath id="clip0_15742_132">
<rect width="48" height="48" fill="white" transform="translate(0.375 0.5)"/>
</clipPath>
</defs>
</svg>
