<svg width="86" height="86" viewBox="0 0 86 86" fill="none" xmlns="http://www.w3.org/2000/svg">
<path d="M42.7812 68.1786C42.6236 68.1786 42.466 68.1786 42.3084 68.1786L42.0053 85.0643C42.2599 85.0643 42.5205 85.0703 42.7812 85.0703H42.7933V68.1786H42.7812ZM44.2361 68.1362C44.0724 68.1483 43.9148 68.1544 43.7572 68.1605L44.3877 85.04C44.6544 85.0279 44.9212 85.0158 45.1758 85.0037L44.2361 68.1423V68.1362ZM40.8716 68.1059L39.635 84.9491C39.8956 84.9673 40.1624 84.9855 40.423 84.9976L41.3506 68.1302C41.1869 68.1241 41.0293 68.112 40.8716 68.0999M45.6668 68.015C45.5092 68.0332 45.3516 68.0514 45.1879 68.0635L46.758 84.8825C47.0186 84.8583 47.2854 84.828 47.5461 84.8037L45.6668 68.0211V68.015ZM39.441 67.9605L37.2647 84.7068C37.5253 84.7371 37.7921 84.7734 38.0527 84.8037L39.9138 68.015C39.7562 67.9969 39.5986 67.9787 39.4349 67.9605M47.0914 67.8151C46.9338 67.8393 46.7762 67.8696 46.6186 67.8878L49.1222 84.5917C49.3829 84.5553 49.6496 84.5129 49.9103 84.4644L47.0914 67.8091V67.8151ZM38.0164 67.7363L34.9004 84.3372C35.1611 84.3857 35.4278 84.4342 35.6885 84.4766L38.4892 67.8212C38.3316 67.7969 38.174 67.7666 38.0164 67.7363ZM48.5039 67.5364C48.3463 67.5728 48.1886 67.6091 48.031 67.6394L51.4865 84.1736C51.7411 84.1191 51.9957 84.0646 52.2563 84.004L48.5099 67.5364H48.5039ZM36.616 67.4334L32.5604 83.8343C32.8151 83.8949 33.0818 83.9616 33.3424 84.0161L37.0828 67.5425C36.9252 67.5061 36.7736 67.4698 36.616 67.4334ZM49.8921 67.1789C49.7406 67.2214 49.5829 67.2638 49.4314 67.3062L53.8022 83.6223C54.0568 83.5556 54.3175 83.4829 54.5721 83.4102L49.8921 67.1789ZM35.2278 67.0457L30.2629 83.1921C30.5175 83.2709 30.7721 83.3436 31.0207 83.4163L35.6885 67.1789C35.5309 67.1365 35.3793 67.0881 35.2278 67.0396M51.2621 66.7427C51.1106 66.7972 50.959 66.8457 50.8075 66.9002L56.0937 82.9437C56.3483 82.8589 56.6029 82.7741 56.8454 82.6892L51.2561 66.7488L51.2621 66.7427ZM33.8638 66.5852L27.9896 82.4227C28.2381 82.5135 28.4927 82.6044 28.7413 82.6892L34.3185 66.7427C34.1669 66.6882 34.0154 66.6337 33.8638 66.5791M52.6019 66.2277C52.4564 66.2883 52.3109 66.3489 52.1593 66.4034L58.3427 82.1258C58.5913 82.0288 58.8398 81.9258 59.0823 81.8289L52.6019 66.2277ZM32.5241 66.046L25.7648 81.526C26.0073 81.635 26.2558 81.738 26.5044 81.841L32.9727 66.2338C32.8272 66.1732 32.6756 66.1126 32.5301 66.046M53.9113 65.6461C53.7658 65.7127 53.6264 65.7854 53.4809 65.846L60.5312 81.1988C60.7736 81.0897 61.0161 80.9746 61.2586 80.8595L53.9113 65.6522V65.6461ZM31.2207 65.434L23.5945 80.5081C23.831 80.6293 24.0734 80.7505 24.3159 80.8656L31.6511 65.6522C31.5056 65.5855 31.3662 65.5128 31.2207 65.4401M55.1904 64.9857C55.051 65.0645 54.9116 65.1372 54.7721 65.2159L62.6772 80.1446C62.9075 80.0234 63.1439 79.8962 63.3743 79.7629L55.1904 64.9857ZM29.9537 64.7494L21.491 79.3691C21.7213 79.5024 21.9517 79.6357 22.1881 79.7629L30.3781 64.9857C30.2386 64.9069 30.0992 64.8282 29.9598 64.7494M56.4271 64.2526C56.2937 64.3374 56.1543 64.4222 56.0209 64.507L64.7565 78.9631C64.9808 78.8298 65.2111 78.6905 65.4294 78.5511L56.4271 64.2526ZM28.7292 63.9921L19.448 78.1089C19.6663 78.2543 19.8966 78.3997 20.127 78.5451L29.1293 64.2526C28.9959 64.1678 28.8625 64.0829 28.7292 63.9921ZM57.6213 63.4528C57.488 63.5437 57.3607 63.6346 57.2273 63.7255L66.757 77.6726C66.9752 77.5272 67.1935 77.3757 67.4056 77.2243L57.6213 63.4528ZM27.547 63.1681L17.5021 76.7517C17.7143 76.9092 17.9264 77.0607 18.1447 77.2182L27.9411 63.4528C27.8138 63.362 27.6804 63.265 27.5531 63.1681M58.7671 62.5925C58.6398 62.6894 58.5185 62.7864 58.3912 62.8833L68.6848 76.2791C68.8969 76.1155 69.1091 75.952 69.3152 75.7884L58.7731 62.5864L58.7671 62.5925ZM26.4134 62.2775L15.6228 75.2794C15.8289 75.4491 16.035 75.6187 16.2411 75.7823L26.7832 62.5804C26.662 62.4834 26.5347 62.3805 26.4134 62.2775ZM59.8704 61.6595C59.7491 61.7685 59.634 61.8715 59.5127 61.9745L70.5398 74.7705C70.7398 74.6009 70.9399 74.4252 71.1339 74.2495L59.8765 61.6534L59.8704 61.6595ZM25.3283 61.3262L13.8345 73.7102C14.0285 73.892 14.2224 74.0677 14.4164 74.2434L25.686 61.6534C25.5647 61.5504 25.4435 61.4413 25.3283 61.3262ZM60.9131 60.6719C60.804 60.787 60.6888 60.8961 60.5736 61.0051L72.2917 73.1771C72.4857 72.9953 72.6736 72.8075 72.8616 72.6197L60.9131 60.6719ZM24.2977 60.3205L12.131 72.0441C12.3129 72.2319 12.4947 72.4197 12.6827 72.6075L24.6372 60.6658C24.522 60.5507 24.4129 60.4356 24.2977 60.3205ZM61.9073 59.6298C61.7982 59.751 61.6951 59.8661 61.586 59.9873L73.9709 71.4806C74.1528 71.2867 74.3286 71.0929 74.5044 70.899L61.9133 59.6298H61.9073ZM23.3278 59.2602L10.5246 70.2871C10.6943 70.487 10.8761 70.6869 11.0459 70.8808L23.643 59.6237C23.5339 59.5026 23.4308 59.3874 23.3278 59.2602ZM62.8348 58.5271C62.7317 58.6543 62.6347 58.7755 62.5317 58.9027L75.535 69.6872C75.7047 69.4873 75.8684 69.2813 76.0321 69.0753L62.8348 58.5271ZM22.4245 58.1454L9.02113 68.4331C9.17875 68.6451 9.34849 68.8572 9.51823 69.0632L22.7216 58.521C22.6185 58.3938 22.5215 58.2726 22.4245 58.1454ZM63.7017 57.382C63.6107 57.5092 63.5137 57.6425 63.4167 57.7698L77.002 67.8151C77.1596 67.6031 77.3172 67.3849 77.4688 67.1729L63.6956 57.382H63.7017ZM21.5819 56.9821L7.62685 66.5064C7.77234 66.7245 7.92995 66.9427 8.08151 67.1608L21.8547 57.376C21.7638 57.2487 21.6728 57.1154 21.5819 56.9821ZM64.5079 56.1824C64.4231 56.3217 64.3382 56.455 64.2473 56.5883L78.3781 65.8581C78.5236 65.64 78.6691 65.4159 78.8085 65.1917L64.514 56.1824H64.5079ZM20.7999 55.7704L6.33561 64.507C6.47504 64.7312 6.61446 64.9615 6.74783 65.1796L21.0484 56.1763C20.9636 56.043 20.8787 55.9037 20.7999 55.7704ZM65.2415 54.9464C65.1627 55.0858 65.0838 55.2251 65.005 55.3645L79.6269 63.8285C79.7603 63.5982 79.8936 63.362 80.0209 63.1317L65.2415 54.9404V54.9464ZM20.0906 54.5223L5.15955 62.4289C5.28079 62.6591 5.4081 62.8954 5.54147 63.1257L20.321 54.9343C20.2422 54.7949 20.1694 54.6556 20.0906 54.5162M65.9022 53.662C65.8295 53.8074 65.7628 53.9528 65.69 54.0921L80.7727 61.714C80.8939 61.4777 81.0091 61.2414 81.1243 61.0051L65.9083 53.662H65.9022ZM19.4601 53.2379L4.11079 60.3023C4.21991 60.5386 4.3351 60.7809 4.44422 61.0172L19.6602 53.6741C19.5935 53.5287 19.5208 53.3833 19.4541 53.2379M66.4903 52.3472C66.4296 52.4987 66.369 52.6441 66.3023 52.7895L81.785 59.5571C81.8941 59.3147 81.9972 59.0663 82.1003 58.8179L66.4903 52.3472ZM18.8964 51.9171L3.17117 58.1091C3.26816 58.3575 3.37121 58.6059 3.46821 58.8482L19.0722 52.3654C19.0116 52.22 18.9509 52.0746 18.8903 51.9231M67.0055 51.0022C66.951 51.1537 66.8964 51.3051 66.8419 51.4566L82.6883 57.3335C82.7792 57.0851 82.8702 56.8307 82.9611 56.5823L67.0116 51.0022H67.0055ZM18.4053 50.566L2.35884 55.8552C2.44371 56.1036 2.52857 56.3581 2.61344 56.6065L18.563 51.0204C18.5084 50.8689 18.4599 50.7174 18.4053 50.566ZM67.442 49.6329C67.3996 49.7844 67.3511 49.9419 67.3086 50.0934L83.4582 55.0676C83.537 54.8131 83.6158 54.5587 83.6886 54.2981L67.4481 49.6329H67.442ZM17.9931 49.1906L1.67382 53.5711C1.7405 53.8256 1.81325 54.08 1.886 54.3345L18.1265 49.6572C18.084 49.5057 18.0355 49.3482 17.9992 49.1967M67.7997 48.2394C67.7633 48.3969 67.7269 48.5484 67.6906 48.7059L84.0947 52.7592C84.1553 52.4987 84.222 52.2382 84.2766 51.9837L67.7936 48.2455L67.7997 48.2394ZM17.6597 47.7971L1.11611 51.2445C1.17067 51.5051 1.22523 51.7656 1.28585 52.0201L17.7628 48.2637C17.7264 48.1061 17.6961 47.9547 17.6597 47.7971ZM68.0785 46.8338C68.0543 46.9913 68.024 47.1489 67.9937 47.3064L84.6039 50.4266C84.6524 50.1661 84.7009 49.9056 84.7434 49.645L68.0785 46.8338ZM17.4111 46.3794L0.697822 48.8938C0.740257 49.1543 0.782687 49.4209 0.825122 49.6814L17.4899 46.858C17.4657 46.7005 17.4354 46.543 17.4172 46.3855M68.2786 45.41C68.2604 45.5675 68.2422 45.7251 68.224 45.8886L84.9798 48.0758C85.0162 47.8153 85.0465 47.5427 85.0768 47.2822L68.2786 45.4161V45.41ZM17.2353 44.9495L0.406832 46.5188C0.431081 46.7793 0.461395 47.0459 0.485643 47.3064L17.2778 45.4221C17.2596 45.2646 17.2414 45.1071 17.2293 44.9435M68.3998 43.9741C68.3877 44.1316 68.3816 44.2952 68.3695 44.4527L85.2223 45.6948C85.2405 45.4282 85.2586 45.1616 85.2708 44.9071L68.3998 43.9741ZM17.1383 43.5136L0.249211 44.1559C0.261335 44.4164 0.273458 44.683 0.285582 44.9435L17.1565 43.9983C17.1505 43.8408 17.1383 43.6772 17.1323 43.5197M68.4423 42.4897V42.5321C68.4423 42.6957 68.4423 42.8532 68.4423 43.0108L85.3375 43.3198C85.3375 43.0592 85.3435 42.7926 85.3435 42.5261V42.4352L68.4423 42.4837V42.4897ZM0.231025 41.7808C0.231025 42.0293 0.224976 42.2837 0.224976 42.5321V42.5564H13.7557H17.1202V42.5321C17.1202 42.3807 17.1202 42.2231 17.1202 42.0717L0.224976 41.7748L0.231025 41.7808ZM85.2708 40.0905L68.3998 41.0477C68.412 41.2053 68.418 41.3689 68.4241 41.5324L85.3071 40.8781C85.295 40.6176 85.2829 40.357 85.2708 40.0905ZM0.33409 39.4058C0.315903 39.6724 0.297706 39.939 0.285582 40.1995L17.1626 41.1144C17.1686 40.9569 17.1808 40.7933 17.1929 40.6357L0.340139 39.4058H0.33409ZM85.0647 37.7155L68.2725 39.6118C68.2907 39.7694 68.3089 39.9269 68.321 40.0905L85.1435 38.5031C85.1192 38.2426 85.0889 37.976 85.0586 37.7155M0.576572 37.0308C0.540199 37.2913 0.509886 37.5579 0.479575 37.8185L17.2778 39.6785C17.296 39.5209 17.3142 39.3574 17.3323 39.1998L0.570504 37.0308H0.576572ZM84.7312 35.3526L68.0725 38.188C68.1028 38.3456 68.127 38.5031 68.1513 38.6606L84.8585 36.1341C84.8161 35.8736 84.7737 35.607 84.7312 35.3526ZM0.952422 34.674C0.903924 34.9345 0.855439 35.2011 0.813004 35.4616L17.4778 38.2547C17.5081 38.0972 17.5324 37.9396 17.5627 37.7821L0.952422 34.674ZM84.2645 33.0078L67.7875 36.7764C67.8239 36.9339 67.8603 37.0914 67.8906 37.2429L84.4342 33.7834C84.3796 33.5228 84.3251 33.2623 84.2645 33.0018M1.45559 32.3414C1.38891 32.5958 1.32827 32.8624 1.27371 33.1169L17.7567 36.843C17.7931 36.6855 17.8294 36.534 17.8658 36.3765L1.45559 32.3414ZM83.6643 30.6934L67.4299 35.3889C67.4723 35.5404 67.5208 35.6979 67.5572 35.8494L83.8765 31.4568C83.8098 31.2023 83.737 30.9418 83.6643 30.6934ZM2.09211 30.0391C2.0133 30.2935 1.94056 30.548 1.86781 30.8025L18.1143 35.4556C18.1568 35.3041 18.2053 35.1466 18.2538 34.9951L2.09818 30.0391H2.09211ZM82.9368 28.4214L66.9934 34.0257C67.048 34.1772 67.0965 34.3286 67.145 34.4801L83.1915 29.1727C83.1066 28.9243 83.0217 28.6698 82.9368 28.4214ZM2.86199 27.761C2.77106 28.0094 2.68014 28.2639 2.58921 28.5183L18.5448 34.0802C18.5993 33.9288 18.6539 33.7773 18.7084 33.6319L2.86199 27.7671V27.761ZM82.0821 26.1918L66.4781 32.6867C66.5387 32.8321 66.5994 32.9836 66.66 33.129L82.3791 26.9249C82.2821 26.6825 82.1851 26.4341 82.0821 26.1918ZM3.7592 25.5375C3.65008 25.7798 3.54703 26.0282 3.44397 26.2827L19.06 32.7413C19.1207 32.5898 19.1813 32.4444 19.248 32.299L3.7592 25.5435V25.5375ZM81.1 24.0167L65.8901 31.378C65.9568 31.5235 66.0295 31.6689 66.0962 31.8082L81.4395 24.7316C81.3304 24.4893 81.2152 24.253 81.1 24.0167ZM4.77763 23.3745C4.65639 23.6108 4.54122 23.8471 4.42604 24.0834L19.6481 31.4144C19.7208 31.269 19.7875 31.1236 19.8663 30.9842L4.77763 23.3745ZM80.0028 21.9022L65.2293 30.0997C65.3081 30.239 65.3809 30.3784 65.4597 30.5177L80.3847 22.5929C80.2634 22.3627 80.1361 22.1264 80.0088 21.8962M5.91732 21.2721C5.78395 21.5024 5.65059 21.7326 5.52328 21.9689L20.3088 30.1421C20.3876 30.0027 20.4665 29.8634 20.5453 29.724L5.91732 21.2721ZM78.7903 19.8544L64.4958 28.8697C64.5807 29.003 64.6655 29.1424 64.7504 29.2757L79.2086 20.5269C79.0692 20.3027 78.9298 20.0786 78.7903 19.8544ZM7.17219 19.2364C7.02669 19.4606 6.88121 19.6847 6.74178 19.9089L21.0484 28.9C21.1333 28.7667 21.2182 28.6274 21.3091 28.4941L7.17219 19.2364ZM77.4627 17.8792L63.6956 27.6762C63.7865 27.8095 63.8835 27.9367 63.9684 28.07L77.9174 18.5275C77.7719 18.3094 77.6143 18.0913 77.4627 17.8792ZM8.5301 17.2794C8.37248 17.4915 8.21488 17.7096 8.06332 17.9217L21.8426 27.7004C21.9335 27.5732 22.0305 27.4399 22.1275 27.3127L8.5301 17.2734V17.2794ZM76.026 15.9768L62.8287 26.525C62.9257 26.6462 63.0288 26.7734 63.1258 26.9007L76.517 16.5948C76.3594 16.3827 76.1897 16.1767 76.026 15.9708M10.0032 15.4012C9.83346 15.6072 9.66372 15.8132 9.50005 16.0192L22.7095 26.5553C22.8065 26.4281 22.9095 26.3069 23.0126 26.1797L10.0032 15.4012ZM74.4862 14.1592L61.8951 25.4284C62.0043 25.5496 62.1073 25.6647 62.2104 25.7919L75.0015 14.759C74.8318 14.5591 74.656 14.3591 74.4802 14.1653M11.5733 13.6139C11.3975 13.8078 11.2156 14.0017 11.0398 14.2016L23.637 25.4587C23.7461 25.3375 23.8491 25.2163 23.9583 25.1012L11.5672 13.6139H11.5733ZM72.8494 12.4325L60.907 24.3863C61.0222 24.5014 61.1374 24.6165 61.2465 24.7316L73.4072 13.002C73.2253 12.8142 73.0374 12.6263 72.8494 12.4385M13.2404 11.9175C13.0525 12.0992 12.8645 12.2871 12.6766 12.4688L24.6311 24.4045C24.7403 24.2894 24.8615 24.1803 24.9767 24.0712L13.2404 11.9175ZM71.1157 10.7966L59.8583 23.3927C59.9795 23.5017 60.0947 23.6108 60.2159 23.7198L71.7037 11.3298C71.5097 11.1541 71.3157 10.9723 71.1157 10.7966ZM14.9984 10.3119C14.7984 10.4816 14.5983 10.6573 14.4043 10.833L25.6738 23.423C25.7951 23.3139 25.9163 23.2109 26.0376 23.1079L15.0045 10.318L14.9984 10.3119ZM69.297 9.26376L58.761 22.4717C58.8883 22.5687 59.0096 22.6717 59.1369 22.7747L69.9154 9.76664C69.7153 9.59699 69.5031 9.43341 69.297 9.26376ZM16.8474 8.80936C16.6412 8.96689 16.4291 9.13653 16.223 9.29406L26.7711 22.4899C26.8923 22.393 27.0196 22.29 27.1469 22.193L16.8413 8.8033L16.8474 8.80936ZM67.3874 7.82785L57.6092 21.5993C57.7426 21.6902 57.8699 21.7871 57.9972 21.878L68.03 8.28831C67.8179 8.13078 67.6057 7.97932 67.3874 7.82179M18.7751 7.4098C18.5569 7.55521 18.3387 7.71273 18.1265 7.8642L27.9229 21.6235C28.0502 21.5326 28.1836 21.4418 28.3169 21.3509L18.7751 7.4098ZM65.4051 6.50099L56.415 20.8056C56.5483 20.8904 56.6878 20.9752 56.8211 21.0661L66.078 6.93722C65.8537 6.79181 65.6294 6.6464 65.4051 6.50705M20.7756 6.11929C20.5513 6.25864 20.321 6.39799 20.1027 6.53734L29.1171 20.8238C29.2505 20.739 29.3899 20.6541 29.5233 20.5754L20.7756 6.12535V6.11929ZM63.344 5.28925L55.1722 20.0725C55.3117 20.1513 55.4511 20.224 55.5905 20.3088L64.0411 5.68307C63.8108 5.54978 63.5804 5.41648 63.344 5.28925ZM22.8489 4.9439C22.6185 5.06508 22.3821 5.19231 22.1517 5.31954L30.3538 20.0907C30.4932 20.0119 30.6327 19.9392 30.7721 19.8604L22.8489 4.9439ZM61.2162 4.18657L53.8871 19.406C54.0325 19.4787 54.178 19.5454 54.3175 19.6181L61.9315 4.53797C61.6951 4.4168 61.4526 4.30168 61.2101 4.18657M24.9888 3.88363C24.7463 3.99269 24.5038 4.1078 24.2674 4.22292L31.6269 19.4303C31.7724 19.3636 31.9118 19.2909 32.0573 19.2303L24.9888 3.88969V3.88363ZM59.0278 3.21111L52.5716 18.8183C52.7171 18.8789 52.8686 18.9395 53.0141 19.0062L59.7613 3.52011C59.5188 3.41105 59.2702 3.30805 59.0278 3.21111ZM27.1773 2.95059C26.9287 3.04753 26.6862 3.14447 26.4437 3.24747L32.9363 18.8426C33.0818 18.782 33.2333 18.7214 33.3788 18.6608L27.1773 2.95059ZM56.7848 2.35684L51.2258 18.3094C51.3773 18.3639 51.5289 18.4185 51.6804 18.473L57.5425 2.62948C57.294 2.5386 57.0394 2.44772 56.7908 2.35684M29.4324 2.13872C29.1838 2.22355 28.9292 2.30837 28.6807 2.39319L34.2821 18.3276C34.4336 18.2731 34.5852 18.2246 34.7368 18.1761L29.4384 2.13872H29.4324ZM54.4993 1.63585L49.8497 17.8732C50.0012 17.9156 50.1588 17.9641 50.3104 18.0125L55.2692 1.86608C55.0146 1.78732 54.7539 1.70856 54.4993 1.63585ZM31.7239 1.45409C31.4693 1.52074 31.2086 1.59344 30.954 1.66614L35.6461 17.8914C35.7976 17.849 35.9552 17.8005 36.1068 17.7641L31.7239 1.45409ZM52.1836 1.0421L48.4614 17.5157C48.619 17.5521 48.7706 17.5884 48.9282 17.6248L52.9656 1.22386C52.711 1.16327 52.4503 1.09663 52.1897 1.0421M34.0457 0.896689C33.785 0.951217 33.5243 1.00575 33.2697 1.06633L37.0343 17.5339C37.1919 17.4975 37.3495 17.4612 37.5011 17.4309L34.0457 0.896689ZM49.8376 0.581636L47.049 17.2431C47.2066 17.2673 47.3642 17.2976 47.5218 17.3279L50.6256 0.727045C50.3649 0.678575 50.0982 0.630106 49.8376 0.587695M36.3978 0.478638C36.1371 0.51499 35.8764 0.557401 35.6157 0.605871L38.4468 17.2552C38.6044 17.2249 38.762 17.2007 38.9196 17.1764L36.3978 0.472579V0.478638ZM47.4733 0.254466L45.6244 17.0431C45.782 17.0613 45.9457 17.0795 46.1033 17.0977L48.2675 0.345346C48.0068 0.315053 47.74 0.278701 47.4733 0.254466ZM38.7681 0.18782C38.5074 0.212055 38.2346 0.242348 37.9739 0.272642L39.8653 17.0553C40.0229 17.0371 40.1806 17.0189 40.3442 17.0068L38.7681 0.18782ZM45.103 0.060587L44.1937 16.928C44.3574 16.9341 44.515 16.9462 44.6726 16.9583L45.8972 0.115115C45.6365 0.0969393 45.3697 0.0787633 45.1091 0.0666459M41.1444 0.0302937C40.8838 0.0424111 40.611 0.0545284 40.3503 0.0666459L41.3081 16.928C41.4657 16.9159 41.6294 16.9099 41.787 16.9038L41.1444 0.0242348V0.0302937ZM42.7812 0H42.7448V16.8917H42.7812C42.9328 16.8917 43.0782 16.8917 43.2298 16.8917L43.5208 0.00605885C43.2722 0.00605885 43.0298 0 42.7812 0Z" fill="#283477"/>
<path d="M42.7813 6.57972C22.9096 6.57972 6.80859 22.6777 6.80859 42.5321C6.80859 62.3865 22.9157 78.4905 42.7813 78.4905C62.647 78.4905 78.7602 62.3925 78.7602 42.5321C78.7602 22.6716 62.653 6.57972 42.7813 6.57972ZM29.2567 31.7476C32.4757 30.5177 35.6947 29.7846 37.9316 29.3847C35.3249 29.1605 32.7243 29.1969 30.1721 29.4756C30.6995 28.4395 31.3482 27.4762 32.1059 26.6098C34.264 26.4644 36.3979 26.6098 38.4712 26.8037C37.7983 26.2221 36.1615 25.3375 34.6763 24.671C34.6702 24.671 34.6581 24.665 34.652 24.6589C34.555 24.6165 34.452 24.5741 34.355 24.5317C34.361 24.5317 34.3671 24.5256 34.3732 24.5196C34.9491 24.0954 35.5613 23.7077 36.1979 23.3684C37.9923 23.4653 39.726 24.0106 40.6293 24.877C40.6293 24.877 40.6414 24.7922 40.6657 24.6407C40.6778 24.5741 40.6899 24.4953 40.7141 24.4044C40.8536 23.7743 41.187 22.6474 41.9266 21.781C42.2054 21.7568 42.4964 21.7507 42.7813 21.7507C43.0663 21.7507 43.3573 21.7568 43.6422 21.781H43.6543C44.3878 22.6474 44.7212 23.7804 44.8485 24.4044C44.8728 24.4953 44.8849 24.5741 44.897 24.6407C44.9213 24.7922 44.9334 24.877 44.9334 24.877C45.8367 24.0106 47.5704 23.4714 49.3588 23.3684L51.1835 24.5196C51.0865 24.562 50.9955 24.6104 50.9046 24.665C50.8985 24.665 50.8864 24.671 50.8804 24.6771C49.3951 25.3435 47.7584 26.2281 47.0855 26.8097C49.1587 26.6098 51.2926 26.4705 53.4507 26.6159C54.2024 27.4823 54.8571 28.4456 55.3845 29.4816C52.8324 29.2029 50.2256 29.1666 47.625 29.3908C49.8619 29.7906 53.0809 30.5237 56.2999 31.7537C56.597 32.723 56.7909 33.7348 56.8698 34.783C54.0509 33.6258 51.3957 32.9836 49.2072 32.6382C51.4199 34.0378 54.1964 36.4855 56.5182 39.2301C56.2999 40.151 55.9847 41.0356 55.5907 41.8717C52.8566 38.5818 49.7589 35.71 47.3461 34.6012C49.2921 37.3277 51.4745 43.2107 51.0804 47.3185C50.7288 47.5729 50.3651 47.8153 49.9953 48.0334C49.5164 45.2282 48.5586 41.9141 46.5096 39.0544C46.5096 39.0483 46.5035 39.0423 46.4974 39.0302C45.5699 37.7336 44.4121 36.534 42.9814 35.5161C42.8238 35.401 42.7813 35.3162 42.7813 35.298C41.3143 36.2734 40.114 37.5215 39.138 38.9211C37.186 41.7081 36.1312 45.0828 35.5977 48.0455C35.5856 48.0395 35.5735 48.0334 35.5613 48.0213C35.1855 47.8032 34.8278 47.5669 34.4762 47.3064C34.0822 43.1925 36.2585 37.3095 38.2105 34.5831C35.8038 35.6918 32.7061 38.5576 29.966 41.8475C29.5719 41.0114 29.2567 40.1268 29.0385 39.2119C31.3542 36.4673 34.1367 34.0196 36.3494 32.62C34.1549 32.9654 31.5058 33.6076 28.6869 34.7648C28.7657 33.7167 28.9597 32.7049 29.2628 31.7355M50.6925 56.6004L55.0208 58.4725C55.2815 58.5937 55.5361 58.7634 55.7968 58.8845C56.1241 59.0421 56.4575 59.1996 56.791 59.3571C55.9423 60.7385 54.8935 61.9805 53.6871 63.0529C52.8021 62.4289 51.8139 61.7685 50.6985 61.0536L46.3701 58.4665C45.2365 57.8303 44.0362 57.1881 42.7813 56.5641C41.5265 57.1942 40.3322 57.8303 39.1986 58.4665L34.8703 61.0536C33.7548 61.7624 32.7667 62.4289 31.8816 63.0529C30.6753 61.9805 29.6265 60.7385 28.7778 59.3571C29.1112 59.1996 29.4386 59.0421 29.772 58.8845C30.0327 58.7634 30.2873 58.5937 30.5479 58.4725L34.8763 56.6004C36.3858 55.9945 37.8831 55.4432 39.3502 54.9343C35.4219 53.1712 31.045 51.5899 26.3772 50.4932C26.3772 50.3721 26.3772 50.2509 26.3893 50.1297C30.1539 50.6689 36.0524 51.7413 42.7874 53.8134C49.5285 51.7413 55.427 50.6689 59.1916 50.1297L59.2037 50.4932C54.5298 51.5899 50.159 53.1712 46.2307 54.9343C47.6977 55.4432 49.189 55.9945 50.7046 56.6004" fill="#283477"/>
</svg>
