<svg width="86" height="86" viewBox="0 0 86 86" fill="none" xmlns="http://www.w3.org/2000/svg">
<path d="M42.7812 69.1083C42.6236 69.1083 42.466 69.1083 42.3084 69.1083L42.0053 85.9939C42.2599 85.9939 42.5205 86 42.7812 86H42.7933V69.1083H42.7812ZM44.2361 69.0659C44.0724 69.078 43.9148 69.0841 43.7572 69.0901L44.3877 85.9697C44.6544 85.9576 44.9212 85.9455 45.1758 85.9333L44.2361 69.072V69.0659ZM40.8716 69.0356L39.635 85.8788C39.8956 85.897 40.1624 85.9152 40.423 85.9273L41.3506 69.0598C41.1869 69.0538 41.0293 69.0417 40.8716 69.0296M45.6668 68.9447C45.5092 68.9629 45.3516 68.9811 45.1879 68.9932L46.758 85.8122C47.0186 85.7879 47.2854 85.7576 47.5461 85.7334L45.6668 68.9508V68.9447ZM39.441 68.8902L37.2647 85.6365C37.5253 85.6668 37.7921 85.7031 38.0527 85.7334L39.9138 68.9447C39.7562 68.9266 39.5986 68.9084 39.4349 68.8902M47.0914 68.7448C46.9338 68.769 46.7762 68.7993 46.6186 68.8175L49.1222 85.5214C49.3829 85.485 49.6496 85.4426 49.9103 85.3941L47.0914 68.7387V68.7448ZM38.0164 68.666L34.9004 85.2669C35.1611 85.3154 35.4278 85.3638 35.6885 85.4062L38.4892 68.7509C38.3316 68.7266 38.174 68.6963 38.0164 68.666ZM48.5039 68.4661C48.3463 68.5024 48.1886 68.5388 48.031 68.5691L51.4865 85.1033C51.7411 85.0488 51.9957 84.9943 52.2563 84.9337L48.5099 68.4661H48.5039ZM36.616 68.3631L32.5604 84.764C32.8151 84.8246 33.0818 84.8913 33.3424 84.9458L37.0828 68.4722C36.9252 68.4358 36.7736 68.3995 36.616 68.3631ZM49.8921 68.1086C49.7406 68.151 49.5829 68.1935 49.4314 68.2359L53.8022 84.552C54.0568 84.4853 54.3175 84.4126 54.5721 84.3399L49.8921 68.1086ZM35.2278 67.9753L30.2629 84.1218C30.5175 84.2006 30.7721 84.2733 31.0207 84.346L35.6885 68.1086C35.5309 68.0662 35.3793 68.0177 35.2278 67.9693M51.2621 67.6724C51.1106 67.7269 50.959 67.7754 50.8075 67.8299L56.0937 83.8734C56.3483 83.7886 56.6029 83.7038 56.8454 83.6189L51.2561 67.6785L51.2621 67.6724ZM33.8638 67.5149L27.9896 83.3523C28.2381 83.4432 28.4927 83.5341 28.7413 83.6189L34.3185 67.6724C34.1669 67.6179 34.0154 67.5633 33.8638 67.5088M52.6019 67.1574C52.4564 67.218 52.3109 67.2786 52.1593 67.3331L58.3427 83.0555C58.5913 82.9585 58.8398 82.8555 59.0823 82.7586L52.6019 67.1574ZM32.5241 66.9757L25.7648 82.4557C26.0073 82.5647 26.2558 82.6677 26.5044 82.7707L32.9727 67.1635C32.8272 67.1029 32.6756 67.0423 32.5301 66.9757M53.9113 66.5758C53.7658 66.6424 53.6264 66.7151 53.4809 66.7757L60.5312 82.1285C60.7736 82.0194 61.0161 81.9043 61.2586 81.7892L53.9113 66.5818V66.5758ZM31.2207 66.3637L23.5945 81.4378C23.831 81.559 24.0734 81.6801 24.3159 81.7952L31.6511 66.5818C31.5056 66.5152 31.3662 66.4425 31.2207 66.3698M55.1904 65.9154C55.051 65.9941 54.9116 66.0668 54.7721 66.1456L62.6772 81.0743C62.9075 80.9531 63.1439 80.8259 63.3743 80.6926L55.1904 65.9154ZM29.9537 65.6791L21.491 80.2988C21.7213 80.432 21.9517 80.5653 22.1881 80.6926L30.3781 65.9154C30.2386 65.8366 30.0992 65.7579 29.9598 65.6791M56.4271 65.1823C56.2937 65.2671 56.1543 65.3519 56.0209 65.4367L64.7565 79.8928C64.9808 79.7595 65.2111 79.6202 65.4294 79.4808L56.4271 65.1823ZM28.7292 64.9217L19.448 79.0385C19.6663 79.184 19.8966 79.3294 20.127 79.4748L29.1293 65.1823C28.9959 65.0975 28.8625 65.0126 28.7292 64.9217ZM57.6213 64.3825C57.488 64.4734 57.3607 64.5643 57.2273 64.6552L66.757 78.6023C66.9752 78.4569 67.1935 78.3054 67.4056 78.154L57.6213 64.3825ZM27.547 64.0978L17.5021 77.6814C17.7143 77.8389 17.9264 77.9904 18.1447 78.1479L27.9411 64.3825C27.8138 64.2916 27.6804 64.1947 27.5531 64.0978M58.7671 63.5222C58.6398 63.6191 58.5185 63.7161 58.3912 63.813L68.6848 77.2088C68.8969 77.0452 69.1091 76.8816 69.3152 76.7181L58.7731 63.5161L58.7671 63.5222ZM26.4134 63.2071L15.6228 76.2091C15.8289 76.3788 16.035 76.5484 16.2411 76.712L26.7832 63.5101C26.662 63.4131 26.5347 63.3101 26.4134 63.2071ZM59.8704 62.5891C59.7491 62.6982 59.634 62.8012 59.5127 62.9042L70.5398 75.7002C70.7398 75.5305 70.9399 75.3548 71.1339 75.1791L59.8765 62.5831L59.8704 62.5891ZM25.3283 62.2559L13.8345 74.6399C14.0285 74.8217 14.2224 74.9974 14.4164 75.1731L25.686 62.5831C25.5647 62.4801 25.4435 62.371 25.3283 62.2559ZM60.9131 61.6016C60.804 61.7167 60.6888 61.8258 60.5736 61.9348L72.2917 74.1068C72.4857 73.925 72.6736 73.7372 72.8616 73.5494L60.9131 61.6016ZM24.2977 61.2502L12.131 72.9738C12.3129 73.1616 12.4947 73.3494 12.6827 73.5372L24.6372 61.5955C24.522 61.4804 24.4129 61.3653 24.2977 61.2502ZM61.9073 60.5595C61.7982 60.6807 61.6951 60.7958 61.586 60.9169L73.9709 72.4103C74.1528 72.2164 74.3286 72.0226 74.5044 71.8287L61.9133 60.5595H61.9073ZM23.3278 60.1899L10.5246 71.2167C10.6943 71.4167 10.8761 71.6166 11.0459 71.8105L23.643 60.5534C23.5339 60.4322 23.4308 60.3171 23.3278 60.1899ZM62.8348 59.4568C62.7317 59.584 62.6347 59.7052 62.5317 59.8324L75.535 70.6169C75.7047 70.417 75.8684 70.211 76.0321 70.005L62.8348 59.4568ZM22.4245 59.0751L9.02113 69.3628C9.17875 69.5748 9.34849 69.7869 9.51823 69.9929L22.7216 59.4507C22.6185 59.3235 22.5215 59.2023 22.4245 59.0751ZM63.7017 58.3117C63.6107 58.4389 63.5137 58.5722 63.4167 58.6995L77.002 68.7448C77.1596 68.5327 77.3172 68.3146 77.4688 68.1026L63.6956 58.3117H63.7017ZM21.5819 57.9118L7.62685 67.4361C7.77234 67.6542 7.92995 67.8723 8.08151 68.0905L21.8547 58.3056C21.7638 58.1784 21.6728 58.0451 21.5819 57.9118ZM64.5079 57.1121C64.4231 57.2514 64.3382 57.3847 64.2473 57.518L78.3781 66.7878C78.5236 66.5697 78.6691 66.3456 78.8085 66.1214L64.514 57.1121H64.5079ZM20.7999 56.7001L6.33561 65.4367C6.47504 65.6609 6.61446 65.8911 6.74783 66.1093L21.0484 57.106C20.9636 56.9727 20.8787 56.8334 20.7999 56.7001ZM65.2415 55.8761C65.1627 56.0154 65.0838 56.1548 65.005 56.2942L79.6269 64.7582C79.7603 64.5279 79.8936 64.2916 80.0209 64.0614L65.2415 55.87V55.8761ZM20.0906 55.452L5.15955 63.3586C5.28079 63.5888 5.4081 63.8251 5.54147 64.0554L20.321 55.864C20.2422 55.7246 20.1694 55.5853 20.0906 55.4459M65.9022 54.5917C65.8295 54.7371 65.7628 54.8825 65.69 55.0218L80.7727 62.6437C80.8939 62.4074 81.0091 62.1711 81.1243 61.9348L65.9083 54.5917H65.9022ZM19.4601 54.1675L4.11079 61.232C4.21991 61.4683 4.3351 61.7106 4.44422 61.9469L19.6602 54.6038C19.5935 54.4584 19.5208 54.313 19.4541 54.1675M66.4903 53.2769C66.4296 53.4284 66.369 53.5738 66.3023 53.7192L81.785 60.4868C81.8941 60.2444 81.9972 59.996 82.1003 59.7476L66.4903 53.2769ZM18.8964 52.8467L3.17117 59.0387C3.26816 59.2872 3.37121 59.5356 3.46821 59.7779L19.0722 53.2951C19.0116 53.1497 18.9509 53.0043 18.8903 52.8528M67.0055 51.9319C66.951 52.0834 66.8964 52.2348 66.8419 52.3863L82.6883 58.2632C82.7792 58.0148 82.8702 57.7604 82.9611 57.512L67.0116 51.9319H67.0055ZM18.4053 51.4957L2.35884 56.7849C2.44371 57.0333 2.52857 57.2878 2.61344 57.5362L18.563 51.9501C18.5084 51.7986 18.4599 51.6471 18.4053 51.4957ZM67.442 50.5626C67.3996 50.7141 67.3511 50.8716 67.3086 51.0231L83.4582 55.9973C83.537 55.7428 83.6158 55.4883 83.6886 55.2278L67.4481 50.5626H67.442ZM17.9931 50.1203L1.67382 54.5008C1.7405 54.7552 1.81325 55.0097 1.886 55.2642L18.1265 50.5869C18.084 50.4354 18.0355 50.2779 17.9992 50.1264M67.7997 49.1691C67.7633 49.3266 67.7269 49.4781 67.6906 49.6356L84.0947 53.6889C84.1553 53.4284 84.222 53.1679 84.2766 52.9134L67.7936 49.1752L67.7997 49.1691ZM17.6597 48.7268L1.11611 52.1742C1.17067 52.4348 1.22523 52.6953 1.28585 52.9497L17.7628 49.1933C17.7264 49.0358 17.6961 48.8844 17.6597 48.7268ZM68.0785 47.7635C68.0543 47.921 68.024 48.0785 67.9937 48.2361L84.6039 51.3563C84.6524 51.0958 84.7009 50.8353 84.7434 50.5747L68.0785 47.7635ZM17.4111 47.3091L0.697822 49.8235C0.740257 50.084 0.782687 50.3506 0.825122 50.6111L17.4899 47.7877C17.4657 47.6302 17.4354 47.4727 17.4172 47.3151M68.2786 46.3397C68.2604 46.4972 68.2422 46.6548 68.224 46.8183L84.9798 49.0055C85.0162 48.745 85.0465 48.4724 85.0768 48.2118L68.2786 46.3458V46.3397ZM17.2353 45.8792L0.406832 47.4484C0.431081 47.709 0.461395 47.9755 0.485643 48.2361L17.2778 46.3518C17.2596 46.1943 17.2414 46.0368 17.2293 45.8732M68.3998 44.9038C68.3877 45.0613 68.3816 45.2249 68.3695 45.3824L85.2223 46.6245C85.2405 46.3579 85.2586 46.0913 85.2708 45.8368L68.3998 44.9038ZM17.1383 44.4433L0.249211 45.0855C0.261335 45.3461 0.273458 45.6127 0.285582 45.8732L17.1565 44.928C17.1505 44.7705 17.1383 44.6069 17.1323 44.4494M68.4423 43.4194V43.4618C68.4423 43.6254 68.4423 43.7829 68.4423 43.9404L85.3375 44.2494C85.3375 43.9889 85.3435 43.7223 85.3435 43.4557V43.3649L68.4423 43.4133V43.4194ZM0.231025 42.7105C0.231025 42.9589 0.224976 43.2134 0.224976 43.4618V43.486H13.7557H17.1202V43.4618C17.1202 43.3103 17.1202 43.1528 17.1202 43.0013L0.224976 42.7045L0.231025 42.7105ZM85.2708 41.0202L68.3998 41.9774C68.412 42.135 68.418 42.2985 68.4241 42.4621L85.3071 41.8078C85.295 41.5473 85.2829 41.2867 85.2708 41.0202ZM0.33409 40.3355C0.315903 40.6021 0.297706 40.8687 0.285582 41.1292L17.1626 42.0441C17.1686 41.8865 17.1808 41.723 17.1929 41.5654L0.340139 40.3355H0.33409ZM85.0647 38.6451L68.2725 40.5415C68.2907 40.699 68.3089 40.8566 68.321 41.0202L85.1435 39.4328C85.1192 39.1722 85.0889 38.9057 85.0586 38.6451M0.576572 37.9605C0.540199 38.221 0.509886 38.4876 0.479575 38.7481L17.2778 40.6082C17.296 40.4506 17.3142 40.287 17.3323 40.1295L0.570504 37.9605H0.576572ZM84.7312 36.2822L68.0725 39.1177C68.1028 39.2752 68.127 39.4328 68.1513 39.5903L84.8585 37.0638C84.8161 36.8033 84.7737 36.5367 84.7312 36.2822ZM0.952422 35.6037C0.903924 35.8642 0.855439 36.1308 0.813004 36.3913L17.4778 39.1844C17.5081 39.0268 17.5324 38.8693 17.5627 38.7118L0.952422 35.6037ZM84.2645 33.9375L67.7875 37.706C67.8239 37.8636 67.8603 38.0211 67.8906 38.1726L84.4342 34.713C84.3796 34.4525 84.3251 34.192 84.2645 33.9315M1.45559 33.2711C1.38891 33.5255 1.32827 33.7921 1.27371 34.0466L17.7567 37.7727C17.7931 37.6152 17.8294 37.4637 17.8658 37.3062L1.45559 33.2711ZM83.6643 31.6231L67.4299 36.3186C67.4723 36.4701 67.5208 36.6276 67.5572 36.7791L83.8765 32.3865C83.8098 32.132 83.737 31.8715 83.6643 31.6231ZM2.09211 30.9688C2.0133 31.2232 1.94056 31.4777 1.86781 31.7322L18.1143 36.3852C18.1568 36.2338 18.2053 36.0762 18.2538 35.9248L2.09818 30.9688H2.09211ZM82.9368 29.3511L66.9934 34.9554C67.048 35.1069 67.0965 35.2583 67.145 35.4098L83.1915 30.1024C83.1066 29.854 83.0217 29.5995 82.9368 29.3511ZM2.86199 28.6907C2.77106 28.9391 2.68014 29.1936 2.58921 29.448L18.5448 35.0099C18.5993 34.8584 18.6539 34.707 18.7084 34.5616L2.86199 28.6967V28.6907ZM82.0821 27.1215L66.4781 33.6164C66.5387 33.7618 66.5994 33.9133 66.66 34.0587L82.3791 27.8546C82.2821 27.6122 82.1851 27.3638 82.0821 27.1215ZM3.7592 26.4671C3.65008 26.7095 3.54703 26.9579 3.44397 27.2124L19.06 33.6709C19.1207 33.5195 19.1813 33.3741 19.248 33.2287L3.7592 26.4732V26.4671ZM81.1 24.9464L65.8901 32.3077C65.9568 32.4531 66.0295 32.5986 66.0962 32.7379L81.4395 25.6613C81.3304 25.419 81.2152 25.1827 81.1 24.9464ZM4.77763 24.3042C4.65639 24.5405 4.54122 24.7768 4.42604 25.013L19.6481 32.3441C19.7208 32.1987 19.7875 32.0533 19.8663 31.9139L4.77763 24.3042ZM80.0028 22.8319L65.2293 31.0293C65.3081 31.1687 65.3809 31.308 65.4597 31.4474L80.3847 23.5226C80.2634 23.2924 80.1361 23.0561 80.0088 22.8259M5.91732 22.2018C5.78395 22.432 5.65059 22.6623 5.52328 22.8986L20.3088 31.0718C20.3876 30.9324 20.4665 30.7931 20.5453 30.6537L5.91732 22.2018ZM78.7903 20.7841L64.4958 29.7994C64.5807 29.9327 64.6655 30.0721 64.7504 30.2054L79.2086 21.4566C79.0692 21.2324 78.9298 21.0082 78.7903 20.7841ZM7.17219 20.1661C7.02669 20.3903 6.88121 20.6144 6.74178 20.8386L21.0484 29.8297C21.1333 29.6964 21.2182 29.5571 21.3091 29.4238L7.17219 20.1661ZM77.4627 18.8089L63.6956 28.6059C63.7865 28.7392 63.8835 28.8664 63.9684 28.9997L77.9174 19.4572C77.7719 19.2391 77.6143 19.021 77.4627 18.8089ZM8.5301 18.2091C8.37248 18.4212 8.21488 18.6393 8.06332 18.8513L21.8426 28.6301C21.9335 28.5029 22.0305 28.3696 22.1275 28.2423L8.5301 18.2031V18.2091ZM76.026 16.9065L62.8287 27.4547C62.9257 27.5759 63.0288 27.7031 63.1258 27.8303L76.517 17.5245C76.3594 17.3124 76.1897 17.1064 76.026 16.9004M10.0032 16.3309C9.83346 16.5369 9.66372 16.7429 9.50005 16.9489L22.7095 27.485C22.8065 27.3578 22.9095 27.2366 23.0126 27.1094L10.0032 16.3309ZM74.4862 15.0889L61.8951 26.3581C62.0043 26.4793 62.1073 26.5944 62.2104 26.7216L75.0015 15.6887C74.8318 15.4888 74.656 15.2888 74.4802 15.0949M11.5733 14.5436C11.3975 14.7375 11.2156 14.9314 11.0398 15.1313L23.637 26.3884C23.7461 26.2672 23.8491 26.146 23.9583 26.0309L11.5672 14.5436H11.5733ZM72.8494 13.3622L60.907 25.316C61.0222 25.4311 61.1374 25.5462 61.2465 25.6613L73.4072 13.9317C73.2253 13.7439 73.0374 13.556 72.8494 13.3682M13.2404 12.8472C13.0525 13.0289 12.8645 13.2167 12.6766 13.3985L24.6311 25.3342C24.7403 25.219 24.8615 25.11 24.9767 25.0009L13.2404 12.8472ZM71.1157 11.7263L59.8583 24.3224C59.9795 24.4314 60.0947 24.5405 60.2159 24.6495L71.7037 12.2595C71.5097 12.0838 71.3157 11.902 71.1157 11.7263ZM14.9984 11.2416C14.7984 11.4113 14.5983 11.587 14.4043 11.7627L25.6738 24.3526C25.7951 24.2436 25.9163 24.1406 26.0376 24.0376L15.0045 11.2477L14.9984 11.2416ZM69.297 10.1935L58.761 23.4014C58.8883 23.4984 59.0096 23.6014 59.1369 23.7044L69.9154 10.6963C69.7153 10.5267 69.5031 10.3631 69.297 10.1935ZM16.8474 9.73905C16.6412 9.89657 16.4291 10.0662 16.223 10.2237L26.7711 23.4196C26.8923 23.3227 27.0196 23.2197 27.1469 23.1227L16.8413 9.73299L16.8474 9.73905ZM67.3874 8.75754L57.6092 22.529C57.7426 22.6199 57.8699 22.7168 57.9972 22.8077L68.03 9.218C67.8179 9.06047 67.6057 8.90901 67.3874 8.75148M18.7751 8.33949C18.5569 8.4849 18.3387 8.64242 18.1265 8.79389L27.9229 22.5532C28.0502 22.4623 28.1836 22.3715 28.3169 22.2806L18.7751 8.33949ZM65.4051 7.43068L56.415 21.7353C56.5483 21.8201 56.6878 21.9049 56.8211 21.9958L66.078 7.86691C65.8537 7.7215 65.6294 7.57609 65.4051 7.43674M20.7756 7.04898C20.5513 7.18833 20.321 7.32768 20.1027 7.46703L29.1171 21.7535C29.2505 21.6686 29.3899 21.5838 29.5233 21.5051L20.7756 7.05504V7.04898ZM63.344 6.21894L55.1722 21.0022C55.3117 21.0809 55.4511 21.1537 55.5905 21.2385L64.0411 6.61275C63.8108 6.47946 63.5804 6.34617 63.344 6.21894ZM22.8489 5.87359C22.6185 5.99477 22.3821 6.122 22.1517 6.24923L30.3538 21.0204C30.4932 20.9416 30.6327 20.8689 30.7721 20.7901L22.8489 5.87359ZM61.2162 5.11625L53.8871 20.3357C54.0325 20.4084 54.178 20.4751 54.3175 20.5478L61.9315 5.46766C61.6951 5.34649 61.4526 5.23137 61.2101 5.11625M24.9888 4.81332C24.7463 4.92238 24.5038 5.03749 24.2674 5.15261L31.6269 20.36C31.7724 20.2933 31.9118 20.2206 32.0573 20.16L24.9888 4.81938V4.81332ZM59.0278 4.1408L52.5716 19.748C52.7171 19.8086 52.8686 19.8692 53.0141 19.9359L59.7613 4.4498C59.5188 4.34074 59.2702 4.23774 59.0278 4.1408ZM27.1773 3.88028C26.9287 3.97722 26.6862 4.07416 26.4437 4.17715L32.9363 19.7723C33.0818 19.7117 33.2333 19.6511 33.3788 19.5905L27.1773 3.88028ZM56.7848 3.28652L51.2258 19.2391C51.3773 19.2936 51.5289 19.3482 51.6804 19.4027L57.5425 3.55917C57.294 3.46829 57.0394 3.37741 56.7908 3.28652M29.4324 3.06841C29.1838 3.15323 28.9292 3.23805 28.6807 3.32288L34.2821 19.2573C34.4336 19.2027 34.5852 19.1543 34.7368 19.1058L29.4384 3.06841H29.4324ZM54.4993 2.56554L49.8497 18.8029C50.0012 18.8453 50.1588 18.8938 50.3104 18.9422L55.2692 2.79577C55.0146 2.71701 54.7539 2.63824 54.4993 2.56554ZM31.7239 2.38378C31.4693 2.45042 31.2086 2.52313 30.954 2.59583L35.6461 18.8211C35.7976 18.7786 35.9552 18.7302 36.1068 18.6938L31.7239 2.38378ZM52.1836 1.97179L48.4614 18.4454C48.619 18.4818 48.7706 18.5181 48.9282 18.5545L52.9656 2.15355C52.711 2.09296 52.4503 2.02631 52.1897 1.97179M34.0457 1.82638C33.785 1.8809 33.5243 1.93543 33.2697 1.99602L37.0343 18.4636C37.1919 18.4272 37.3495 18.3909 37.5011 18.3606L34.0457 1.82638ZM49.8376 1.51132L47.049 18.1728C47.2066 18.197 47.3642 18.2273 47.5218 18.2576L50.6256 1.65673C50.3649 1.60826 50.0982 1.55979 49.8376 1.51738M36.3978 1.40833C36.1371 1.44468 35.8764 1.48709 35.6157 1.53556L38.4468 18.1849C38.6044 18.1546 38.762 18.1304 38.9196 18.1061L36.3978 1.40227V1.40833ZM47.4733 1.18415L45.6244 17.9728C45.782 17.991 45.9457 18.0092 46.1033 18.0274L48.2675 1.27503C48.0068 1.24474 47.74 1.20839 47.4733 1.18415ZM38.7681 1.11751C38.5074 1.14174 38.2346 1.17204 37.9739 1.20233L39.8653 17.9849C40.0229 17.9668 40.1806 17.9486 40.3442 17.9365L38.7681 1.11751ZM45.103 0.990275L44.1937 17.8577C44.3574 17.8638 44.515 17.8759 44.6726 17.888L45.8972 1.0448C45.6365 1.02663 45.3697 1.00845 45.1091 0.996333M41.1444 0.959981C40.8838 0.972099 40.611 0.984216 40.3503 0.996333L41.3081 17.8577C41.4657 17.8456 41.6294 17.8395 41.787 17.8335L41.1444 0.953922V0.959981ZM42.7812 0.929688H42.7448V17.8214H42.7812C42.9328 17.8214 43.0782 17.8214 43.2298 17.8214L43.5208 0.935746C43.2722 0.935746 43.0298 0.929688 42.7812 0.929688Z" fill="white"/>
<path d="M42.7813 7.50941C22.9096 7.50941 6.80859 23.6074 6.80859 43.4618C6.80859 63.3162 22.9157 79.4202 42.7813 79.4202C62.647 79.4202 78.7602 63.3222 78.7602 43.4618C78.7602 23.6013 62.653 7.50941 42.7813 7.50941ZM29.2567 32.6773C32.4757 31.4474 35.6947 30.7143 37.9316 30.3144C35.3249 30.0902 32.7243 30.1266 30.1721 30.4053C30.6995 29.3692 31.3482 28.4059 32.1059 27.5395C34.264 27.3941 36.3979 27.5395 38.4712 27.7334C37.7983 27.1517 36.1615 26.2672 34.6763 25.6007C34.6702 25.6007 34.6581 25.5947 34.652 25.5886C34.555 25.5462 34.452 25.5038 34.355 25.4614C34.361 25.4614 34.3671 25.4553 34.3732 25.4492C34.9491 25.0251 35.5613 24.6374 36.1979 24.2981C37.9923 24.395 39.726 24.9403 40.6293 25.8067C40.6293 25.8067 40.6414 25.7219 40.6657 25.5704C40.6778 25.5038 40.6899 25.425 40.7141 25.3341C40.8536 24.704 41.187 23.5771 41.9266 22.7107C42.2054 22.6865 42.4964 22.6804 42.7813 22.6804C43.0663 22.6804 43.3573 22.6865 43.6422 22.7107H43.6543C44.3878 23.5771 44.7212 24.7101 44.8485 25.3341C44.8728 25.425 44.8849 25.5038 44.897 25.5704C44.9213 25.7219 44.9334 25.8067 44.9334 25.8067C45.8367 24.9403 47.5704 24.4011 49.3588 24.2981L51.1835 25.4492C51.0865 25.4917 50.9955 25.5401 50.9046 25.5947C50.8985 25.5947 50.8864 25.6007 50.8804 25.6068C49.3951 26.2732 47.7584 27.1578 47.0855 27.7394C49.1587 27.5395 51.2926 27.4001 53.4507 27.5456C54.2024 28.4119 54.8571 29.3753 55.3845 30.4113C52.8324 30.1326 50.2256 30.0963 47.625 30.3204C49.8619 30.7203 53.0809 31.4534 56.2999 32.6833C56.597 33.6527 56.7909 34.6645 56.8698 35.7127C54.0509 34.5555 51.3957 33.9133 49.2072 33.5679C51.4199 34.9675 54.1964 37.4152 56.5182 40.1598C56.2999 41.0807 55.9847 41.9653 55.5907 42.8014C52.8566 39.5115 49.7589 36.6397 47.3461 35.5309C49.2921 38.2573 51.4745 44.1404 51.0804 48.2482C50.7288 48.5026 50.3651 48.745 49.9953 48.9631C49.5164 46.1579 48.5586 42.8438 46.5096 39.9841C46.5096 39.978 46.5035 39.972 46.4974 39.9598C45.5699 38.6633 44.4121 37.4637 42.9814 36.4458C42.8238 36.3307 42.7813 36.2459 42.7813 36.2277C41.3143 37.2031 40.114 38.4512 39.138 39.8508C37.186 42.6378 36.1312 46.0125 35.5977 48.9752C35.5856 48.9691 35.5735 48.9631 35.5613 48.951C35.1855 48.7329 34.8278 48.4966 34.4762 48.236C34.0822 44.1222 36.2585 38.2392 38.2105 35.5128C35.8038 36.6215 32.7061 39.4873 29.966 42.7771C29.5719 41.941 29.2567 41.0565 29.0385 40.1416C31.3542 37.397 34.1367 34.9493 36.3494 33.5497C34.1549 33.8951 31.5058 34.5373 28.6869 35.6945C28.7657 34.6464 28.9597 33.6346 29.2628 32.6652M50.6925 57.5301L55.0208 59.4022C55.2815 59.5234 55.5361 59.6931 55.7968 59.8142C56.1241 59.9718 56.4575 60.1293 56.791 60.2868C55.9423 61.6682 54.8935 62.9102 53.6871 63.9826C52.8021 63.3586 51.8139 62.6982 50.6985 61.9832L46.3701 59.3962C45.2365 58.76 44.0362 58.1178 42.7813 57.4937C41.5265 58.1239 40.3322 58.76 39.1986 59.3962L34.8703 61.9832C33.7548 62.6921 32.7667 63.3586 31.8816 63.9826C30.6753 62.9102 29.6265 61.6682 28.7778 60.2868C29.1112 60.1293 29.4386 59.9718 29.772 59.8142C30.0327 59.6931 30.2873 59.5234 30.5479 59.4022L34.8763 57.5301C36.3858 56.9242 37.8831 56.3729 39.3502 55.864C35.4219 54.1009 31.045 52.5195 26.3772 51.4229C26.3772 51.3017 26.3772 51.1806 26.3893 51.0594C30.1539 51.5986 36.0524 52.671 42.7874 54.7431C49.5285 52.671 55.427 51.5986 59.1916 51.0594L59.2037 51.4229C54.5298 52.5195 50.159 54.1009 46.2307 55.864C47.6977 56.3729 49.189 56.9242 50.7046 57.5301" fill="white"/>
</svg>
