<svg width="300" height="64" viewBox="0 0 300 64" fill="none" xmlns="http://www.w3.org/2000/svg">
<path d="M34.7178 23.3632C34.7178 22.3877 35.0164 21.4911 35.6197 20.655C36.223 19.8249 37.0831 19.11 38.2 18.5041C39.317 17.9043 40.643 17.4499 42.178 17.153V15.7474L44.4 15.4566V24.1629C44.4 25.2777 44.6568 26.0411 45.1705 26.4592C45.6842 26.8772 46.622 27.0832 47.9838 27.0832L48.5572 27.3498V29.6582L47.9838 29.9248C46.395 29.9248 45.1645 29.7067 44.2925 29.2583C43.4204 28.816 42.8291 28.089 42.5125 27.0832C41.4673 27.2589 40.5414 27.3498 39.7411 27.3498C38.206 27.3498 36.9875 26.9984 36.0796 26.2895C35.1717 25.5807 34.7178 24.6113 34.7178 23.3693M36.8382 23.0421C36.8382 24.0478 37.8058 24.5568 39.7411 24.5568C40.1413 24.5568 40.5534 24.5386 40.9834 24.5022C41.4135 24.4659 41.8256 24.4113 42.2258 24.3447L42.2019 19.831C41.1567 19.94 40.2249 20.1521 39.4185 20.4792C38.6062 20.8064 37.9731 21.1942 37.5251 21.6304C37.0711 22.0727 36.8442 22.5392 36.8442 23.036M38.433 11.3912L40.2129 9.58569L41.9929 11.3912L40.2129 13.1967L38.433 11.3912ZM42.2557 11.3912L44.0356 9.58569L45.8156 11.3912L44.0356 13.1967L42.2557 11.3912Z" fill="white"/>
<path d="M47.4044 27.344L47.9778 27.0774C49.0589 27.0774 49.8414 26.9805 50.3192 26.7866C50.7971 26.5927 51.1256 26.3019 51.2988 25.9081C51.4362 25.6233 51.5317 25.278 51.5855 24.872L51.9499 21.2913H54.0404L53.8552 23.4664C53.8373 23.6421 53.8194 23.8784 53.8015 24.1692C53.7836 24.46 53.7776 24.6963 53.7776 24.872C53.7776 25.5991 54.0464 26.1444 54.5899 26.52C55.1335 26.8896 56.0115 27.0774 57.23 27.0774L57.8034 27.344V29.6523L57.23 29.9189H56.8656C55.8204 29.9189 54.9184 29.7796 54.1718 29.5069C53.4192 29.2343 52.8518 28.7617 52.4695 28.0892C52.1231 28.7072 51.5855 29.1677 50.8747 29.4706C50.158 29.7735 49.1903 29.9189 47.9718 29.9189L47.3984 29.6523V27.344H47.4044ZM50.1042 16.7837L51.5138 16.6261C51.1316 16.1475 50.9404 15.5659 50.9404 14.8752C50.9404 14.1481 51.1793 13.5483 51.6632 13.0697C52.141 12.591 52.7502 12.3547 53.4789 12.3547C54.124 12.3547 54.7452 12.5123 55.3365 12.8334L55.02 14.0815C54.793 13.9906 54.5362 13.9239 54.2495 13.8694C53.9628 13.8149 53.7238 13.7907 53.5267 13.7907C53.1445 13.7907 52.8279 13.9058 52.583 14.136C52.3381 14.3662 52.2186 14.657 52.2186 15.0145C52.2186 15.372 52.35 15.6749 52.6129 15.9294C52.8757 16.1838 53.2042 16.3171 53.6044 16.3171C53.7418 16.3171 54.0105 16.305 54.4048 16.2747C54.799 16.2505 55.3007 16.202 55.91 16.1293V17.5895C55.0917 17.6622 54.1957 17.747 53.2281 17.856C52.2605 17.959 51.2152 18.0923 50.1042 18.2559V16.7958V16.7837Z" fill="white"/>
<path d="M56.6685 27.3437L57.2419 27.0771H62.9998L63.5732 27.3437V29.6521L62.9998 29.9187H57.2419L56.6685 29.6521V27.3437Z" fill="white"/>
<path d="M60.9092 34.4808L62.6891 32.6753L64.4691 34.4808L62.6891 36.2863L60.9092 34.4808ZM62.4263 27.3437L62.9997 27.0771C64.0808 27.0771 64.8633 26.9801 65.3411 26.7863C65.819 26.5924 66.1475 26.3016 66.3207 25.9078C66.4581 25.623 66.5537 25.2776 66.6074 24.8717L66.9718 21.291H69.0623L68.8772 23.4661C68.8592 23.6418 68.8413 23.8781 68.8234 24.1689C68.8055 24.4597 68.7995 24.696 68.7995 24.8717C68.7995 25.5988 69.0683 26.144 69.6118 26.5136C70.1494 26.8832 71.0334 27.071 72.2519 27.071L72.8253 27.3376V29.646L72.2519 29.9126H71.8875C70.8423 29.9126 69.9403 29.7732 69.1937 29.5006C68.4411 29.2279 67.8737 28.7553 67.4914 28.0828C67.139 28.7008 66.6134 29.1613 65.8966 29.4642C65.1799 29.7671 64.2122 29.9126 62.9938 29.9126L62.4204 29.646V27.3376L62.4263 27.3437ZM64.7259 34.4808L66.5059 32.6753L68.2858 34.4808L66.5059 36.2863L64.7259 34.4808Z" fill="white"/>
<path d="M71.6847 27.3437L72.2581 27.0771C73.3392 27.0771 74.1217 26.9801 74.5995 26.7863C75.0773 26.5924 75.4059 26.3016 75.5791 25.9078C75.7165 25.623 75.812 25.2776 75.8658 24.8717L76.2301 21.291H78.3207L78.1355 23.4661C78.1176 23.6418 78.0997 23.8781 78.0818 24.1689C78.0638 24.4597 78.0579 24.696 78.0579 24.8717C78.0579 25.5988 78.3266 26.144 78.8702 26.5197C79.4137 26.8893 80.2918 27.0771 81.5103 27.0771L82.0837 27.3437V29.652L81.5103 29.9186H81.1459C80.1006 29.9186 79.1987 29.7793 78.4521 29.5066C77.6995 29.234 77.138 28.7614 76.7498 28.0889C76.3974 28.7069 75.8718 29.1673 75.155 29.4703C74.4382 29.7732 73.4706 29.9186 72.2521 29.9186L71.6787 29.652V27.3437H71.6847ZM71.9475 34.6141L73.8588 32.6753L75.7702 34.6141L73.8588 36.5529L71.9475 34.6141Z" fill="white"/>
<path d="M80.9487 27.3436L81.5221 27.077C82.9377 27.077 83.9054 26.8468 84.4429 26.3863C84.9745 25.9258 85.2373 25.1624 85.2373 24.1022L85.1358 11.2032L87.4653 10.9124L87.4414 24.3142C87.4414 26.2227 86.9755 27.6344 86.0437 28.5493C85.1119 29.4641 83.6067 29.9185 81.5281 29.9185L80.9547 29.6519V27.3436H80.9487Z" fill="white"/>
<path d="M94.8656 29.9186H92.6974L92.5361 11.2093L94.8656 10.9185V29.9186Z" fill="white"/>
<path d="M104.68 28.7493C104.68 27.9375 104.763 27.0711 104.931 26.1501C105.098 25.2292 105.355 24.1144 105.701 22.8057L107.768 23.2298C107.487 24.4355 107.284 25.3989 107.153 26.1259C107.021 26.8529 106.955 27.5255 106.955 28.1434C106.955 29.9126 107.511 31.2516 108.616 32.1664C109.721 33.0813 111.238 33.5357 113.155 33.5357C115.073 33.5357 116.512 33.1661 117.629 32.4209C118.746 31.6757 119.379 30.6699 119.54 29.3976C118.86 29.5551 118.292 29.6702 117.838 29.7308C117.384 29.7914 116.93 29.8217 116.476 29.8217C114.905 29.8217 113.669 29.4521 112.761 28.7069C111.853 27.9617 111.399 26.8832 111.399 25.4716C111.399 24.2659 111.632 23.1814 112.092 22.2059C112.552 21.2305 113.161 20.461 113.908 19.8854C114.661 19.3099 115.461 19.0251 116.315 19.0251C117.378 19.0251 118.31 19.3886 119.116 20.1157C119.917 20.8427 120.55 21.8787 120.998 23.2177C121.452 24.5628 121.679 26.1562 121.679 27.992C121.679 30.7366 120.932 32.8087 119.445 34.2143C117.952 35.6199 115.855 36.3227 113.155 36.3227C110.456 36.3227 108.407 35.6684 106.914 34.3597C105.42 33.051 104.68 31.1849 104.68 28.7614M112.63 14.9476L114.41 13.1421L116.19 14.9476L114.41 16.7531L112.63 14.9476ZM113.496 25.005C113.496 25.7503 113.783 26.2895 114.362 26.6348C114.935 26.9802 115.778 27.1498 116.877 27.1498C117.277 27.1498 117.677 27.1316 118.083 27.0953C118.483 27.0589 118.955 26.9984 119.493 26.9075C119.319 25.2474 118.919 23.9448 118.286 23.0057C117.659 22.0666 116.918 21.6 116.064 21.6C115.646 21.6 115.24 21.7515 114.846 22.0544C114.452 22.3574 114.129 22.7573 113.878 23.2601C113.627 23.763 113.496 24.3446 113.496 24.999M116.452 14.9476L118.232 13.1421L120.012 14.9476L118.232 16.7531L116.452 14.9476Z" fill="white"/>
<path d="M124.689 25.4596C124.689 24.254 124.922 23.1695 125.382 22.194C125.842 21.2186 126.451 20.4491 127.198 19.8735C127.95 19.2979 128.751 19.0132 129.605 19.0132C130.668 19.0132 131.6 19.3767 132.406 20.1037C133.207 20.8308 133.834 21.8062 134.288 23.0362C134.742 24.2661 134.969 25.6596 134.969 27.2167C134.969 29.0767 134.616 30.5974 133.923 31.7971C133.224 32.9906 132.155 33.9176 130.716 34.5719C129.276 35.2263 127.443 35.6746 125.209 35.923L124.659 33.2451C126.995 32.924 128.792 32.4999 130.047 31.9728C131.301 31.4396 132.131 30.6338 132.532 29.5553C131.45 29.7856 130.525 29.9007 129.76 29.9007C128.189 29.9007 126.953 29.5129 126.045 28.7435C125.137 27.974 124.683 26.8834 124.683 25.4657M126.756 25.0052C126.756 25.7505 127.048 26.2897 127.634 26.635C128.219 26.9804 129.049 27.15 130.13 27.15C130.549 27.15 130.967 27.1319 131.385 27.0955C131.803 27.0591 132.293 26.9986 132.848 26.9077C132.794 25.9201 132.609 25.0234 132.287 24.2297C131.964 23.436 131.546 22.7938 131.032 22.3212C130.519 21.8426 129.945 21.6063 129.318 21.6063C128.9 21.6063 128.494 21.7578 128.1 22.0547C127.705 22.3576 127.383 22.7575 127.132 23.2603C126.881 23.7632 126.75 24.3448 126.75 24.9992" fill="white"/>
<path d="M138.14 25.538V23.2296H140.207V24.6897C140.207 25.5198 140.476 26.1741 141.007 26.6528C141.539 27.1314 142.441 27.3677 143.713 27.3677C144.585 27.3677 145.332 27.2526 145.947 27.0223C146.568 26.7921 147.07 26.4771 147.452 26.0651L144.86 16.353L147.082 15.7168L149.28 24.1808C149.489 24.9442 149.722 25.5319 149.973 25.9439C150.224 26.3619 150.552 26.6528 150.952 26.8224C151.353 26.9921 151.86 27.0769 152.469 27.0769L153.043 27.3435V29.6518L152.469 29.9184C150.654 29.9184 149.292 29.3247 148.39 28.1432C147.852 28.8157 147.189 29.3247 146.401 29.67C145.618 30.0153 144.651 30.185 143.498 30.185C141.646 30.185 140.291 29.7851 139.43 28.9914C138.564 28.1977 138.134 27.0466 138.134 25.544" fill="white"/>
<path d="M151.902 27.3437L152.475 27.0771H158.233L158.807 27.3437V29.6521L158.233 29.9187H152.475L151.902 29.6521V27.3437Z" fill="white"/>
<path d="M157.654 27.3435L158.227 27.0769C159.308 27.0769 160.091 26.98 160.569 26.7861C161.047 26.5923 161.375 26.3014 161.548 25.9076C161.686 25.6229 161.781 25.2775 161.835 24.8716L162.199 21.2909H164.29L164.105 23.466C164.087 23.6417 164.069 23.878 164.051 24.1688C164.033 24.4596 164.027 24.6959 164.027 24.8716C164.027 25.5986 164.296 26.1439 164.839 26.5195C165.383 26.8891 166.261 27.0769 167.479 27.0769L168.053 27.3435V29.6519L167.479 29.9185H167.115C166.07 29.9185 165.168 29.7852 164.421 29.5065C163.675 29.2278 163.101 28.7613 162.719 28.0888C162.373 28.7067 161.835 29.1672 161.124 29.4701C160.407 29.7731 159.44 29.9185 158.221 29.9185L157.648 29.6519V27.3435H157.654ZM163.257 14.8687L165.037 16.6984L163.257 18.5039L161.477 16.6984L163.257 14.8687Z" fill="white"/>
<path d="M166.918 27.3444L167.491 27.0778C168.572 27.0778 169.355 26.9808 169.833 26.787C170.311 26.5931 170.639 26.2841 170.812 25.86C170.92 25.5934 170.998 25.2662 171.045 24.8785L171.463 21.0312H173.554L173.345 23.4729C173.327 23.6486 173.309 23.8848 173.291 24.1757C173.273 24.4665 173.267 24.7028 173.267 24.8785C173.267 25.551 173.494 26.0539 173.948 26.3931C174.701 24.9451 175.597 23.6546 176.642 22.5338C177.687 21.4129 178.786 20.5283 179.939 19.88C181.092 19.2318 182.209 18.9106 183.29 18.9106C184.252 18.9106 185.106 19.153 185.864 19.6377C186.623 20.1224 187.226 20.7767 187.668 21.6007C188.11 22.4247 188.337 23.3577 188.337 24.3998C188.337 26.1872 187.65 27.5564 186.27 28.5016C184.891 29.4467 182.872 29.9193 180.202 29.9193H177.639C176.051 29.9193 174.814 29.78 173.924 29.5073C173.034 29.2347 172.389 28.7682 171.989 28.1138C171.344 29.3195 169.845 29.9193 167.491 29.9193L166.918 29.6527V27.3444ZM185.363 22.3399C184.789 21.8006 184.037 21.528 183.111 21.528C181.91 21.528 180.662 22.0127 179.372 22.976C178.081 23.9394 176.893 25.2783 175.812 26.999C176.248 27.0535 176.744 27.0778 177.305 27.0778H180.106C182.34 27.0778 183.917 26.8718 184.843 26.4659C185.769 26.0599 186.229 25.3753 186.229 24.4241C186.229 23.5758 185.942 22.8791 185.363 22.3399Z" fill="white"/>
<path d="M34.6699 42.7993H41.9809V44.2776H36.3901V47.513H41.6703V48.9913H36.3901V52.5417H42.2735L42.0406 54.02H34.6699V42.7993Z" fill="white"/>
<path d="M43.9639 42.7993H45.6064L50.9343 51.2573V42.7993H52.5769V54.02H50.9941L45.6064 45.5803V54.02H43.9639V42.7993Z" fill="white"/>
<path d="M59.0219 51.948L62.2294 42.7993H64.0751L59.9537 54.02H58.0901L53.9688 42.7993H55.8741L59.0219 51.948Z" fill="white"/>
<path d="M67.169 42.7993H65.4487V54.02H67.169V42.7993Z" fill="white"/>
<path d="M69.5283 42.7993H73.3092C74.1275 42.7993 74.7965 42.8902 75.3341 43.0659C75.8657 43.2416 76.2897 43.49 76.5944 43.799C76.905 44.108 77.126 44.4533 77.2514 44.8411C77.3828 45.2289 77.4425 45.6287 77.4425 46.0347C77.4425 46.7496 77.2932 47.3615 77.0005 47.8765C76.7079 48.3915 76.236 48.7914 75.5969 49.0883L77.9025 54.02H76.0269L73.9842 49.476C73.8587 49.4881 73.7333 49.4942 73.6079 49.5002C73.4765 49.5002 73.357 49.5063 73.2435 49.5063H71.2008V54.02H69.5283V42.7993ZM75.7402 46.1013C75.7402 45.7014 75.6686 45.3622 75.5252 45.0774C75.3819 44.7926 75.125 44.5806 74.7607 44.4352C74.3963 44.2898 73.8826 44.2171 73.2316 44.2171H71.2008V48.0825H73.3988C74.0081 48.0825 74.4859 48.0037 74.8264 47.8402C75.1668 47.6766 75.4057 47.4524 75.5372 47.1555C75.6686 46.8647 75.7402 46.5133 75.7402 46.1013Z" fill="white"/>
<path d="M78.96 48.4285C78.96 47.1683 79.181 46.1019 79.617 45.2234C80.053 44.3449 80.6623 43.6724 81.4388 43.2119C82.2152 42.7515 83.1112 42.5212 84.1326 42.5212C85.154 42.5212 86.0678 42.7515 86.8383 43.2059C87.6089 43.6603 88.2062 44.3267 88.6362 45.1931C89.0663 46.0595 89.2813 47.1259 89.2813 48.38C89.2813 49.6342 89.0722 50.7066 88.6482 51.5911C88.2241 52.4757 87.6268 53.1482 86.8503 53.6087C86.0738 54.0691 85.1659 54.2994 84.1206 54.2994C83.0754 54.2994 82.1973 54.0691 81.4268 53.6147C80.6503 53.1603 80.047 52.4939 79.617 51.6214C79.181 50.749 78.9659 49.6826 78.9659 48.4224M80.7459 48.4103C80.7459 49.7493 81.0266 50.8156 81.5881 51.6093C82.1495 52.403 82.9917 52.7968 84.1206 52.7968C85.2495 52.7968 86.0678 52.403 86.6412 51.6093C87.2146 50.8156 87.5013 49.7553 87.5013 48.4103C87.5013 47.0653 87.2146 46.0171 86.6412 45.2174C86.0678 44.4237 85.2316 44.0238 84.1206 44.0238C83.0097 44.0238 82.1495 44.4237 81.5881 45.2174C81.0266 46.0111 80.7459 47.0774 80.7459 48.4103Z" fill="white"/>
<path d="M91.2642 42.7993H92.9067L98.2346 51.2573V42.7993H99.8772V54.02H98.2944L92.9067 45.5803V54.02H91.2642V42.7993Z" fill="white"/>
<path d="M102.23 42.7993H104.321L107.666 51.9661L111.076 42.7993H113.107V54.02H111.512V45.55L108.305 54.02H106.955L103.795 45.5681V54.02H102.23V42.7993Z" fill="white"/>
<path d="M115.46 42.7993H122.771V44.2776H117.181V47.513H122.467V48.9913H117.181V52.5417H123.07L122.837 54.02H115.46V42.7993Z" fill="white"/>
<path d="M124.755 42.7993H126.397L131.731 51.2573V42.7993H133.368V54.02H131.791L126.397 45.5803V54.02H124.755V42.7993Z" fill="white"/>
<path d="M138.421 44.3443H134.843V42.7993H143.719V44.3443H140.141V54.02H138.421V44.3443Z" fill="white"/>
<path d="M148.617 42.7993H155.617V44.2958H150.319V47.7069H155.295V49.2276H150.319V54.02H148.617V42.7993Z" fill="white"/>
<path d="M157.325 49.4819V42.8052H159.028V49.5606C159.028 50.6391 159.231 51.451 159.637 51.9902C160.043 52.5294 160.706 52.802 161.614 52.802C162.522 52.802 163.197 52.5294 163.579 51.9902C163.961 51.451 164.152 50.6391 164.152 49.5606V42.8052H165.873V49.5485C165.873 51.2025 165.496 52.4143 164.744 53.1716C163.991 53.929 162.934 54.3107 161.584 54.3107C160.234 54.3107 159.159 53.929 158.424 53.1656C157.69 52.4022 157.325 51.1723 157.325 49.4879" fill="white"/>
<path d="M168.118 42.7993H169.761L175.095 51.2573V42.7993H176.731V54.02H175.154L169.761 45.5803V54.02H168.118V42.7993Z" fill="white"/>
<path d="M179.091 42.7993H183.057C184.712 42.7993 185.996 43.2598 186.916 44.1746C187.836 45.0895 188.296 46.477 188.296 48.3309C188.296 50.1849 187.806 51.6208 186.826 52.5841C185.847 53.5414 184.491 54.02 182.765 54.02H179.091V42.7993ZM186.51 48.3673C186.51 47.0707 186.241 46.065 185.697 45.35C185.154 44.6351 184.282 44.2837 183.069 44.2837H180.794V52.5357H182.824C184.109 52.5357 185.04 52.1721 185.632 51.439C186.223 50.7059 186.516 49.682 186.516 48.3733" fill="white"/>
<path d="M233.831 51.2092C233.715 51.2092 233.598 51.2092 233.482 51.2092L233.257 63.8921C233.446 63.8921 233.639 63.8966 233.831 63.8966H233.84V51.2092H233.831ZM234.908 51.1773C234.787 51.1865 234.67 51.191 234.554 51.1956L235.02 63.8738C235.218 63.8647 235.415 63.8556 235.604 63.8465L234.908 51.1819V51.1773ZM232.418 51.1546L231.503 63.8056C231.696 63.8192 231.893 63.8329 232.086 63.842L232.773 51.1728C232.652 51.1682 232.535 51.1591 232.418 51.15M235.967 51.0863C235.85 51.1 235.734 51.1136 235.613 51.1227L236.775 63.7555C236.967 63.7373 237.165 63.7146 237.358 63.6964L235.967 51.0909V51.0863ZM231.359 51.0454L229.749 63.6236C229.942 63.6463 230.139 63.6736 230.332 63.6964L231.709 51.0863C231.593 51.0727 231.476 51.059 231.355 51.0454M237.021 50.9362C236.905 50.9544 236.788 50.9771 236.671 50.9908L238.524 63.5371C238.717 63.5098 238.914 63.4779 239.107 63.4415L237.021 50.9316V50.9362ZM230.305 50.877L227.999 63.346C228.192 63.3824 228.39 63.4188 228.582 63.4506L230.655 50.9407C230.539 50.9225 230.422 50.8998 230.305 50.877ZM238.067 50.7268C237.95 50.7541 237.833 50.7814 237.717 50.8042L240.274 63.2231C240.462 63.1821 240.651 63.1412 240.844 63.0957L238.071 50.7268H238.067ZM229.269 50.6495L226.268 62.9683C226.456 63.0138 226.653 63.0638 226.846 63.1048L229.614 50.7314C229.498 50.7041 229.386 50.6768 229.269 50.6495ZM239.094 50.4583C238.982 50.4902 238.865 50.522 238.753 50.5539L241.988 62.809C242.176 62.7589 242.369 62.7043 242.557 62.6497L239.094 50.4583ZM228.242 50.3582L224.567 62.4859C224.756 62.545 224.944 62.5996 225.128 62.6543L228.582 50.4583C228.466 50.4265 228.354 50.3901 228.242 50.3537M240.108 50.1307C239.996 50.1716 239.884 50.208 239.771 50.249L243.683 62.2993C243.872 62.2356 244.06 62.1719 244.24 62.1082L240.103 50.1352L240.108 50.1307ZM227.232 50.0124L222.885 61.9079C223.069 61.9762 223.257 62.0445 223.441 62.1082L227.569 50.1307C227.456 50.0897 227.344 50.0488 227.232 50.0078M241.099 49.7439C240.992 49.7894 240.884 49.8349 240.772 49.8758L245.348 61.685C245.532 61.6121 245.716 61.5348 245.895 61.462L241.099 49.7439ZM226.241 49.6073L221.238 61.2344C221.418 61.3163 221.602 61.3937 221.786 61.4711L226.573 49.7484C226.465 49.7029 226.353 49.6574 226.245 49.6073M242.068 49.307C241.961 49.3571 241.858 49.4117 241.75 49.4572L246.967 60.9887C247.147 60.9068 247.326 60.8203 247.506 60.7339L242.068 49.3116V49.307ZM225.276 49.1477L219.632 60.4699C219.807 60.5609 219.987 60.6519 220.166 60.7384L225.595 49.3116C225.487 49.2615 225.384 49.2069 225.276 49.1523M243.015 48.811C242.912 48.8701 242.809 48.9247 242.705 48.9839L248.556 60.1969C248.726 60.1059 248.901 60.0103 249.072 59.9102L243.015 48.811ZM224.338 48.6335L218.075 59.6144C218.246 59.7145 218.416 59.8146 218.591 59.9102L224.652 48.811C224.549 48.7518 224.446 48.6927 224.343 48.6335M243.93 48.2603C243.832 48.324 243.728 48.3878 243.63 48.4515L250.094 59.3095C250.26 59.2094 250.431 59.1047 250.592 59L243.93 48.2603ZM223.432 48.0647L216.564 58.6678C216.725 58.777 216.896 58.8863 217.066 58.9955L223.728 48.2603C223.63 48.1966 223.531 48.1329 223.432 48.0647ZM244.814 47.6596C244.715 47.7279 244.621 47.7962 244.522 47.8644L251.575 58.3402C251.736 58.231 251.898 58.1172 252.055 58.0034L244.814 47.6596ZM222.557 47.4458L215.123 57.6485C215.28 57.7668 215.438 57.8806 215.599 57.9989L222.849 47.6596C222.755 47.5914 222.656 47.5186 222.562 47.4458M245.662 47.0134C245.568 47.0863 245.478 47.1591 245.384 47.2319L253.002 57.2935C253.159 57.1706 253.316 57.0478 253.468 56.9249L245.666 47.0089L245.662 47.0134ZM221.718 46.7768L213.733 56.5426C213.885 56.6701 214.038 56.7975 214.19 56.9203L221.992 47.0043C221.902 46.9315 221.808 46.8542 221.718 46.7768ZM246.478 46.3126C246.389 46.3945 246.303 46.4719 246.214 46.5493L254.374 56.1604C254.522 56.033 254.671 55.901 254.814 55.769L246.483 46.3081L246.478 46.3126ZM220.915 46.0623L212.409 55.364C212.553 55.5005 212.696 55.6325 212.84 55.7645L221.18 46.3081C221.09 46.2307 221.001 46.1488 220.915 46.0623ZM247.25 45.5709C247.169 45.6573 247.084 45.7392 246.999 45.8212L255.671 54.9635C255.815 54.827 255.954 54.686 256.093 54.5449L247.25 45.5709ZM220.153 45.3069L211.149 54.1126C211.283 54.2536 211.418 54.3947 211.557 54.5358L220.404 45.5663C220.319 45.4799 220.238 45.3934 220.153 45.3069ZM247.986 44.7881C247.905 44.8792 247.829 44.9656 247.748 45.0566L256.914 53.6893C257.048 53.5437 257.178 53.3981 257.308 53.2525L247.99 44.7881H247.986ZM219.435 44.5105L209.96 52.7929C210.085 52.943 210.22 53.0932 210.346 53.2388L219.668 44.7836C219.587 44.6926 219.511 44.6061 219.435 44.5105ZM248.672 43.9599C248.596 44.0555 248.524 44.1465 248.448 44.2421L258.071 52.3423C258.197 52.1922 258.318 52.0374 258.439 51.8827L248.672 43.9599ZM218.766 43.6732L208.847 51.4003C208.964 51.5596 209.089 51.7189 209.215 51.8736L218.986 43.9554C218.91 43.8598 218.838 43.7688 218.766 43.6732ZM249.314 43.0998C249.247 43.1954 249.175 43.2955 249.103 43.3911L259.157 50.9362C259.273 50.7769 259.39 50.6131 259.502 50.4538L249.309 43.0998H249.314ZM218.143 42.7995L207.815 49.9532C207.923 50.117 208.04 50.2809 208.152 50.4447L218.345 43.0953C218.277 42.9997 218.21 42.8996 218.143 42.7995ZM249.91 42.1988C249.848 42.3035 249.785 42.4036 249.718 42.5037L260.175 49.4663C260.283 49.3025 260.391 49.1341 260.494 48.9657L249.915 42.1988H249.91ZM217.564 41.8893L206.86 48.4515C206.963 48.6198 207.066 48.7928 207.165 48.9566L217.748 42.1942C217.685 42.0941 217.622 41.9895 217.564 41.8893ZM250.453 41.2704C250.395 41.3751 250.337 41.4798 250.278 41.5844L261.099 47.9418C261.198 47.7689 261.297 47.5914 261.391 47.4185L250.453 41.2659V41.2704ZM217.039 40.9519L205.989 46.8906C206.079 47.0635 206.173 47.241 206.272 47.4139L217.21 41.2613C217.151 41.1567 217.097 41.052 217.039 40.9473M250.942 40.3057C250.889 40.4149 250.839 40.5241 250.785 40.6288L261.947 46.3536C262.037 46.1761 262.122 45.9986 262.208 45.8212L250.947 40.3057H250.942ZM216.573 39.9871L205.213 45.2933C205.294 45.4707 205.379 45.6528 205.46 45.8303L216.721 40.3148C216.671 40.2056 216.617 40.0964 216.568 39.9871M251.378 39.3182C251.333 39.4319 251.288 39.5412 251.238 39.6504L262.697 44.7335C262.777 44.5515 262.854 44.3649 262.93 44.1783L251.378 39.3182ZM216.155 38.9951L204.518 43.6459C204.59 43.8325 204.666 44.0191 204.738 44.2011L216.285 39.3318C216.241 39.2226 216.196 39.1134 216.151 38.9996M251.759 38.3079C251.718 38.4217 251.678 38.5355 251.638 38.6492L263.365 43.0634C263.432 42.8768 263.5 42.6857 263.567 42.4991L251.763 38.3079H251.759ZM215.792 37.9803L203.917 41.953C203.979 42.1396 204.042 42.3308 204.105 42.5173L215.909 38.3216C215.868 38.2078 215.832 38.094 215.792 37.9803ZM252.082 37.2795C252.05 37.3932 252.015 37.5116 251.983 37.6253L263.935 41.3615C263.993 41.1703 264.051 40.9792 264.105 40.7835L252.086 37.2795H252.082ZM215.487 36.9473L203.41 40.2374C203.459 40.4286 203.513 40.6197 203.567 40.8108L215.586 37.2977C215.554 37.1839 215.518 37.0656 215.491 36.9518M252.347 36.2328C252.32 36.3511 252.293 36.4649 252.266 36.5832L264.406 39.6276C264.451 39.4319 264.5 39.2363 264.54 39.0451L252.342 36.2373L252.347 36.2328ZM215.24 35.9006L202.997 38.49C203.037 38.6856 203.078 38.8813 203.123 39.0724L215.316 36.251C215.289 36.1327 215.267 36.0189 215.24 35.9006ZM252.553 35.177C252.535 35.2953 252.513 35.4137 252.49 35.532L264.783 37.8756C264.819 37.6799 264.854 37.4842 264.886 37.2886L252.553 35.177ZM215.056 34.8357L202.687 36.7243C202.719 36.92 202.75 37.1202 202.782 37.3159L215.114 35.1952C215.097 35.0769 215.074 34.9586 215.061 34.8403M252.701 34.1076C252.688 34.2259 252.674 34.3442 252.661 34.4671L265.061 36.1099C265.088 35.9142 265.11 35.7095 265.133 35.5138L252.701 34.1122V34.1076ZM214.926 33.7618L202.472 34.9404C202.49 35.1361 202.512 35.3363 202.53 35.532L214.957 34.1167C214.944 33.9984 214.931 33.8801 214.922 33.7572M252.791 33.0291C252.782 33.1474 252.777 33.2703 252.768 33.3886L265.24 34.3215C265.254 34.1213 265.267 33.921 265.276 33.7299L252.791 33.0291ZM214.854 32.6832L202.355 33.1656C202.364 33.3613 202.373 33.5615 202.382 33.7572L214.868 33.0473C214.863 32.929 214.854 32.8061 214.85 32.6878M252.822 31.9142V31.946C252.822 32.0689 252.822 32.1872 252.822 32.3055L265.326 32.5376C265.326 32.3419 265.33 32.1417 265.33 31.9415V31.8732L252.822 31.9096V31.9142ZM202.342 31.3817C202.342 31.5683 202.337 31.7594 202.337 31.946V31.9642H212.351H214.841V31.946C214.841 31.8323 214.841 31.7139 214.841 31.6002L202.337 31.3772L202.342 31.3817ZM265.276 30.1121L252.791 30.8311C252.8 30.9494 252.804 31.0723 252.809 31.1952L265.303 30.7037C265.294 30.508 265.285 30.3123 265.276 30.1121ZM202.418 29.5979C202.405 29.7981 202.391 29.9983 202.382 30.194L214.872 30.8812C214.877 30.7628 214.886 30.64 214.895 30.5217L202.423 29.5979H202.418ZM265.124 28.3282L252.697 29.7526C252.71 29.8709 252.723 29.9892 252.732 30.1121L265.182 28.9198C265.164 28.7241 265.142 28.5239 265.119 28.3282M202.598 27.814C202.571 28.0097 202.548 28.2099 202.526 28.4056L214.957 29.8026C214.971 29.6843 214.984 29.5614 214.998 29.4431L202.593 27.814H202.598ZM264.877 26.5534L252.548 28.6832C252.571 28.8015 252.589 28.9198 252.607 29.0381L264.971 27.1405C264.94 26.9448 264.908 26.7446 264.877 26.5534ZM202.876 26.0437C202.84 26.2394 202.804 26.4397 202.773 26.6353L215.106 28.7332C215.128 28.6149 215.146 28.4966 215.168 28.3783L202.876 26.0437ZM264.531 24.7923L252.338 27.6228C252.365 27.7412 252.391 27.8595 252.414 27.9732L264.657 25.3748C264.617 25.1791 264.576 24.9834 264.531 24.7877M203.248 24.2917C203.199 24.4829 203.154 24.6831 203.114 24.8742L215.312 27.6729C215.339 27.5546 215.366 27.4408 215.393 27.3225L203.248 24.2917ZM264.087 23.0539L252.073 26.5807C252.104 26.6945 252.14 26.8128 252.167 26.9266L264.244 23.6273C264.195 23.4362 264.141 23.2405 264.087 23.0539ZM203.719 22.5624C203.661 22.7536 203.607 22.9447 203.553 23.1358L215.577 26.6308C215.608 26.517 215.644 26.3987 215.68 26.2849L203.724 22.5624H203.719ZM263.549 21.3474L251.75 25.5568C251.79 25.6706 251.826 25.7844 251.862 25.8981L263.737 21.9117C263.675 21.7251 263.612 21.534 263.549 21.3474ZM204.289 20.8514C204.222 21.038 204.154 21.2291 204.087 21.4202L215.895 25.5978C215.935 25.484 215.976 25.3702 216.016 25.261L204.289 20.8559V20.8514ZM262.916 19.6727L251.369 24.5511C251.413 24.6603 251.458 24.7741 251.503 24.8833L263.136 20.2234C263.064 20.0414 262.993 19.8548 262.916 19.6727ZM204.953 19.1813C204.872 19.3633 204.796 19.5499 204.72 19.741L216.276 24.5921C216.321 24.4783 216.366 24.3691 216.416 24.2599L204.953 19.1858V19.1813ZM262.19 18.039L250.933 23.5682C250.983 23.6774 251.037 23.7866 251.086 23.8913L262.441 18.576C262.36 18.394 262.275 18.2165 262.19 18.039ZM205.707 17.5567C205.617 17.7341 205.532 17.9116 205.446 18.0891L216.712 23.5955C216.765 23.4862 216.815 23.377 216.873 23.2724L205.707 17.5567ZM261.378 16.4508L250.444 22.608C250.503 22.7126 250.557 22.8173 250.615 22.922L261.66 16.9696C261.57 16.7967 261.476 16.6192 261.382 16.4463M206.55 15.9776C206.451 16.1505 206.353 16.3234 206.258 16.5009L217.201 22.6398C217.259 22.5351 217.317 22.4305 217.376 22.3258L206.55 15.9776ZM260.48 14.9127L249.902 21.6842C249.964 21.7843 250.027 21.8889 250.09 21.9891L260.79 15.4178C260.687 15.2494 260.583 15.0811 260.48 14.9127ZM207.479 14.4485C207.371 14.6169 207.263 14.7853 207.16 14.9537L217.748 21.7069C217.811 21.6068 217.874 21.5021 217.941 21.402L207.479 14.4485ZM259.498 13.4292L249.309 20.7877C249.377 20.8878 249.448 20.9834 249.511 21.0835L259.834 13.9161C259.727 13.7523 259.61 13.5884 259.498 13.4292ZM208.484 12.9786C208.367 13.1379 208.25 13.3017 208.138 13.461L218.336 20.8059C218.403 20.7103 218.475 20.6102 218.547 20.5146L208.484 12.9741V12.9786ZM258.435 12.0002L248.668 19.923C248.74 20.014 248.816 20.1096 248.888 20.2052L258.798 12.4644C258.681 12.3051 258.556 12.1504 258.435 11.9957M209.574 11.5679C209.448 11.7226 209.323 11.8774 209.201 12.0321L218.977 19.9458C219.049 19.8502 219.125 19.7592 219.202 19.6636L209.574 11.5679ZM257.295 10.635L247.977 19.0994C248.058 19.1904 248.134 19.2768 248.21 19.3724L257.676 11.0855C257.551 10.9354 257.421 10.7852 257.291 10.6396M210.736 10.2255C210.606 10.3711 210.471 10.5167 210.341 10.6669L219.664 19.1221C219.744 19.0311 219.821 18.9401 219.901 18.8536L210.731 10.2255H210.736ZM256.084 9.33807L247.246 18.3166C247.331 18.4031 247.416 18.4896 247.497 18.576L256.496 9.76584C256.362 9.62476 256.223 9.48369 256.084 9.34262M211.97 8.95126C211.83 9.08778 211.691 9.22885 211.552 9.36537L220.399 18.3303C220.48 18.2438 220.57 18.1619 220.655 18.08L211.97 8.95126ZM254.801 8.10938L246.469 17.5703C246.559 17.6522 246.644 17.7341 246.734 17.8161L255.236 8.50984C255.092 8.37787 254.949 8.24135 254.801 8.10938ZM213.271 7.74532C213.123 7.87274 212.974 8.00471 212.831 8.13668L221.171 17.5931C221.261 17.5112 221.35 17.4338 221.44 17.3564L213.275 7.74987L213.271 7.74532ZM253.455 6.95804L245.657 16.8786C245.752 16.9514 245.841 17.0288 245.936 17.1061L253.912 7.33575C253.764 7.20833 253.607 7.08546 253.455 6.95804ZM214.639 6.61674C214.486 6.73506 214.329 6.86248 214.177 6.9808L221.983 16.8923C222.073 16.8194 222.167 16.7421 222.261 16.6693L214.634 6.61219L214.639 6.61674ZM252.042 5.87953L244.805 16.2233C244.904 16.2916 244.998 16.3644 245.092 16.4326L252.517 6.22538C252.36 6.10706 252.203 5.99329 252.042 5.87497M216.066 5.56553C215.904 5.67474 215.743 5.79306 215.586 5.90683L222.835 16.2415C222.93 16.1732 223.028 16.105 223.127 16.0367L216.066 5.56553ZM250.574 4.88292L243.921 15.6272C244.02 15.6909 244.123 15.7546 244.222 15.8228L251.072 5.21057C250.906 5.10135 250.74 4.99214 250.574 4.88747M217.546 4.59622C217.38 4.70089 217.21 4.80556 217.048 4.91022L223.719 15.6408C223.818 15.5771 223.921 15.5134 224.02 15.4542L217.546 4.60077V4.59622ZM249.049 3.97277L243.002 15.0765C243.105 15.1357 243.208 15.1903 243.311 15.254L249.565 4.26857C249.395 4.16846 249.224 4.06834 249.049 3.97277ZM219.08 3.71338C218.91 3.8044 218.735 3.89996 218.564 3.99553L224.634 15.0902C224.738 15.031 224.841 14.9764 224.944 14.9172L219.08 3.71338ZM247.474 3.14454L242.05 14.5759C242.158 14.6306 242.266 14.6806 242.369 14.7352L248.004 3.40849C247.829 3.31747 247.649 3.23101 247.47 3.14454M220.664 2.91701C220.485 2.99892 220.305 3.08539 220.13 3.17185L225.577 14.5941C225.684 14.5441 225.787 14.4895 225.895 14.444L220.664 2.92156V2.91701ZM245.855 2.41188L241.077 14.1345C241.185 14.18 241.297 14.2255 241.404 14.2756L246.398 2.64397C246.218 2.56205 246.034 2.48469 245.855 2.41188ZM222.284 2.2162C222.1 2.28901 221.92 2.36182 221.741 2.43918L226.546 14.1527C226.653 14.1072 226.765 14.0617 226.873 14.0162L222.284 2.2162ZM244.195 1.77023L240.081 13.7523C240.193 13.7932 240.305 13.8342 240.417 13.8751L244.756 1.97501C244.572 1.90675 244.383 1.83849 244.199 1.77023M223.953 1.6064C223.769 1.67011 223.58 1.73382 223.396 1.79753L227.542 13.7659C227.654 13.725 227.766 13.6886 227.878 13.6521L223.957 1.6064H223.953ZM242.504 1.22869L239.063 13.4246C239.175 13.4565 239.291 13.4929 239.404 13.5293L243.073 1.40162C242.885 1.34246 242.692 1.2833 242.504 1.22869ZM225.648 1.09217C225.46 1.14223 225.267 1.19684 225.079 1.25145L228.551 13.4383C228.663 13.4064 228.78 13.37 228.892 13.3427L225.648 1.09217ZM240.79 0.782723L238.035 13.1561C238.152 13.1834 238.264 13.2107 238.381 13.238L241.369 0.919245C241.18 0.873738 240.987 0.82368 240.794 0.782723M227.367 0.673506C227.174 0.714463 226.981 0.755419 226.792 0.800926L229.578 13.1698C229.695 13.1425 229.812 13.1152 229.924 13.0924L227.367 0.673506ZM239.054 0.436869L236.99 12.9513C237.106 12.9695 237.223 12.9923 237.34 13.015L239.637 0.546086C239.444 0.50968 239.246 0.473275 239.054 0.44142M229.107 0.359507C228.914 0.386811 228.722 0.418666 228.529 0.455072L230.624 12.9604C230.74 12.9377 230.857 12.9195 230.974 12.9013L229.107 0.354956V0.359507ZM237.304 0.19113L235.936 12.8012C236.052 12.8148 236.173 12.8285 236.29 12.8421L237.892 0.259391C237.699 0.236637 237.501 0.209333 237.304 0.19113ZM230.862 0.141072C230.669 0.159275 230.467 0.182029 230.274 0.204782L231.674 12.8103C231.79 12.7966 231.907 12.783 232.028 12.7739L230.862 0.141072ZM235.55 0.0455071L234.877 12.7147C234.998 12.7193 235.115 12.7284 235.231 12.7375L236.137 0.0864636C235.945 0.0728115 235.747 0.0591594 235.554 0.0500579M232.62 0.0227537C232.427 0.0318551 232.225 0.0409565 232.032 0.0500579L232.741 12.7147C232.858 12.7056 232.979 12.701 233.096 12.6965L232.62 0.0182028V0.0227537ZM233.831 0H233.805V12.6874H233.831C233.944 12.6874 234.051 12.6874 234.163 12.6874L234.379 0.00455082C234.195 0.00455082 234.015 0 233.831 0Z" fill="white"/>
<path d="M233.831 4.94287C219.125 4.94287 207.209 17.0341 207.209 31.9468C207.209 46.8595 219.13 58.9553 233.831 58.9553C248.533 58.9553 260.458 46.8641 260.458 31.9468C260.458 17.0296 248.538 4.94287 233.831 4.94287ZM223.822 23.8465C226.205 22.9228 228.587 22.3721 230.242 22.0718C228.313 21.9034 226.389 21.9307 224.5 22.14C224.89 21.3619 225.37 20.6383 225.931 19.9875C227.528 19.8783 229.107 19.9875 230.642 20.1332C230.144 19.6963 228.932 19.0319 227.833 18.5313C227.829 18.5313 227.82 18.5268 227.815 18.5222C227.743 18.4904 227.667 18.4585 227.595 18.4266C227.6 18.4266 227.604 18.4221 227.609 18.4175C228.035 18.099 228.488 17.8077 228.959 17.5529C230.287 17.6257 231.57 18.0353 232.239 18.686C232.239 18.686 232.248 18.6223 232.266 18.5086C232.275 18.4585 232.284 18.3993 232.302 18.3311C232.405 17.8578 232.651 17.0114 233.199 16.3606C233.405 16.3424 233.621 16.3379 233.831 16.3379C234.042 16.3379 234.258 16.3424 234.468 16.3606H234.477C235.02 17.0114 235.267 17.8624 235.361 18.3311C235.379 18.3993 235.388 18.4585 235.397 18.5086C235.415 18.6223 235.424 18.686 235.424 18.686C236.093 18.0353 237.376 17.6303 238.699 17.5529L240.049 18.4175C239.978 18.4494 239.91 18.4858 239.843 18.5268C239.839 18.5268 239.83 18.5313 239.825 18.5359C238.726 19.0364 237.515 19.7008 237.017 20.1377C238.551 19.9875 240.13 19.8829 241.727 19.9921C242.284 20.6428 242.768 21.3664 243.158 22.1446C241.27 21.9352 239.341 21.9079 237.416 22.0763C239.071 22.3767 241.454 22.9273 243.836 23.8511C244.056 24.5792 244.199 25.3392 244.258 26.1265C242.171 25.2573 240.206 24.7749 238.587 24.5155C240.224 25.5667 242.279 27.4052 243.997 29.4667C243.836 30.1584 243.603 30.8228 243.311 31.4508C241.288 28.9798 238.995 26.8227 237.21 25.9899C238.65 28.0378 240.265 32.4565 239.973 35.5419C239.713 35.733 239.444 35.915 239.17 36.0789C238.816 33.9719 238.107 31.4826 236.59 29.3347C236.59 29.3302 236.586 29.3256 236.582 29.3165C235.895 28.3427 235.038 27.4416 233.979 26.6771C233.863 26.5906 233.831 26.5269 233.831 26.5133C232.746 27.2459 231.857 28.1834 231.135 29.2346C229.69 31.3279 228.91 33.8627 228.515 36.088C228.506 36.0834 228.497 36.0789 228.488 36.0698C228.21 35.9059 227.945 35.7285 227.685 35.5328C227.394 32.4428 229.004 28.0241 230.449 25.9763C228.668 26.8091 226.375 28.9616 224.347 31.4326C224.056 30.8046 223.822 30.1402 223.661 29.453C225.375 27.3916 227.434 25.5531 229.071 24.5018C227.447 24.7612 225.487 25.2436 223.401 26.1128C223.459 25.3255 223.603 24.5656 223.827 23.8374M239.686 42.5136L242.889 43.9198C243.082 44.0108 243.271 44.1382 243.464 44.2292C243.706 44.3475 243.953 44.4658 244.199 44.5842C243.571 45.6217 242.795 46.5546 241.902 47.3601C241.247 46.8914 240.516 46.3953 239.691 45.8584L236.487 43.9152C235.648 43.4374 234.76 42.955 233.831 42.4863C232.903 42.9596 232.019 43.4374 231.18 43.9152L227.977 45.8584C227.151 46.3908 226.42 46.8914 225.765 47.3601C224.872 46.5546 224.096 45.6217 223.468 44.5842C223.715 44.4658 223.957 44.3475 224.204 44.2292C224.397 44.1382 224.585 44.0108 224.778 43.9198L227.981 42.5136C229.098 42.0585 230.206 41.6444 231.292 41.2621C228.385 39.9379 225.146 38.7501 221.691 37.9265C221.691 37.8354 221.691 37.7444 221.7 37.6534C224.486 38.0584 228.852 38.8639 233.836 40.4203C238.825 38.8639 243.19 38.0584 245.976 37.6534L245.985 37.9265C242.526 38.7501 239.291 39.9379 236.384 41.2621C237.47 41.6444 238.573 42.0585 239.695 42.5136" fill="white"/>
</svg>
